G04 DesignSpark PCB Gerber Version 11.0 Build 5877*
G04 #@! TF.Part,Single*
G04 #@! TF.FileFunction,Copper,L2,Bot*
G04 #@! TF.FilePolarity,Positive*
%FSLAX35Y35*%
%MOIN*%
G04 #@! TA.AperFunction,SMDPad,CuDef*
%ADD22R,0.03940X0.04330*%
G04 #@! TA.AperFunction,ComponentPad*
%ADD14R,0.06000X0.06000*%
%ADD10R,0.07000X0.07000*%
G04 #@! TD.AperFunction*
%ADD20C,0.01000*%
%ADD77C,0.01181*%
G04 #@! TA.AperFunction,ComponentPad*
%ADD12C,0.04000*%
%ADD11C,0.07000*%
%ADD13C,0.07874*%
G04 #@! TA.AperFunction,SMDPad,CuDef*
%ADD21R,0.08000X0.02500*%
G04 #@! TD.AperFunction*
X0Y0D02*
D02*
D10*
X9416Y161938D03*
X49202Y170750D03*
D02*
D11*
X9416Y21938D03*
Y31938D03*
Y41938D03*
Y51938D03*
Y61938D03*
Y71938D03*
Y81938D03*
Y91938D03*
Y101938D03*
Y111938D03*
Y121938D03*
Y131938D03*
Y141938D03*
Y151938D03*
X29202Y160750D03*
Y170750D03*
X39202Y160750D03*
Y170750D03*
X49202Y160750D03*
X69402Y21900D03*
Y31900D03*
Y41900D03*
Y51900D03*
Y61900D03*
Y71900D03*
Y81900D03*
Y91900D03*
Y101900D03*
Y111900D03*
Y121900D03*
Y131900D03*
Y141900D03*
Y151900D03*
Y161900D03*
D02*
D12*
X20679Y111382D03*
X30742Y23833D03*
X48065D03*
X59655Y101283D03*
Y121382D03*
X60443Y141441D03*
D02*
D13*
X9402Y11900D03*
Y171900D03*
X69402Y11900D03*
Y171900D03*
D02*
D14*
X90757Y24433D03*
Y34433D03*
Y44433D03*
Y54433D03*
X91141Y77583D03*
Y87583D03*
Y97583D03*
Y107583D03*
X91466Y131933D03*
Y141933D03*
Y151933D03*
Y161933D03*
D02*
D20*
X21116Y148921D02*
Y152663D01*
X29202Y160750D01*
X22691Y76087D02*
Y76437D01*
X15954Y83173D01*
Y85399D01*
X9416Y91938D01*
X28116Y148921D02*
X31702D01*
X36427Y144197D01*
Y135972D01*
X37651Y134748D01*
X28970Y106382D02*
Y87437D01*
X29297Y87110D01*
X28970Y106382D02*
Y111382D01*
X20679D01*
X28970Y116382D02*
X33415D01*
X37214Y120181D01*
Y134311D01*
X37651Y134748D01*
X28970Y121382D02*
X25777D01*
X15167Y131992D01*
X9470D01*
X9416Y131938D01*
X29202Y160750D02*
Y158902D01*
X39576Y148528D01*
X47100D01*
X47494Y148134D01*
X29691Y76087D02*
Y79280D01*
X27765Y81205D01*
X23828D01*
X22647Y82386D01*
Y86760D01*
X22297Y87110D01*
X37257Y65063D02*
X19104D01*
X16348Y67819D01*
Y75006D01*
X9416Y81938D01*
X44257Y65063D02*
X55718D01*
X58474Y67819D01*
Y75256D01*
X58037Y75693D01*
X44651Y134748D02*
Y129587D01*
X41151Y126087D01*
Y78843D01*
X38002Y75693D01*
X30084D01*
X29691Y76087D01*
X50970Y106382D02*
Y106795D01*
X82342D01*
X91141Y97996D01*
Y97583D01*
X50970Y111382D02*
Y116382D01*
Y117031D01*
X80265D01*
X91151Y127917D01*
Y131618D01*
X91466Y131933D01*
X50970Y116382D02*
X45620D01*
X43513Y114276D01*
Y82035D01*
X49856Y75693D01*
X51037D01*
X50970Y121382D02*
X59655D01*
X50970D02*
Y130787D01*
X55324Y135142D01*
Y147303D01*
X54494Y148134D01*
X58037Y75693D02*
Y86717D01*
X58824Y87504D01*
X59655Y101283D02*
X56506D01*
X51387Y96165D01*
Y87941D01*
X51824Y87504D01*
X60443Y141441D02*
X61230D01*
X65954Y136717D01*
X86250D01*
X91466Y141933D01*
X69402Y61900D02*
X75459D01*
X91141Y77583D01*
X69402Y151900D02*
X66125D01*
X61624Y156402D01*
Y164669D01*
X63592Y166638D01*
X86761D01*
X91466Y161933D01*
X69402Y151900D02*
Y152858D01*
X51260D01*
X47494Y149092D01*
Y148134D01*
X69402Y161900D02*
X74629D01*
X83671Y152858D01*
X90541D01*
X91466Y151933D01*
X91141Y97583D02*
X93671D01*
X96269Y94984D01*
Y49945D01*
X90757Y44433D01*
X91466Y151933D02*
X94045D01*
X97057Y148921D01*
Y103498D01*
X91141Y97583D01*
D02*
D21*
X28970Y106382D03*
Y111382D03*
Y116382D03*
Y121382D03*
X50970Y106382D03*
Y111382D03*
Y116382D03*
Y121382D03*
D02*
D22*
X21116Y148921D03*
X22297Y87110D03*
X22691Y76087D03*
X28116Y148921D03*
X29297Y87110D03*
X29691Y76087D03*
X37257Y65063D03*
X37651Y134748D03*
X44257Y65063D03*
X44651Y134748D03*
X47494Y148134D03*
X51037Y75693D03*
X51824Y87504D03*
X54494Y148134D03*
X58037Y75693D03*
X58824Y87504D03*
D02*
D77*
X21417Y100963D02*
X22893D01*
X22155D02*
Y96534D01*
X21417Y97272D01*
X0Y0D02*
M02*
