G04 DesignSpark PCB Gerber Version 11.0 Build 5877*
G04 #@! TF.Part,Single*
G04 #@! TF.FileFunction,Copper,L1,Top*
G04 #@! TF.FilePolarity,Positive*
%FSLAX35Y35*%
%MOIN*%
G04 #@! TA.AperFunction,ComponentPad*
%ADD14R,0.06000X0.06000*%
%ADD10R,0.07000X0.07000*%
G04 #@! TD.AperFunction*
%ADD20C,0.01000*%
%ADD76C,0.01200*%
G04 #@! TA.AperFunction,ComponentPad*
%ADD12C,0.04000*%
%ADD11C,0.07000*%
%ADD13C,0.07874*%
G04 #@! TD.AperFunction*
X0Y0D02*
D02*
D10*
X9416Y161938D03*
X49202Y170750D03*
D02*
D11*
X9416Y21938D03*
Y31938D03*
Y41938D03*
Y51938D03*
Y61938D03*
Y71938D03*
Y81938D03*
Y91938D03*
Y101938D03*
Y111938D03*
Y121938D03*
Y131938D03*
Y141938D03*
Y151938D03*
X29202Y160750D03*
Y170750D03*
X39202Y160750D03*
Y170750D03*
X49202Y160750D03*
X69402Y21900D03*
Y31900D03*
Y41900D03*
Y51900D03*
Y61900D03*
Y71900D03*
Y81900D03*
Y91900D03*
Y101900D03*
Y111900D03*
Y121900D03*
Y131900D03*
Y141900D03*
Y151900D03*
Y161900D03*
D02*
D12*
X20679Y111382D03*
X30742Y23833D03*
X48065D03*
X59655Y101283D03*
Y121382D03*
X60443Y141441D03*
D02*
D13*
X9402Y11900D03*
Y171900D03*
X69402Y11900D03*
Y171900D03*
D02*
D14*
X90757Y24433D03*
Y34433D03*
Y44433D03*
Y54433D03*
X91141Y77583D03*
Y87583D03*
Y97583D03*
Y107583D03*
X91466Y131933D03*
Y141933D03*
Y151933D03*
Y161933D03*
D02*
D20*
X6416Y131938D02*
X4316D01*
X9416Y151938D02*
Y151523D01*
X14773Y146165D01*
Y59945D01*
X37608Y37110D01*
X88080D01*
X90757Y34433D01*
X9416Y161938D02*
Y159397D01*
X17923Y150890D01*
Y123724D01*
X17135Y122937D01*
Y70181D01*
X40364Y46953D01*
X82490D01*
X85246Y49709D01*
X94301D01*
X97057Y46953D01*
Y30732D01*
X90757Y24433D01*
X20679Y111382D02*
Y131205D01*
X30915Y141441D01*
X60443D01*
X26202Y160750D02*
X24102D01*
X29202Y157750D02*
Y155650D01*
X59655Y121382D02*
Y101283D01*
X66402Y151900D02*
X64302D01*
X69402Y51900D02*
X76020D01*
X82096Y57976D01*
Y78537D01*
X91141Y87583D01*
X69402Y151900D02*
X71243D01*
X77765Y145378D01*
Y118990D01*
X89173Y107583D01*
X91141D01*
X72402Y151900D02*
X74502D01*
X88257Y54433D02*
X86159D01*
X88641Y107583D02*
X86541D01*
X88966Y161933D02*
X86868D01*
X90757Y56933D02*
Y59031D01*
X91141Y105083D02*
Y102984D01*
Y107583D02*
X91939D01*
X96269Y103252D01*
Y59945D01*
X90757Y54433D01*
X91141Y110083D02*
Y112181D01*
X91466Y159433D02*
Y157335D01*
Y164433D02*
Y166531D01*
X93257Y54433D02*
X95356D01*
X93641Y107583D02*
X95742D01*
X93966Y161933D02*
X96065D01*
D02*
D76*
X3750Y177268D02*
Y7583D01*
X5935D01*
G75*
G02*
X7651Y17153I3467J4317D01*
G01*
G75*
G02*
X8411Y26938I1765J4785D01*
G01*
G75*
G02*
Y36938I1005J5000D01*
G01*
G75*
G02*
Y46938I1005J5000D01*
G01*
G75*
G02*
Y56938I1005J5000D01*
G01*
G75*
G02*
Y66938I1005J5000D01*
G01*
G75*
G02*
Y76938I1005J5000D01*
G01*
G75*
G02*
Y86938I1005J5000D01*
G01*
G75*
G02*
Y96938I1005J5000D01*
G01*
G75*
G02*
Y106938I1005J5000D01*
G01*
G75*
G02*
Y116938I1005J5000D01*
G01*
G75*
G02*
Y126938I1005J5000D01*
G01*
G75*
G02*
Y136938I1005J5000D01*
G01*
G75*
G02*
Y146938I1005J5000D01*
G01*
G75*
G02*
X8004Y156839I1005J5000D01*
G01*
X4317D01*
Y167039D01*
X6750D01*
G75*
G02*
X8044Y177268I2652J4861D01*
G01*
X3750D01*
G36*
X3750Y177268D02*
Y7583D01*
X5935D01*
G75*
G02*
X7651Y17153I3467J4317D01*
G01*
G75*
G02*
X8411Y26938I1765J4785D01*
G01*
G75*
G02*
Y36938I1005J5000D01*
G01*
G75*
G02*
Y46938I1005J5000D01*
G01*
G75*
G02*
Y56938I1005J5000D01*
G01*
G75*
G02*
Y66938I1005J5000D01*
G01*
G75*
G02*
Y76938I1005J5000D01*
G01*
G75*
G02*
Y86938I1005J5000D01*
G01*
G75*
G02*
Y96938I1005J5000D01*
G01*
G75*
G02*
Y106938I1005J5000D01*
G01*
G75*
G02*
Y116938I1005J5000D01*
G01*
G75*
G02*
Y126938I1005J5000D01*
G01*
G75*
G02*
Y136938I1005J5000D01*
G01*
G75*
G02*
Y146938I1005J5000D01*
G01*
G75*
G02*
X8004Y156839I1005J5000D01*
G01*
X4317D01*
Y167039D01*
X6750D01*
G75*
G02*
X8044Y177268I2652J4861D01*
G01*
X3750D01*
G37*
X14517Y167039D02*
Y157265D01*
X19408Y152375D01*
G75*
G02*
X20023Y150890I-1485J-1485D01*
G01*
Y133519D01*
X29430Y142926D01*
G75*
G02*
X30917Y143541I1485J-1485D01*
G01*
X57519D01*
G75*
G02*
X64043Y141441I2924J-2100D01*
G01*
G75*
G02*
X57519Y139341I-3600J0D01*
G01*
X31785D01*
X22779Y130335D01*
Y114306D01*
G75*
G02*
X19235Y108084I-2100J-2924D01*
G01*
Y71051D01*
X41233Y49053D01*
X65171D01*
G75*
G02*
X68397Y56900I4231J2847D01*
G01*
G75*
G02*
Y66900I1005J5000D01*
G01*
G75*
G02*
Y76900I1005J5000D01*
G01*
G75*
G02*
Y86900I1005J5000D01*
G01*
G75*
G02*
Y96900I1005J5000D01*
G01*
G75*
G02*
Y106900I1005J5000D01*
G01*
G75*
G02*
Y116900I1005J5000D01*
G01*
G75*
G02*
Y126900I1005J5000D01*
G01*
G75*
G02*
Y136900I1005J5000D01*
G01*
G75*
G02*
Y146900I1005J5000D01*
G01*
G75*
G02*
Y156900I1005J5000D01*
G01*
G75*
G02*
X67591Y166668I1006J5000D01*
G01*
G75*
G02*
X68044Y177268I1811J5232D01*
G01*
X10761D01*
G75*
G02*
X12054Y167039I-1359J-5368D01*
G01*
X14517D01*
X50618Y165650D02*
G75*
G02*
X54302Y160750I-1416J-4900D01*
G01*
G75*
G02*
X44202Y159745I-5100J0D01*
G01*
G75*
G02*
X34202I-5000J1005D01*
G01*
G75*
G02*
X24102Y160750I-5000J1005D01*
G01*
G75*
G02*
X28197Y165750I5100J0D01*
G01*
G75*
G02*
X24102Y170750I1005J5000D01*
G01*
G75*
G02*
X34202Y171755I5100J0D01*
G01*
G75*
G02*
X44104Y172159I5000J-1005D01*
G01*
Y175850D01*
X54301D01*
Y165650D01*
X50618D01*
X56055Y121382D02*
G75*
G02*
X63255I3600J0D01*
G01*
G75*
G02*
X61755Y118458I-3600J0D01*
G01*
Y104207D01*
G75*
G02*
X63255Y101283I-2100J-2924D01*
G01*
G75*
G02*
X56055I-3600J0D01*
G01*
G75*
G02*
X57555Y104207I3600J0D01*
G01*
Y118458D01*
G75*
G02*
X56055Y121382I2100J2924D01*
G01*
X19235Y108084D02*
G36*
X19235Y108084D02*
Y71051D01*
X40633Y49653D01*
X64824D01*
G75*
G02*
X64302Y51900I4578J2248D01*
G01*
G75*
G02*
X67797Y56741I5100J0D01*
G01*
Y57059D01*
G75*
G02*
X64302Y61900I1605J4841D01*
G01*
G75*
G02*
X67797Y66741I5100J0D01*
G01*
Y67059D01*
G75*
G02*
X64302Y71900I1605J4841D01*
G01*
G75*
G02*
X67797Y76741I5100J0D01*
G01*
Y77059D01*
G75*
G02*
X64302Y81900I1605J4841D01*
G01*
G75*
G02*
X67797Y86741I5100J0D01*
G01*
Y87059D01*
G75*
G02*
X64302Y91900I1605J4841D01*
G01*
G75*
G02*
X67797Y96741I5100J0D01*
G01*
Y97059D01*
G75*
G02*
X64302Y101900I1605J4841D01*
G01*
G75*
G02*
X67797Y106741I5100J0D01*
G01*
Y107059D01*
G75*
G02*
X64334Y111333I1605J4841D01*
G01*
X61755D01*
Y104207D01*
G75*
G02*
X63255Y101284I-2099J-2924D01*
G01*
Y101283D01*
G75*
G02*
X56055I-3600J0D01*
G01*
Y101284D01*
G75*
G02*
X57555Y104207I3599J0D01*
G01*
Y111333D01*
X24278D01*
G75*
G02*
X19235Y108084I-3600J49D01*
G01*
G37*
X14517Y165750D02*
G36*
X14517Y165750D02*
Y157265D01*
X19408Y152375D01*
G75*
G02*
X20023Y150890I-1487J-1485D01*
G01*
Y133519D01*
X29430Y142926D01*
G75*
G02*
X30917Y143541I1485J-1486D01*
G01*
X57519D01*
G75*
G02*
X64043Y141441I2924J-2100D01*
G01*
G75*
G02*
X57519Y139341I-3600J0D01*
G01*
X31785D01*
X22779Y130335D01*
Y114306D01*
G75*
G02*
X24279Y111382I-2100J-2924D01*
G01*
G75*
G02*
X24278Y111333I-3606J4D01*
G01*
X57555D01*
Y118458D01*
G75*
G02*
X56055Y121381I2099J2924D01*
G01*
Y121382D01*
G75*
G02*
X63255I3600J0D01*
G01*
Y121381D01*
G75*
G02*
X61755Y118458I-3599J0D01*
G01*
Y111333D01*
X64334D01*
G75*
G02*
X64302Y111900I5069J566D01*
G01*
G75*
G02*
X67797Y116741I5100J0D01*
G01*
Y117059D01*
G75*
G02*
X64302Y121900I1605J4841D01*
G01*
G75*
G02*
X67797Y126741I5100J0D01*
G01*
Y127059D01*
G75*
G02*
X64302Y131900I1605J4841D01*
G01*
G75*
G02*
X67797Y136741I5100J0D01*
G01*
Y137059D01*
G75*
G02*
X64302Y141900I1605J4841D01*
G01*
G75*
G02*
X67797Y146741I5100J0D01*
G01*
Y147059D01*
G75*
G02*
X64302Y151900I1605J4841D01*
G01*
G75*
G02*
X67797Y156741I5100J0D01*
G01*
Y157059D01*
G75*
G02*
X64302Y161900I1605J4841D01*
G01*
G75*
G02*
X66057Y165750I5100J0D01*
G01*
X54301D01*
Y165650D01*
X50618D01*
G75*
G02*
X54302Y160750I-1416J-4900D01*
G01*
G75*
G02*
X44202Y159745I-5100J0D01*
G01*
G75*
G02*
X34202I-5000J1005D01*
G01*
G75*
G02*
X24102Y160750I-5000J1005D01*
G01*
Y160750D01*
Y160750D01*
G75*
G02*
X28197Y165750I5100J0D01*
G01*
X14517D01*
G37*
Y167039D02*
G36*
X14517Y167039D02*
Y165750D01*
X28197D01*
G75*
G02*
X24102Y170750I1005J5000D01*
G01*
Y170750D01*
G75*
G02*
X34202Y171755I5100J0D01*
G01*
G75*
G02*
X44104Y172159I5000J-1005D01*
G01*
Y175850D01*
X54301D01*
Y165750D01*
X66057D01*
G75*
G02*
X67591Y166668I3345J-3850D01*
G01*
G75*
G02*
X63865Y171900I1811J5232D01*
G01*
G75*
G02*
X66587Y176668I5537J0D01*
G01*
X12218D01*
G75*
G02*
X14939Y171900I-2816J-4768D01*
G01*
G75*
G02*
X12054Y167039I-5537J0D01*
G01*
X14517D01*
G37*
X70407Y56900D02*
G75*
G02*
X74049Y54002I-1005J-5000D01*
G01*
X75150D01*
X79996Y58846D01*
Y78537D01*
G75*
G02*
X80611Y80022I2100J0D01*
G01*
X86541Y85952D01*
Y92181D01*
X95742D01*
Y82984D01*
X89513D01*
X88709Y82181D01*
X95742D01*
Y72984D01*
X86541D01*
Y80013D01*
X84196Y77668D01*
Y57976D01*
G75*
G02*
X83581Y56491I-2100J0D01*
G01*
X77504Y50417D01*
G75*
G02*
X76017Y49802I-1485J1485D01*
G01*
X74051D01*
G75*
G02*
X73633Y49053I-4649J2100D01*
G01*
X81620D01*
X83761Y51194D01*
G75*
G02*
X85248Y51809I1485J-1485D01*
G01*
X86159D01*
Y59031D01*
X95356D01*
Y51524D01*
G75*
G02*
X95786Y51194I-1055J-1816D01*
G01*
X98542Y48438D01*
G75*
G02*
X99025Y47684I-1485J-1485D01*
G01*
Y177268D01*
X70761D01*
G75*
G02*
X71213Y166668I-1359J-5368D01*
G01*
G75*
G02*
X70407Y156900I-1811J-4768D01*
G01*
G75*
G02*
Y146900I-1005J-5000D01*
G01*
G75*
G02*
Y136900I-1005J-5000D01*
G01*
G75*
G02*
Y126900I-1005J-5000D01*
G01*
G75*
G02*
Y116900I-1005J-5000D01*
G01*
G75*
G02*
Y106900I-1005J-5000D01*
G01*
G75*
G02*
Y96900I-1005J-5000D01*
G01*
G75*
G02*
Y86900I-1005J-5000D01*
G01*
G75*
G02*
Y76900I-1005J-5000D01*
G01*
G75*
G02*
Y66900I-1005J-5000D01*
G01*
G75*
G02*
Y56900I-1005J-5000D01*
G01*
X86541Y102181D02*
X95742D01*
Y92984D01*
X86541D01*
Y102181D01*
Y112181D02*
X95742D01*
Y102984D01*
X86541D01*
Y112181D01*
X86868Y136531D02*
X96065D01*
Y127335D01*
X86868D01*
Y136531D01*
Y146531D02*
X96065D01*
Y137335D01*
X86868D01*
Y146531D01*
Y156531D02*
X96065D01*
Y147335D01*
X86868D01*
Y156531D01*
Y166531D02*
X96065D01*
Y157335D01*
X86868D01*
Y166531D01*
X71007Y57059D02*
G36*
X71007Y57059D02*
Y56741D01*
G75*
G02*
X74049Y54002I-1604J-4840D01*
G01*
X75150D01*
X79996Y58846D01*
Y78537D01*
G75*
G02*
X80611Y80022I2102J0D01*
G01*
X86541Y85952D01*
Y92181D01*
X95742D01*
Y82984D01*
X89513D01*
X88709Y82181D01*
X95742D01*
Y72984D01*
X86541D01*
Y80013D01*
X84196Y77668D01*
Y57976D01*
G75*
G02*
X83581Y56491I-2100J0D01*
G01*
X77504Y50417D01*
G75*
G02*
X76017Y49802I-1485J1486D01*
G01*
X74051D01*
G75*
G02*
X73633Y49053I-4665J2109D01*
G01*
X81620D01*
X83761Y51194D01*
G75*
G02*
X85248Y51809I1485J-1486D01*
G01*
X86159D01*
Y59031D01*
X95356D01*
Y51524D01*
G75*
G02*
X95786Y51194I-1068J-1833D01*
G01*
X98425Y48554D01*
Y97583D01*
X95742D01*
Y92984D01*
X86541D01*
Y97583D01*
X72117D01*
G75*
G02*
X71007Y97059I-2715J4317D01*
G01*
Y96741D01*
G75*
G02*
X74502Y91900I-1605J-4841D01*
G01*
G75*
G02*
X71007Y87059I-5100J0D01*
G01*
Y86741D01*
G75*
G02*
X74502Y81900I-1605J-4841D01*
G01*
G75*
G02*
X71007Y77059I-5100J0D01*
G01*
Y76741D01*
G75*
G02*
X74502Y71900I-1605J-4841D01*
G01*
G75*
G02*
X71007Y67059I-5100J0D01*
G01*
Y66741D01*
G75*
G02*
X74502Y61900I-1605J-4841D01*
G01*
G75*
G02*
X71007Y57059I-5100J0D01*
G01*
G37*
Y107059D02*
G36*
X71007Y107059D02*
Y106741D01*
G75*
G02*
X74502Y101900I-1605J-4841D01*
G01*
G75*
G02*
X72117Y97583I-5100J0D01*
G01*
X86541D01*
Y102181D01*
X95742D01*
Y97583D01*
X98425D01*
Y107583D01*
X95742D01*
Y102984D01*
X86541D01*
Y107583D01*
X72117D01*
G75*
G02*
X71007Y107059I-2715J4317D01*
G01*
G37*
Y117059D02*
G36*
X71007Y117059D02*
Y116741D01*
G75*
G02*
X74502Y111900I-1605J-4841D01*
G01*
G75*
G02*
X72117Y107583I-5100J0D01*
G01*
X86541D01*
Y112181D01*
X95742D01*
Y107583D01*
X98425D01*
Y131933D01*
X96065D01*
Y127335D01*
X86868D01*
Y131933D01*
X74502D01*
G75*
G02*
Y131900I-5107J-17D01*
G01*
G75*
G02*
X71007Y127059I-5100J0D01*
G01*
Y126741D01*
G75*
G02*
X74502Y121900I-1605J-4841D01*
G01*
G75*
G02*
X71007Y117059I-5100J0D01*
G01*
G37*
Y137059D02*
G36*
X71007Y137059D02*
Y136741D01*
G75*
G02*
X74502Y131933I-1605J-4841D01*
G01*
X86868D01*
Y136531D01*
X96065D01*
Y131933D01*
X98425D01*
Y141933D01*
X96065D01*
Y137335D01*
X86868D01*
Y141933D01*
X74502D01*
G75*
G02*
Y141900I-5107J-17D01*
G01*
G75*
G02*
X71007Y137059I-5100J0D01*
G01*
G37*
Y147059D02*
G36*
X71007Y147059D02*
Y146741D01*
G75*
G02*
X74502Y141933I-1605J-4841D01*
G01*
X86868D01*
Y146531D01*
X96065D01*
Y141933D01*
X98425D01*
Y151933D01*
X96065D01*
Y147335D01*
X86868D01*
Y151933D01*
X74502D01*
G75*
G02*
Y151900I-5107J-17D01*
G01*
G75*
G02*
X71007Y147059I-5100J0D01*
G01*
G37*
Y157059D02*
G36*
X71007Y157059D02*
Y156741D01*
G75*
G02*
X74502Y151933I-1605J-4841D01*
G01*
X86868D01*
Y156531D01*
X96065D01*
Y151933D01*
X98425D01*
Y161933D01*
X96065D01*
Y157335D01*
X86868D01*
Y161933D01*
X74502D01*
G75*
G02*
Y161900I-5107J-17D01*
G01*
G75*
G02*
X71007Y157059I-5100J0D01*
G01*
G37*
X71213Y166668D02*
G36*
X71213Y166668D02*
G75*
G02*
X74502Y161933I-1811J-4768D01*
G01*
X86868D01*
Y166531D01*
X96065D01*
Y161933D01*
X98425D01*
Y176668D01*
X72218D01*
G75*
G02*
X74939Y171900I-2815J-4768D01*
G01*
G75*
G02*
X71213Y166668I-5537J0D01*
G01*
G37*
X0Y0D02*
M02*
