G04 DesignSpark PCB Gerber Version 11.0 Build 5877*
G04 #@! TF.Part,Single*
G04 #@! TF.FileFunction,Drillmap*
G04 #@! TF.FilePolarity,Positive*
%FSLAX35Y35*%
%MOIN*%
%ADD70C,0.00500*%
G04 #@! TA.AperFunction,ComponentPad*
%ADD75C,0.10000*%
G04 #@! TD.AperFunction*
X0Y0D02*
D02*
D70*
X19402Y17837D02*
Y21587D01*
X22528D01*
X21902Y19713D02*
X19402D01*
Y177837D02*
Y181587D01*
X22528D01*
X21902Y179713D02*
X19402D01*
X19416Y27875D02*
Y31625D01*
X21291D01*
X21916Y31313D01*
X22228Y31000D01*
X22541Y30375D01*
Y29125D01*
X22228Y28500D01*
X21916Y28188D01*
X21291Y27875D01*
X19416D01*
Y37875D02*
Y41625D01*
X21291D01*
X21916Y41313D01*
X22228Y41000D01*
X22541Y40375D01*
Y39125D01*
X22228Y38500D01*
X21916Y38188D01*
X21291Y37875D01*
X19416D01*
Y47875D02*
Y51625D01*
X21291D01*
X21916Y51313D01*
X22228Y51000D01*
X22541Y50375D01*
Y49125D01*
X22228Y48500D01*
X21916Y48188D01*
X21291Y47875D01*
X19416D01*
Y57875D02*
Y61625D01*
X21291D01*
X21916Y61313D01*
X22228Y61000D01*
X22541Y60375D01*
Y59125D01*
X22228Y58500D01*
X21916Y58188D01*
X21291Y57875D01*
X19416D01*
Y67875D02*
Y71625D01*
X21291D01*
X21916Y71313D01*
X22228Y71000D01*
X22541Y70375D01*
Y69125D01*
X22228Y68500D01*
X21916Y68188D01*
X21291Y67875D01*
X19416D01*
Y77875D02*
Y81625D01*
X21291D01*
X21916Y81313D01*
X22228Y81000D01*
X22541Y80375D01*
Y79125D01*
X22228Y78500D01*
X21916Y78188D01*
X21291Y77875D01*
X19416D01*
Y87875D02*
Y91625D01*
X21291D01*
X21916Y91313D01*
X22228Y91000D01*
X22541Y90375D01*
Y89125D01*
X22228Y88500D01*
X21916Y88188D01*
X21291Y87875D01*
X19416D01*
Y97875D02*
Y101625D01*
X21291D01*
X21916Y101313D01*
X22228Y101000D01*
X22541Y100375D01*
Y99125D01*
X22228Y98500D01*
X21916Y98188D01*
X21291Y97875D01*
X19416D01*
Y107875D02*
Y111625D01*
X21291D01*
X21916Y111313D01*
X22228Y111000D01*
X22541Y110375D01*
Y109125D01*
X22228Y108500D01*
X21916Y108188D01*
X21291Y107875D01*
X19416D01*
Y117875D02*
Y121625D01*
X21291D01*
X21916Y121313D01*
X22228Y121000D01*
X22541Y120375D01*
Y119125D01*
X22228Y118500D01*
X21916Y118188D01*
X21291Y117875D01*
X19416D01*
Y127875D02*
Y131625D01*
X21291D01*
X21916Y131313D01*
X22228Y131000D01*
X22541Y130375D01*
Y129125D01*
X22228Y128500D01*
X21916Y128188D01*
X21291Y127875D01*
X19416D01*
Y137875D02*
Y141625D01*
X21291D01*
X21916Y141313D01*
X22228Y141000D01*
X22541Y140375D01*
Y139125D01*
X22228Y138500D01*
X21916Y138188D01*
X21291Y137875D01*
X19416D01*
Y147875D02*
Y151625D01*
X21291D01*
X21916Y151313D01*
X22228Y151000D01*
X22541Y150375D01*
Y149125D01*
X22228Y148500D01*
X21916Y148188D01*
X21291Y147875D01*
X19416D01*
Y157875D02*
Y161625D01*
X21291D01*
X21916Y161313D01*
X22228Y161000D01*
X22541Y160375D01*
Y159125D01*
X22228Y158500D01*
X21916Y158188D01*
X21291Y157875D01*
X19416D01*
Y167875D02*
Y171625D01*
X21291D01*
X21916Y171313D01*
X22228Y171000D01*
X22541Y170375D01*
Y169125D01*
X22228Y168500D01*
X21916Y168188D01*
X21291Y167875D01*
X19416D01*
X31616Y117319D02*
X32866D01*
X32241D02*
Y121069D01*
X31616D02*
X32866D01*
X39202Y166687D02*
Y170437D01*
X41078D01*
X41702Y170125D01*
X42015Y169813D01*
X42328Y169187D01*
Y167937D01*
X42015Y167313D01*
X41702Y167000D01*
X41078Y166687D01*
X39202D01*
Y176687D02*
Y180437D01*
X41078D01*
X41702Y180125D01*
X42015Y179813D01*
X42328Y179187D01*
Y177937D01*
X42015Y177313D01*
X41702Y177000D01*
X41078Y176687D01*
X39202D01*
X40742Y29770D02*
Y33520D01*
X43867D01*
X43242Y31645D02*
X40742D01*
Y29770D02*
X43867D01*
X49202Y166687D02*
Y170437D01*
X51078D01*
X51702Y170125D01*
X52015Y169813D01*
X52328Y169187D01*
Y167937D01*
X52015Y167313D01*
X51702Y167000D01*
X51078Y166687D01*
X49202D01*
Y176687D02*
Y180437D01*
X51078D01*
X51702Y180125D01*
X52015Y179813D01*
X52328Y179187D01*
Y177937D01*
X52015Y177313D01*
X51702Y177000D01*
X51078Y176687D01*
X49202D01*
X58065Y29770D02*
Y33520D01*
X61190D01*
X60565Y31645D02*
X58065D01*
Y29770D02*
X61190D01*
X59202Y166687D02*
Y170437D01*
X61078D01*
X61702Y170125D01*
X62015Y169813D01*
X62328Y169187D01*
Y167937D01*
X62015Y167313D01*
X61702Y167000D01*
X61078Y166687D01*
X59202D01*
Y177313D02*
X59515Y177000D01*
X60140Y176687D01*
X60765Y177000D01*
X61078Y177313D01*
Y180437D01*
X61702D01*
X61078D02*
X59828D01*
X70593Y107221D02*
X71843D01*
X71218D02*
Y110971D01*
X70593D02*
X71843D01*
X70593Y127319D02*
X71843D01*
X71218D02*
Y131069D01*
X70593D02*
X71843D01*
X71380Y147378D02*
X72630D01*
X72005D02*
Y151128D01*
X71380D02*
X72630D01*
X79402Y17837D02*
Y21587D01*
X82528D01*
X81902Y19713D02*
X79402D01*
Y27837D02*
Y31587D01*
X81278D01*
X81902Y31275D01*
X82215Y30963D01*
X82528Y30337D01*
Y29087D01*
X82215Y28463D01*
X81902Y28150D01*
X81278Y27837D01*
X79402D01*
Y37837D02*
Y41587D01*
X81278D01*
X81902Y41275D01*
X82215Y40963D01*
X82528Y40337D01*
Y39087D01*
X82215Y38463D01*
X81902Y38150D01*
X81278Y37837D01*
X79402D01*
Y47837D02*
Y51587D01*
X81278D01*
X81902Y51275D01*
X82215Y50963D01*
X82528Y50337D01*
Y49087D01*
X82215Y48463D01*
X81902Y48150D01*
X81278Y47837D01*
X79402D01*
Y57837D02*
Y61587D01*
X81278D01*
X81902Y61275D01*
X82215Y60963D01*
X82528Y60337D01*
Y59087D01*
X82215Y58463D01*
X81902Y58150D01*
X81278Y57837D01*
X79402D01*
Y67837D02*
Y71587D01*
X81278D01*
X81902Y71275D01*
X82215Y70963D01*
X82528Y70337D01*
Y69087D01*
X82215Y68463D01*
X81902Y68150D01*
X81278Y67837D01*
X79402D01*
Y77837D02*
Y81587D01*
X81278D01*
X81902Y81275D01*
X82215Y80963D01*
X82528Y80337D01*
Y79087D01*
X82215Y78463D01*
X81902Y78150D01*
X81278Y77837D01*
X79402D01*
Y87837D02*
Y91587D01*
X81278D01*
X81902Y91275D01*
X82215Y90963D01*
X82528Y90337D01*
Y89087D01*
X82215Y88463D01*
X81902Y88150D01*
X81278Y87837D01*
X79402D01*
Y97837D02*
Y101587D01*
X81278D01*
X81902Y101275D01*
X82215Y100963D01*
X82528Y100337D01*
Y99087D01*
X82215Y98463D01*
X81902Y98150D01*
X81278Y97837D01*
X79402D01*
Y107837D02*
Y111587D01*
X81278D01*
X81902Y111275D01*
X82215Y110963D01*
X82528Y110337D01*
Y109087D01*
X82215Y108463D01*
X81902Y108150D01*
X81278Y107837D01*
X79402D01*
Y117837D02*
Y121587D01*
X81278D01*
X81902Y121275D01*
X82215Y120963D01*
X82528Y120337D01*
Y119087D01*
X82215Y118463D01*
X81902Y118150D01*
X81278Y117837D01*
X79402D01*
Y127837D02*
Y131587D01*
X81278D01*
X81902Y131275D01*
X82215Y130963D01*
X82528Y130337D01*
Y129087D01*
X82215Y128463D01*
X81902Y128150D01*
X81278Y127837D01*
X79402D01*
Y137837D02*
Y141587D01*
X81278D01*
X81902Y141275D01*
X82215Y140963D01*
X82528Y140337D01*
Y139087D01*
X82215Y138463D01*
X81902Y138150D01*
X81278Y137837D01*
X79402D01*
Y147837D02*
Y151587D01*
X81278D01*
X81902Y151275D01*
X82215Y150963D01*
X82528Y150337D01*
Y149087D01*
X82215Y148463D01*
X81902Y148150D01*
X81278Y147837D01*
X79402D01*
Y157837D02*
Y161587D01*
X81278D01*
X81902Y161275D01*
X82215Y160963D01*
X82528Y160337D01*
Y159087D01*
X82215Y158463D01*
X81902Y158150D01*
X81278Y157837D01*
X79402D01*
Y167837D02*
Y171587D01*
X81278D01*
X81902Y171275D01*
X82215Y170963D01*
X82528Y170337D01*
Y169087D01*
X82215Y168463D01*
X81902Y168150D01*
X81278Y167837D01*
X79402D01*
Y177837D02*
Y181587D01*
X82528D01*
X81902Y179713D02*
X79402D01*
X102945Y31933D02*
X103883D01*
Y31620D01*
X103570Y30996D01*
X103257Y30683D01*
X102633Y30370D01*
X102007D01*
X101383Y30683D01*
X101070Y30996D01*
X100757Y31620D01*
Y32870D01*
X101070Y33496D01*
X101383Y33808D01*
X102007Y34120D01*
X102633D01*
X103257Y33808D01*
X103570Y33496D01*
X103883Y32870D01*
X102945Y41933D02*
X103883D01*
Y41620D01*
X103570Y40996D01*
X103257Y40683D01*
X102633Y40370D01*
X102007D01*
X101383Y40683D01*
X101070Y40996D01*
X100757Y41620D01*
Y42870D01*
X101070Y43496D01*
X101383Y43808D01*
X102007Y44120D01*
X102633D01*
X103257Y43808D01*
X103570Y43496D01*
X103883Y42870D01*
X102945Y51933D02*
X103883D01*
Y51620D01*
X103570Y50996D01*
X103257Y50683D01*
X102633Y50370D01*
X102007D01*
X101383Y50683D01*
X101070Y50996D01*
X100757Y51620D01*
Y52870D01*
X101070Y53496D01*
X101383Y53808D01*
X102007Y54120D01*
X102633D01*
X103257Y53808D01*
X103570Y53496D01*
X103883Y52870D01*
X102945Y61933D02*
X103883D01*
Y61620D01*
X103570Y60996D01*
X103257Y60683D01*
X102633Y60370D01*
X102007D01*
X101383Y60683D01*
X101070Y60996D01*
X100757Y61620D01*
Y62870D01*
X101070Y63496D01*
X101383Y63808D01*
X102007Y64120D01*
X102633D01*
X103257Y63808D01*
X103570Y63496D01*
X103883Y62870D01*
X103329Y85083D02*
X104267D01*
Y84770D01*
X103954Y84145D01*
X103641Y83833D01*
X103017Y83520D01*
X102391D01*
X101767Y83833D01*
X101454Y84145D01*
X101141Y84770D01*
Y86020D01*
X101454Y86645D01*
X101767Y86958D01*
X102391Y87270D01*
X103017D01*
X103641Y86958D01*
X103954Y86645D01*
X104267Y86020D01*
X103329Y95083D02*
X104267D01*
Y94770D01*
X103954Y94145D01*
X103641Y93833D01*
X103017Y93520D01*
X102391D01*
X101767Y93833D01*
X101454Y94145D01*
X101141Y94770D01*
Y96020D01*
X101454Y96645D01*
X101767Y96958D01*
X102391Y97270D01*
X103017D01*
X103641Y96958D01*
X103954Y96645D01*
X104267Y96020D01*
X103329Y105083D02*
X104267D01*
Y104770D01*
X103954Y104145D01*
X103641Y103833D01*
X103017Y103520D01*
X102391D01*
X101767Y103833D01*
X101454Y104145D01*
X101141Y104770D01*
Y106020D01*
X101454Y106645D01*
X101767Y106958D01*
X102391Y107270D01*
X103017D01*
X103641Y106958D01*
X103954Y106645D01*
X104267Y106020D01*
X103329Y115083D02*
X104267D01*
Y114770D01*
X103954Y114145D01*
X103641Y113833D01*
X103017Y113520D01*
X102391D01*
X101767Y113833D01*
X101454Y114145D01*
X101141Y114770D01*
Y116020D01*
X101454Y116645D01*
X101767Y116958D01*
X102391Y117270D01*
X103017D01*
X103641Y116958D01*
X103954Y116645D01*
X104267Y116020D01*
X103654Y139433D02*
X104591D01*
Y139120D01*
X104279Y138496D01*
X103966Y138183D01*
X103341Y137870D01*
X102716D01*
X102091Y138183D01*
X101779Y138496D01*
X101466Y139120D01*
Y140370D01*
X101779Y140996D01*
X102091Y141308D01*
X102716Y141620D01*
X103341D01*
X103966Y141308D01*
X104279Y140996D01*
X104591Y140370D01*
X103654Y149433D02*
X104591D01*
Y149120D01*
X104279Y148496D01*
X103966Y148183D01*
X103341Y147870D01*
X102716D01*
X102091Y148183D01*
X101779Y148496D01*
X101466Y149120D01*
Y150370D01*
X101779Y150996D01*
X102091Y151308D01*
X102716Y151620D01*
X103341D01*
X103966Y151308D01*
X104279Y150996D01*
X104591Y150370D01*
X103654Y159433D02*
X104591D01*
Y159120D01*
X104279Y158496D01*
X103966Y158183D01*
X103341Y157870D01*
X102716D01*
X102091Y158183D01*
X101779Y158496D01*
X101466Y159120D01*
Y160370D01*
X101779Y160996D01*
X102091Y161308D01*
X102716Y161620D01*
X103341D01*
X103966Y161308D01*
X104279Y160996D01*
X104591Y160370D01*
X103654Y169433D02*
X104591D01*
Y169120D01*
X104279Y168496D01*
X103966Y168183D01*
X103341Y167870D01*
X102716D01*
X102091Y168183D01*
X101779Y168496D01*
X101466Y169120D01*
Y170370D01*
X101779Y170996D01*
X102091Y171308D01*
X102716Y171620D01*
X103341D01*
X103966Y171308D01*
X104279Y170996D01*
X104591Y170370D01*
D02*
D75*
X9402Y11900D03*
Y171900D03*
X9416Y21938D03*
Y31938D03*
Y41938D03*
Y51938D03*
Y61938D03*
Y71938D03*
Y81938D03*
Y91938D03*
Y101938D03*
Y111938D03*
Y121938D03*
Y131938D03*
Y141938D03*
Y151938D03*
Y161938D03*
X20679Y111382D03*
X29202Y160750D03*
Y170750D03*
X30742Y23833D03*
X39202Y160750D03*
Y170750D03*
X48065Y23833D03*
X49202Y160750D03*
Y170750D03*
X59655Y101283D03*
Y121382D03*
X60443Y141441D03*
X69402Y11900D03*
Y21900D03*
Y31900D03*
Y41900D03*
Y51900D03*
Y61900D03*
Y71900D03*
Y81900D03*
Y91900D03*
Y101900D03*
Y111900D03*
Y121900D03*
Y131900D03*
Y141900D03*
Y151900D03*
Y161900D03*
Y171900D03*
X90757Y24433D03*
Y34433D03*
Y44433D03*
Y54433D03*
X91141Y77583D03*
Y87583D03*
Y97583D03*
Y107583D03*
X91466Y131933D03*
Y141933D03*
Y151933D03*
Y161933D03*
X0Y0D02*
M02*
