G04 DesignSpark PCB Gerber Version 11.0 Build 5877*
G04 #@! TF.Part,Single*
G04 #@! TF.FilePolarity,Positive*
%FSLAX35Y35*%
%MOIN*%
G04 #@! TA.AperFunction,ViaDrill*
%ADD79C,0.02400*%
G04 #@! TA.AperFunction,ComponentDrill*
%ADD73C,0.03200*%
%ADD81C,0.03500*%
%ADD82C,0.03543*%
%ADD80C,0.03600*%
%ADD74C,0.07087*%
G04 #@! TD.AperFunction*
X0Y0D02*
D02*
D73*
X30742Y23833D03*
X48065D03*
D02*
D74*
X9402Y11900D03*
Y171900D03*
X69402Y11900D03*
Y171900D03*
D02*
D79*
X20679Y111382D03*
X59655Y101283D03*
Y121382D03*
X60443Y141441D03*
D02*
D80*
X9416Y21938D03*
Y31938D03*
Y41938D03*
Y51938D03*
Y61938D03*
Y71938D03*
Y81938D03*
Y91938D03*
Y101938D03*
Y111938D03*
Y121938D03*
Y131938D03*
Y141938D03*
Y151938D03*
Y161938D03*
X29202Y160750D03*
Y170750D03*
X39202Y160750D03*
Y170750D03*
X49202Y160750D03*
X69402Y21900D03*
Y31900D03*
Y41900D03*
Y51900D03*
Y61900D03*
Y71900D03*
Y81900D03*
Y91900D03*
Y101900D03*
Y111900D03*
Y121900D03*
Y131900D03*
Y141900D03*
Y151900D03*
Y161900D03*
D02*
D81*
X90757Y24433D03*
Y34433D03*
Y44433D03*
Y54433D03*
X91141Y77583D03*
Y87583D03*
Y97583D03*
Y107583D03*
X91466Y131933D03*
Y141933D03*
Y151933D03*
Y161933D03*
D02*
D82*
X49202Y170750D03*
X0Y0D02*
M02*
