G05
M48
;#@! TF.GenerationSoftware,DesignSpark,DesignSpark PCB,11.0.5875
;#@! TF.CreationDate,2023-11-03T09:24:12--1:00*
;#@! TF.FileFunction,Plated,1,2,PTH
;FILE_FORMAT=3:5
;TYPE=PLATED
INCH
FMAT,2
T1C000.02400
T2C000.03200
T3C000.03500
T4C000.03543
T5C000.03600
T6C000.07087
%
T001
X00020679Y00111382
X00059655Y00101283
X00059655Y00121382
X00060443Y00141441
T002
X00030742Y00023833
X00048065Y00023833
T003
X00090757Y00024433
X00090757Y00034433
X00090757Y00044433
X00090757Y00054433
X00091141Y00077583
X00091141Y00087583
X00091141Y00097583
X00091141Y00107583
X00091466Y00131933
X00091466Y00141933
X00091466Y00151933
X00091466Y00161933
T004
X00049202Y00170750
T005
X00009416Y00021938
X00009416Y00031938
X00009416Y00041938
X00009416Y00051938
X00009416Y00061938
X00009416Y00071938
X00009416Y00081938
X00009416Y00091938
X00009416Y00101938
X00009416Y00111938
X00009416Y00121938
X00009416Y00131938
X00009416Y00141938
X00009416Y00151938
X00009416Y00161938
X00029202Y00160750
X00029202Y00170750
X00039202Y00160750
X00039202Y00170750
X00049202Y00160750
X00069402Y00021900
X00069402Y00031900
X00069402Y00041900
X00069402Y00051900
X00069402Y00061900
X00069402Y00071900
X00069402Y00081900
X00069402Y00091900
X00069402Y00101900
X00069402Y00111900
X00069402Y00121900
X00069402Y00131900
X00069402Y00141900
X00069402Y00151900
X00069402Y00161900
T006
X00009402Y00011900
X00009402Y00171900
X00069402Y00011900
X00069402Y00171900
M30
