G04 DesignSpark PCB Gerber Version 11.0 Build 5877*
G04 #@! TF.Part,Single*
G04 #@! TF.FileFunction,Legend,Bot*
G04 #@! TF.FilePolarity,Positive*
%FSLAX35Y35*%
%MOIN*%
%ADD78C,0.00394*%
%ADD70C,0.00500*%
%ADD71C,0.00800*%
G04 #@! TD.AperFunction*
X0Y0D02*
D02*
D70*
X21085Y159182D02*
X21397Y159494D01*
X21710Y160120D01*
Y161057D01*
X21397Y161682D01*
X21085Y161994D01*
X20460Y162307D01*
X19210D01*
X18585Y161994D01*
X18272Y161682D01*
X17960Y161057D01*
Y160120D01*
X18272Y159494D01*
X18585Y159182D01*
X21710Y154807D02*
Y157307D01*
X19522Y155120D01*
X18897Y154807D01*
X18272Y155120D01*
X17960Y155744D01*
Y156682D01*
X18272Y157307D01*
X31946Y139398D02*
X28196D01*
Y137211D01*
X28508Y136585D01*
X29133Y136273D01*
X29758Y136585D01*
X30071Y137211D01*
Y139398D01*
Y137211D02*
X31946Y136273D01*
Y131898D02*
Y134398D01*
X29758Y132211D01*
X29133Y131898D01*
X28508Y132211D01*
X28196Y132835D01*
Y133773D01*
X28508Y134398D01*
X35233Y86298D02*
X34921Y85986D01*
X34608Y85361D01*
Y84423D01*
X34921Y83798D01*
X35233Y83486D01*
X35858Y83173D01*
X37108D01*
X37733Y83486D01*
X38046Y83798D01*
X38358Y84423D01*
Y85361D01*
X38046Y85986D01*
X37733Y86298D01*
X34608Y88798D02*
Y90048D01*
Y89423D02*
X38358D01*
X37733Y88798D01*
X35396Y72150D02*
X39146D01*
Y74337D01*
X38833Y74962D01*
X38208Y75275D01*
X37583Y74962D01*
X37271Y74337D01*
Y72150D01*
Y74337D02*
X35396Y75275D01*
Y77775D02*
Y79025D01*
Y78400D02*
X39146D01*
X38521Y77775D01*
X34970Y104382D02*
Y123382D01*
X44970D01*
Y104382D01*
X34970D01*
Y127944D02*
X36533Y124194D01*
X38095Y127944D01*
X35595Y126382D02*
X37470D01*
X39970Y126694D02*
Y125444D01*
X40283Y124819D01*
X40595Y124507D01*
X41220Y124194D01*
X41845D01*
X42470Y124507D01*
X42783Y124819D01*
X43095Y125444D01*
Y126694D01*
X42783Y127319D01*
X42470Y127632D01*
X41845Y127944D01*
X41220D01*
X40595Y127632D01*
X40283Y127319D01*
X39970Y126694D01*
X45595Y127944D02*
X46845D01*
X46220D02*
Y124194D01*
X45595Y124819D01*
X36434Y105194D02*
G75*
G02*
X37367Y105940I467J373D01*
G01*
G75*
G02*
X36434Y105194I-467J-373D01*
G01*
X37214Y59007D02*
Y55257D01*
X39402D01*
X40027Y55570D01*
X40339Y56195D01*
X40027Y56820D01*
X39402Y57132D01*
X37214D01*
X39402D02*
X40339Y59007D01*
X43777D02*
Y55257D01*
X42214Y57757D01*
X44714D01*
X43501Y76111D02*
X43189Y76424D01*
X42876Y77049D01*
Y77986D01*
X43189Y78611D01*
X43501Y78924D01*
X44126Y79236D01*
X45376D01*
X46001Y78924D01*
X46314Y78611D01*
X46626Y77986D01*
Y77049D01*
X46314Y76424D01*
X46001Y76111D01*
X43189Y73924D02*
X42876Y73299D01*
Y72674D01*
X43189Y72049D01*
X43814Y71736D01*
X44439Y72049D01*
X44751Y72674D01*
Y73299D01*
Y72674D02*
X45064Y72049D01*
X45689Y71736D01*
X46314Y72049D01*
X46626Y72674D01*
Y73299D01*
X46314Y73924D01*
X44470Y104382D02*
G75*
G03*
X39970Y108882I-4500J0D01*
G01*
G75*
G03*
X35470Y104382I0J-4500D01*
G01*
X47694Y89472D02*
X43944D01*
Y87285D01*
X44256Y86660D01*
X44881Y86347D01*
X45506Y86660D01*
X45819Y87285D01*
Y89472D01*
Y87285D02*
X47694Y86347D01*
X47381Y84160D02*
X47694Y83535D01*
Y82910D01*
X47381Y82285D01*
X46756Y81972D01*
X46131Y82285D01*
X45819Y82910D01*
Y83535D01*
Y82910D02*
X45506Y82285D01*
X44881Y81972D01*
X44256Y82285D01*
X43944Y82910D01*
Y83535D01*
X44256Y84160D01*
X58486Y159576D02*
X58799Y159888D01*
X59111Y160513D01*
Y161451D01*
X58799Y162076D01*
X58486Y162388D01*
X57861Y162701D01*
X56611D01*
X55986Y162388D01*
X55674Y162076D01*
X55361Y161451D01*
Y160513D01*
X55674Y159888D01*
X55986Y159576D01*
X59111Y156138D02*
X55361D01*
X57861Y157701D01*
Y155201D01*
D02*
D71*
X18466Y151571D02*
Y146271D01*
X30766D01*
Y151571D01*
X18466D01*
X31947Y84460D02*
Y89760D01*
X19647D01*
Y84460D01*
X31947D01*
X32341Y73437D02*
Y78737D01*
X20041D01*
Y73437D01*
X32341D01*
X35001Y137398D02*
Y132098D01*
X47301D01*
Y137398D01*
X35001D01*
X44844Y150784D02*
Y145484D01*
X57144D01*
Y150784D01*
X44844D01*
X46907Y62413D02*
Y67713D01*
X34607D01*
Y62413D01*
X46907D01*
X48387Y78343D02*
Y73043D01*
X60687D01*
Y78343D01*
X48387D01*
X49174Y90154D02*
Y84854D01*
X61474D01*
Y90154D01*
X49174D01*
D02*
D78*
X14773Y19244D02*
X16336Y15494D01*
X17898Y19244D01*
X15398Y17681D02*
X17273D01*
X21961D02*
X22898D01*
Y17994D01*
X22586Y18619D01*
X22273Y18931D01*
X21648Y19244D01*
X21023D01*
X20398Y18931D01*
X20086Y18619D01*
X19773Y17994D01*
Y16744D01*
X20086Y16119D01*
X20398Y15806D01*
X21023Y15494D01*
X21648D01*
X22273Y15806D01*
X22586Y16119D01*
X22898Y16744D01*
X24773Y18306D02*
X25086Y18931D01*
X25711Y19244D01*
X26961D01*
X27586Y18931D01*
X27898Y18306D01*
X27586Y17681D01*
X26961Y17369D01*
X25711D01*
X25086Y17056D01*
X24773Y16431D01*
X25086Y15806D01*
X25711Y15494D01*
X26961D01*
X27586Y15806D01*
X27898Y16431D01*
X29773Y17994D02*
X32273D01*
X34773Y18619D02*
X35086Y18931D01*
X35711Y19244D01*
X36336Y18931D01*
X36648Y18619D01*
Y15494D01*
X37273D01*
X36648D02*
X35398D01*
X39773Y18306D02*
X40086Y18931D01*
X40711Y19244D01*
X41336D01*
X41961Y18931D01*
X42273Y18306D01*
Y17681D01*
X41961Y17056D01*
X41336Y16744D01*
X40711D01*
X40086Y17056D01*
X39773Y17681D01*
Y18306D01*
X44773Y16744D02*
X45086Y17994D01*
X45711Y18619D01*
X46336D01*
X46961Y17994D01*
X47273Y16744D01*
X46961Y17994D02*
X46648Y19244D01*
X46336Y19869D01*
X45711Y20181D01*
X45086Y19869D01*
X49773Y17994D02*
X52273D01*
X54773Y16744D02*
X56023Y19244D01*
X57273Y16744D01*
X60398Y19244D02*
X61648D01*
X61023D02*
Y15494D01*
X60398Y16119D01*
X76734Y69000D02*
X80484Y72125D01*
Y69000D02*
X76734Y72125D01*
Y75250D02*
X79234D01*
X80172D02*
X80878Y94984D02*
X77128Y96547D01*
X80878Y98109D01*
X78691Y102484D02*
X79316Y102172D01*
X79628Y101547D01*
Y100922D01*
X79316Y100297D01*
X78691Y99984D01*
X78066D01*
X77441Y100297D01*
X77128Y100922D01*
Y101547D01*
X77441Y102172D01*
X78066Y102484D01*
X77128D02*
X80878D01*
X78691Y107484D02*
X79316Y107172D01*
X79628Y106547D01*
Y105922D01*
X79316Y105297D01*
X78691Y104984D01*
X78066D01*
X77441Y105297D01*
X77128Y105922D01*
Y106547D01*
X77441Y107172D01*
X78066Y107484D01*
X77128D02*
X80878D01*
X81272Y41441D02*
X77522Y43004D01*
X81272Y44566D01*
X79084Y48941D02*
X79709Y48628D01*
X80022Y48004D01*
Y47378D01*
X79709Y46754D01*
X79084Y46441D01*
X78459D01*
X77834Y46754D01*
X77522Y47378D01*
Y48004D01*
X77834Y48628D01*
X78459Y48941D01*
X77522D02*
X81272D01*
X79084Y53941D02*
X79709Y53628D01*
X80022Y53004D01*
Y52378D01*
X79709Y51754D01*
X79084Y51441D01*
X78459D01*
X77834Y51754D01*
X77522Y52378D01*
Y53004D01*
X77834Y53628D01*
X78459Y53941D01*
X77522D02*
X81272D01*
X77522Y83948D02*
X79397D01*
X81272Y82386D01*
X79397Y83948D02*
X81272Y85511D01*
X77522Y88636D02*
X80022D01*
X80959D02*
X77915Y15051D02*
X81665D01*
Y13488D02*
Y16613D01*
X77915Y18488D02*
X80415Y20988D01*
X77915D02*
X80415Y18488D01*
X77915Y28449D02*
X81665D01*
Y30636D01*
X81353Y31261D01*
X80728Y31574D01*
X80103Y31261D01*
X79791Y30636D01*
Y28449D01*
Y30636D02*
X77915Y31574D01*
Y33449D02*
X80415Y35949D01*
X77915D02*
X80415Y33449D01*
X81665Y148528D02*
X77915Y150090D01*
X81665Y151653D01*
X79478Y156028D02*
X80103Y155715D01*
X80415Y155090D01*
Y154465D01*
X80103Y153840D01*
X79478Y153528D01*
X78853D01*
X78228Y153840D01*
X77915Y154465D01*
Y155090D01*
X78228Y155715D01*
X78853Y156028D01*
X77915D02*
X81665D01*
X79478Y161028D02*
X80103Y160715D01*
X80415Y160090D01*
Y159465D01*
X80103Y158840D01*
X79478Y158528D01*
X78853D01*
X78228Y158840D01*
X77915Y159465D01*
Y160090D01*
X78228Y160715D01*
X78853Y161028D01*
X77915D02*
X81665D01*
X78309Y126480D02*
X82059Y129606D01*
Y126480D02*
X78309Y129606D01*
X79247Y131480D02*
X78622Y131793D01*
X78309Y132418D01*
Y133043D01*
X78622Y133668D01*
X79247Y133980D01*
X79872D01*
X80497Y133668D01*
X80809Y133043D01*
Y132418D01*
X80497Y131793D01*
X79872Y131480D01*
X79247D01*
X78309Y138673D02*
X80184D01*
X82059Y137110D01*
X80184Y138673D02*
X82059Y140235D01*
X79247Y142110D02*
X78622Y142423D01*
X78309Y143048D01*
Y143673D01*
X78622Y144298D01*
X79247Y144610D01*
X79872D01*
X80497Y144298D01*
X80809Y143673D01*
Y143048D01*
X80497Y142423D01*
X79872Y142110D01*
X79247D01*
X92864Y62051D02*
X93489Y61739D01*
X93801Y61114D01*
Y60489D01*
X93489Y59864D01*
X92864Y59551D01*
X92551D01*
X91926Y59864D01*
X91614Y60489D01*
Y61114D01*
X91926Y61739D01*
X92551Y62051D01*
X93801D02*
X91301D01*
X90676Y61739D01*
X90364Y61114D01*
Y60176D01*
X90676Y59551D01*
X91301Y64551D02*
X93801D01*
X92864D02*
X93489Y64864D01*
X93801Y65489D01*
Y66114D01*
X93489Y66739D01*
X92864Y67051D01*
X91301D01*
X92864Y72051D02*
X93489Y71739D01*
X93801Y71114D01*
Y70489D01*
X93489Y69864D01*
X92864Y69551D01*
X92239D01*
X91614Y69864D01*
X91301Y70489D01*
Y71114D01*
X91614Y71739D01*
X92239Y72051D01*
X91301D02*
X95051D01*
X92864Y114807D02*
X93489Y114494D01*
X93801Y113870D01*
Y113244D01*
X93489Y112620D01*
X92864Y112307D01*
X92551D01*
X91926Y112620D01*
X91614Y113244D01*
Y113870D01*
X91926Y114494D01*
X92551Y114807D01*
X93801D02*
X91301D01*
X90676Y114494D01*
X90364Y113870D01*
Y112932D01*
X90676Y112307D01*
X91301Y117307D02*
X93801D01*
X92864D02*
X93489Y117620D01*
X93801Y118244D01*
Y118870D01*
X93489Y119494D01*
X92864Y119807D01*
X91301D01*
X92864Y124807D02*
X93489Y124494D01*
X93801Y123870D01*
Y123244D01*
X93489Y122620D01*
X92864Y122307D01*
X92239D01*
X91614Y122620D01*
X91301Y123244D01*
Y123870D01*
X91614Y124494D01*
X92239Y124807D01*
X91301D02*
X95051D01*
X98376Y166776D02*
X99001Y166463D01*
X99313Y165838D01*
Y165213D01*
X99001Y164588D01*
X98376Y164276D01*
X98063D01*
X97438Y164588D01*
X97126Y165213D01*
Y165838D01*
X97438Y166463D01*
X98063Y166776D01*
X99313D02*
X96813D01*
X96188Y166463D01*
X95876Y165838D01*
Y164901D01*
X96188Y164276D01*
X96813Y169276D02*
X99313D01*
X98376D02*
X99001Y169588D01*
X99313Y170213D01*
Y170838D01*
X99001Y171463D01*
X98376Y171776D01*
X96813D01*
X98376Y176776D02*
X99001Y176463D01*
X99313Y175838D01*
Y175213D01*
X99001Y174588D01*
X98376Y174276D01*
X97751D01*
X97126Y174588D01*
X96813Y175213D01*
Y175838D01*
X97126Y176463D01*
X97751Y176776D01*
X96813D02*
X100563D01*
X0Y0D02*
M02*
