G04 DesignSpark PCB Gerber Version 11.0 Build 5877*
G04 #@! TF.Part,Single*
G04 #@! TF.FileFunction,Legend,Top*
G04 #@! TF.FilePolarity,Positive*
%FSLAX35Y35*%
%MOIN*%
%ADD70C,0.00500*%
%ADD71C,0.00800*%
%ADD20C,0.01000*%
G04 #@! TD.AperFunction*
X0Y0D02*
D02*
D70*
X14416Y16938D02*
Y166938D01*
X4416D01*
Y16938D01*
X14416D01*
X16681Y67479D02*
X39096Y89894D01*
X61370Y67620D01*
X38955Y45205D01*
X16681Y67479D01*
X17202Y41250D02*
X61702D01*
Y7750D01*
X51202D01*
Y250D01*
X27702D01*
Y7750D01*
X17202D01*
Y41250D01*
X18702Y133250D02*
Y125250D01*
X23702D01*
Y133250D01*
X18702D01*
X20102Y113000D02*
X31602D01*
Y120000D01*
X20102D01*
Y113000D01*
X21032Y83376D02*
X16578Y87830D01*
X24373Y95624D01*
X28827Y91170D01*
X21032Y83376D01*
X22702Y96500D02*
X36202D01*
Y103000D01*
X22702D01*
Y96500D01*
Y124600D02*
Y116600D01*
X17702D01*
Y124600D01*
X22702D01*
X24202Y175750D02*
X54202D01*
Y155750D01*
X24202D01*
Y175750D01*
X27918Y8593D02*
Y22993D01*
X21518D01*
Y8593D01*
X27918D01*
X28102Y137800D02*
Y123400D01*
X34502D01*
Y137800D01*
X28102D01*
X29602Y79700D02*
Y71700D01*
X34602D01*
Y79700D01*
X29602D01*
X33452Y124500D02*
Y116500D01*
X28452D01*
Y124500D01*
X33452D01*
X35702Y130000D02*
X62702D01*
Y145000D01*
X35702D01*
Y130000D01*
X41702Y13000D02*
Y21000D01*
X36702D01*
Y13000D01*
X41702D01*
X42202Y116600D02*
Y124600D01*
X47202D01*
Y116600D01*
X42202D01*
X44255Y100480D02*
G75*
G03*
X37852I-3201J0D01*
G01*
G75*
G03*
X44255I3201J0D01*
G01*
X45702Y7750D02*
X33202D01*
X45702D02*
X33202D01*
X47952Y71750D02*
Y79750D01*
X42952D01*
Y71750D01*
X47952D01*
X48754Y95480D02*
X33054D01*
Y105480D01*
X48754D01*
Y95480D01*
X50702Y28000D02*
Y67000D01*
X27202D01*
Y28000D01*
X50702D01*
X56452Y116500D02*
Y124500D01*
X61452D01*
Y116500D01*
X56452D01*
X58402Y103000D02*
X44902D01*
Y96500D01*
X58402D01*
Y103000D01*
X58702Y13000D02*
Y21000D01*
X53702D01*
Y13000D01*
X58702D01*
X74202Y176500D02*
Y6500D01*
X4202D01*
Y176500D01*
X74202D01*
X74402Y16900D02*
Y166900D01*
X64402D01*
Y16900D01*
X74402D01*
X83257Y12870D02*
Y16620D01*
X85445D01*
X86070Y16308D01*
X86383Y15683D01*
X86070Y15058D01*
X85445Y14746D01*
X83257D01*
X88257Y16620D02*
Y12870D01*
X91383D01*
X93570Y13183D02*
X94195Y12870D01*
X94820D01*
X95445Y13183D01*
X95757Y13808D01*
X95445Y14433D01*
X94820Y14746D01*
X94195D01*
X94820D02*
X95445Y15058D01*
X95757Y15683D01*
X95445Y16308D01*
X94820Y16620D01*
X94195D01*
X93570Y16308D01*
X83641Y66020D02*
Y69770D01*
X85829D01*
X86454Y69458D01*
X86767Y68833D01*
X86454Y68208D01*
X85829Y67895D01*
X83641D01*
X88641Y69770D02*
Y66020D01*
X91767D01*
X94267D02*
X95517D01*
X94891D02*
Y69770D01*
X94267Y69145D01*
X83966Y120370D02*
Y124120D01*
X86154D01*
X86779Y123808D01*
X87091Y123183D01*
X86779Y122558D01*
X86154Y122246D01*
X83966D01*
X88966Y124120D02*
Y120370D01*
X92091D01*
X96466D02*
X93966D01*
X96154Y122558D01*
X96466Y123183D01*
X96154Y123808D01*
X95529Y124120D01*
X94591D01*
X93966Y123808D01*
D02*
D71*
X24202Y175750D02*
X54202D01*
Y155750D01*
X24202D01*
Y175750D01*
D02*
D20*
X85757Y59433D02*
Y19433D01*
X95757D01*
Y59433D01*
X85757D01*
X86141Y112583D02*
Y72583D01*
X96141D01*
Y112583D01*
X86141D01*
X86466Y166933D02*
Y126933D01*
X96466D01*
Y166933D01*
X86466D01*
X0Y0D02*
M02*
