G04 DesignSpark PCB Gerber Version 9.0 Build 5138 *
G04 #@! TF.Part,Single*
G04 #@! TF.FileFunction,Copper,L2,Bot *
G04 #@! TF.FilePolarity,Positive *
%FSLAX35Y35*%
%MOIN*%
G04 #@! TA.AperFunction,SMDPad,CuDef*
%ADD146R,0.07100X0.12200*%
G04 #@! TD.AperFunction*
%ADD12C,0.00500*%
%ADD76C,0.01000*%
%ADD21C,0.01575*%
%ADD124C,0.02362*%
%ADD145C,0.02500*%
%ADD23C,0.02520*%
%ADD11C,0.03150*%
G04 #@! TA.AperFunction,ViaPad*
%ADD125C,0.03189*%
G04 #@! TA.AperFunction,ComponentPad*
%ADD129C,0.11811*%
G04 #@! TA.AperFunction,WasherPad*
%ADD126C,0.12205*%
X0Y0D02*
D02*
D11*
X124659Y128675D02*
Y149856D01*
D02*
D12*
X40801Y97100D02*
Y85289D01*
X139226*
Y101037*
X210093*
Y171766*
X21116*
Y97100*
X40801*
X36909Y150841D02*
G75*
G02X50795I6943D01*
G01*
G75*
G02X36909I-6943*
G01*
X57106D02*
G75*
G02X70598I6746D01*
G01*
G75*
G02X57106I-6746*
G01*
X61417Y108911D02*
G75*
G02X66287I2435D01*
G01*
G75*
G02X61417I-2435*
G01*
Y128596D02*
G75*
G02X66287I2435D01*
G01*
G75*
G02X61417I-2435*
G01*
X77303Y108124D02*
G75*
G02X82567I2632D01*
G01*
G75*
G02X82154Y106708I-2632*
G01*
Y90643*
G75*
G02X82567Y89226I-2219J-1416*
G01*
G75*
G02X77303I-2632*
G01*
G75*
G02X77717Y90643I2632*
G01*
Y106708*
G75*
G02X77303Y108124I2219J1416*
G01*
X87539D02*
G75*
G02X92803I2632D01*
G01*
G75*
G02X92390Y106708I-2632*
G01*
Y90643*
G75*
G02X92803Y89226I-2219J-1416*
G01*
G75*
G02X87539I-2632*
G01*
G75*
G02X87953Y90643I2632*
G01*
Y106708*
G75*
G02X87539Y108124I2219J1416*
G01*
X122028Y149856D02*
G75*
G02X127291I2632D01*
G01*
G75*
G02X127272Y149535I-2631*
G01*
Y128996*
G75*
G02X127291Y128675I-2612J-321*
G01*
G75*
G02X122028I-2632*
G01*
G75*
G02X122047Y128996I2631*
G01*
Y149535*
G75*
G02X122028Y149856I2612J321*
G01*
X124055Y107730D02*
G75*
G02X129319I2632D01*
G01*
G75*
G02X128906Y106314I-2632*
G01*
Y90643*
G75*
G02X129319Y89226I-2219J-1416*
G01*
G75*
G02X124055I-2632*
G01*
G75*
G02X124469Y90643I2632*
G01*
Y106314*
G75*
G02X124055Y107730I2219J1416*
G01*
X131083Y108124D02*
G75*
G02X136346I2632D01*
G01*
G75*
G02X135933Y106708I-2632*
G01*
Y90643*
G75*
G02X136346Y89226I-2219J-1416*
G01*
G75*
G02X131083I-2632*
G01*
G75*
G02X131496Y90643I2632*
G01*
Y106708*
G75*
G02X131083Y108124I2219J1416*
G01*
X143701Y151431D02*
G75*
G02X157587I6943D01*
G01*
G75*
G02X143701I-6943*
G01*
X163780D02*
G75*
G02X177665I6943D01*
G01*
G75*
G02X163780I-6943*
G01*
X183780D02*
G75*
G02X197665I6943D01*
G01*
G75*
G02X183780I-6943*
G01*
X21366Y108911D02*
G36*
Y97100D01*
X40801*
Y85539*
X139226*
Y101037*
X209843*
Y108911*
X136226*
G75*
G02X136346Y108124I-2511J-787*
G01*
G75*
G02X135933Y106708I-2632*
G01*
Y90643*
G75*
G02X136346Y89226I-2219J-1416*
G01*
G75*
G02X131083I-2632*
G01*
G75*
G02X131496Y90643I2632*
G01*
Y106708*
G75*
G02X131083Y108124I2219J1416*
G01*
G75*
G02X131203Y108911I2632J0*
G01*
X129039*
G75*
G02X129319Y107730I-2352J-1181*
G01*
G75*
G02X128906Y106314I-2632*
G01*
Y90643*
G75*
G02X129319Y89226I-2219J-1416*
G01*
G75*
G02X124055I-2632*
G01*
G75*
G02X124469Y90643I2632*
G01*
Y106314*
G75*
G02X124055Y107730I2219J1416*
G01*
G75*
G02X124335Y108911I2632*
G01*
X92683*
G75*
G02X92803Y108124I-2511J-787*
G01*
G75*
G02X92390Y106708I-2632*
G01*
Y90643*
G75*
G02X92803Y89226I-2219J-1416*
G01*
G75*
G02X87539I-2632*
G01*
G75*
G02X87953Y90643I2632*
G01*
Y106708*
G75*
G02X87539Y108124I2219J1416*
G01*
G75*
G02X87660Y108911I2632J0*
G01*
X82446*
G75*
G02X82567Y108124I-2511J-787*
G01*
G75*
G02X82154Y106708I-2632*
G01*
Y90643*
G75*
G02X82567Y89226I-2219J-1416*
G01*
G75*
G02X77303I-2632*
G01*
G75*
G02X77717Y90643I2632*
G01*
Y106708*
G75*
G02X77303Y108124I2219J1416*
G01*
G75*
G02X77424Y108911I2632J0*
G01*
X66287*
G75*
G02X61417I-2435*
G01*
X21366*
G37*
Y128596D02*
G36*
Y108911D01*
X61417*
G75*
G02X66287I2435*
G01*
X77424*
G75*
G02X82446I2511J-787*
G01*
X87660*
G75*
G02X92683I2511J-787*
G01*
X124335*
G75*
G02X129039I2352J-1181*
G01*
X131203*
G75*
G02X136226I2511J-787*
G01*
X209843*
Y128596*
X127290*
G75*
G02X122029I-2631J79*
G01*
X66287*
G75*
G02X61417I-2435*
G01*
X21366*
G37*
Y150841D02*
G36*
Y128596D01*
X61417*
G75*
G02X66287I2435*
G01*
X122029*
G75*
G02X122028Y128675I2631J79*
G01*
G75*
G02X122047Y128996I2735J-6*
G01*
Y149535*
G75*
G02X122028Y149856I2715J328*
G01*
G75*
G02X122219Y150841I2632*
G01*
X70598*
G75*
G02X57106I-6746*
G01*
X50795*
G75*
G02X36909I-6943*
G01*
X21366*
G37*
X127272Y149535D02*
G36*
Y128996D01*
G75*
G02X127291Y128675I-2715J-328*
G01*
G75*
G02X127290Y128596I-2633*
G01*
X209843*
Y150841*
X197640*
G75*
G02X183805I-6918J591*
G01*
X177640*
G75*
G02X163805I-6918J591*
G01*
X157561*
G75*
G02X143726I-6918J591*
G01*
X127100*
G75*
G02X127291Y149856I-2441J-984*
G01*
G75*
G02X127272Y149535I-2735J6*
G01*
G37*
X21366Y171516D02*
G36*
Y150841D01*
X36909*
G75*
G02X50795I6943*
G01*
X57106*
G75*
G02X70598I6746*
G01*
X122219*
G75*
G02X127100I2441J-984*
G01*
X143726*
G75*
G02X143701Y151431I6918J591*
G01*
G75*
G02X157587I6943*
G01*
G75*
G02X157561Y150841I-6943J0*
G01*
X163805*
G75*
G02X163780Y151431I6918J591*
G01*
G75*
G02X177665I6943*
G01*
G75*
G02X177640Y150841I-6943J0*
G01*
X183805*
G75*
G02X183780Y151431I6918J591*
G01*
G75*
G02X197665I6943*
G01*
G75*
G02X197640Y150841I-6943J0*
G01*
X209843*
Y171516*
X21366*
G37*
D02*
D21*
X61667Y25148D02*
X61297Y24778D01*
X63852Y128596D02*
X81746Y26329*
X83297Y24778D01*
X103793Y64423D02*
X104187D01*
Y58518D02*
X93951Y48281D01*
X93557*
Y51549*
X125447Y52707D02*
X125817Y52337D01*
X203813Y24778D02*
X204394Y25358D01*
D02*
D23*
X23478Y57455D02*
X23872Y57061D01*
X27809*
X43163Y24778D02*
X43951Y23990D01*
X63852Y128596D02*
Y108911D01*
X79778Y52337D02*
Y51943D01*
X126211D02*
X125817Y52337D01*
X126211Y52730D02*
X125817Y52337D01*
X151037Y97100D02*
Y80289D01*
X147494Y76746*
X170329Y97100D02*
Y84620D01*
X178596Y76352*
D02*
D76*
X58447Y150841D02*
X56856D01*
X62758Y108911D02*
X61167D01*
X62758Y128596D02*
X61167D01*
X63852Y107817D02*
Y106226D01*
Y110006D02*
Y111596D01*
Y127502D02*
Y125911D01*
Y129691D02*
Y131281D01*
Y145435D02*
Y143844D01*
Y156246D02*
Y157837D01*
X64947Y108911D02*
X66537D01*
X64947Y128596D02*
X66537D01*
X69258Y150841D02*
X70848D01*
D02*
D124*
X61667Y34896D02*
Y25148D01*
X63852Y150841D02*
Y128596D01*
X79935Y108124D02*
Y89226D01*
X81746Y34502D02*
Y26329D01*
X90171Y108124D02*
Y89226D01*
X104187Y64423D02*
Y58518D01*
X125447Y64423D02*
Y52707D01*
X126687Y107730D02*
Y89226D01*
X133715Y108124D02*
Y89226D01*
D02*
D125*
X61667Y34896D03*
X63852Y108911D03*
Y128596D03*
X79935Y89226D03*
Y108124D03*
X81746Y34502D03*
X90171Y89226D03*
Y108124D03*
X103793Y64423D03*
X124659Y128675D03*
Y149856D03*
X125447Y64423D03*
X126687Y89226D03*
Y107730D03*
X133715Y89226D03*
Y108124D03*
X151037Y97100D03*
X170329D03*
D02*
D126*
X11274Y10486D03*
Y162061D03*
X217967Y10486D03*
Y164030D03*
D02*
D129*
X23478Y37455D03*
Y30289D01*
X28990Y24778*
X43163*
X23478Y57455D03*
Y77533D03*
X126234D01*
X27809Y57061D02*
X32533Y52337D01*
X79778*
X43852Y150841D03*
X63852D03*
X105762Y24778D02*
X203813D01*
X150644Y151431D03*
X170722D03*
X190722D03*
X204394Y25358D02*
X207238Y28203D01*
Y37652*
D03*
Y57652D03*
X179974D01*
X175053Y52730*
X150250*
X207238Y77730D03*
X194344D01*
D02*
D145*
X55368Y20447D02*
X36077D01*
Y29502*
X55368*
Y20447*
G36*
X36077*
Y29502*
X55368*
Y20447*
G37*
X57337Y19266D02*
Y23990D01*
X40801*
X57337Y19266*
G36*
Y23990*
X40801*
X57337Y19266*
G37*
Y30683D02*
Y25959D01*
X40801*
X57337Y30683*
G36*
Y25959*
X40801*
X57337Y30683*
G37*
X86864Y18872D02*
Y23596D01*
X103400*
X86864Y18872*
G36*
Y23596*
X103400*
X86864Y18872*
G37*
Y30289D02*
Y25565D01*
X103400*
X86864Y30289*
G36*
Y25565*
X103400*
X86864Y30289*
G37*
X88833Y29108D02*
X108124D01*
Y20053*
X88833*
Y29108*
G36*
X108124*
Y20053*
X88833*
Y29108*
G37*
X99069Y48006D02*
X79778D01*
Y57061*
X99069*
Y48006*
G36*
X79778*
Y57061*
X99069*
Y48006*
G37*
X101037Y46825D02*
Y51549D01*
X84502*
X101037Y46825*
G36*
Y51549*
X84502*
X101037Y46825*
G37*
Y58242D02*
Y53518D01*
X84502*
X101037Y58242*
G36*
Y53518*
X84502*
X101037Y58242*
G37*
X128990Y47219D02*
Y51943D01*
X145526*
X128990Y47219*
G36*
Y51943*
X145526*
X128990Y47219*
G37*
Y58636D02*
Y53911D01*
X145526*
X128990Y58636*
G36*
Y53911*
X145526*
X128990Y58636*
G37*
X130959Y57455D02*
X150250D01*
Y48400*
X130959*
Y57455*
G36*
X150250*
Y48400*
X130959*
Y57455*
G37*
X145526Y73203D02*
X126234D01*
Y82258*
X145526*
Y73203*
G36*
X126234*
Y82258*
X145526*
Y73203*
G37*
X147494Y72022D02*
Y76746D01*
X130959*
X147494Y72022*
G36*
Y76746*
X130959*
X147494Y72022*
G37*
Y83439D02*
Y78715D01*
X130959*
X147494Y83439*
G36*
Y78715*
X130959*
X147494Y83439*
G37*
X176234Y71628D02*
Y76352D01*
X192770*
X176234Y71628*
G36*
Y76352*
X192770*
X176234Y71628*
G37*
Y83045D02*
Y78321D01*
X192770*
X176234Y83045*
G36*
Y78321*
X192770*
X176234Y83045*
G37*
X178203Y81864D02*
X197494D01*
Y72809*
X178203*
Y81864*
G36*
X197494*
Y72809*
X178203*
Y81864*
G37*
D02*
D146*
X61297Y24778D03*
X83297D03*
X103817Y52337D03*
X125817D03*
X151061Y77140D03*
X173061D03*
X0Y0D02*
M02*
