G05
M48
METRIC,TZ
FMAT,2
T1C000.41000
T2C001.40000
T3C003.00000
%
T001
X15.66350Y8.86350
X16.21850Y27.66350
X16.21850Y32.66350
X20.30350Y22.66350
X20.30350Y27.46350
X20.76350Y8.76350
X22.90350Y22.66350
X22.90350Y27.46350
X26.36350Y16.36350
X31.66350Y32.68350
X31.66350Y38.06350
X31.86350Y16.36350
X32.17850Y22.66350
X32.17850Y27.36350
X33.96350Y22.66350
X33.96350Y27.46350
X38.36350Y24.66350
X43.26350Y24.66350
T002
X5.96350Y9.51350
X5.96350Y14.59350
X5.96350Y19.69350
X11.13850Y38.31350
X16.21850Y38.31350
X38.26350Y38.46350
X43.36350Y38.46350
X48.44350Y38.46350
X52.63850Y9.56350
X52.63850Y14.64350
X52.63850Y19.74350
T003
X2.86350Y2.66350
X2.86350Y41.16350
X55.36350Y2.66350
X55.36350Y41.66350
M30
