G04 DesignSpark PCB Gerber Version 9.0 Build 5138 *
G04 #@! TF.Part,Single*
G04 #@! TF.FileFunction,Drillmap *
G04 #@! TF.FilePolarity,Positive *
%FSLAX35Y35*%
%MOIN*%
%ADD12C,0.00500*%
G04 #@! TA.AperFunction,ComponentPad*
%ADD18C,0.10000*%
X0Y0D02*
D02*
D12*
X21274Y17361D02*
X21586Y16736D01*
X22211Y16424*
X23461*
X24086Y16736*
X24399Y17361*
X24086Y17986*
X23461Y18299*
X22211*
X21586Y18611*
X21274Y19236*
X21586Y19861*
X22211Y20174*
X23461*
X24086Y19861*
X24399Y19236*
X21274Y168936D02*
X21586Y168311D01*
X22211Y167998*
X23461*
X24086Y168311*
X24399Y168936*
X24086Y169561*
X23461Y169874*
X22211*
X21586Y170186*
X21274Y170811*
X21586Y171436*
X22211Y171748*
X23461*
X24086Y171436*
X24399Y170811*
X33478Y43392D02*
Y47142D01*
X35666*
X36291Y46830*
X36604Y46205*
X36291Y45580*
X35666Y45267*
X33478*
X35666D02*
X36604Y43392D01*
X33478Y63392D02*
Y67142D01*
X35666*
X36291Y66830*
X36604Y66205*
X36291Y65580*
X35666Y65267*
X33478*
X35666D02*
X36604Y63392D01*
X33478Y83471D02*
Y87221D01*
X35666*
X36291Y86909*
X36604Y86283*
X36291Y85659*
X35666Y85346*
X33478*
X35666D02*
X36604Y83471D01*
X53852Y156778D02*
Y160528D01*
X56040*
X56665Y160216*
X56978Y159591*
X56665Y158966*
X56040Y158653*
X53852*
X56040D02*
X56978Y156778D01*
X71667Y44583D02*
X73230Y40833D01*
X74793Y44583*
X73852Y118599D02*
X75415Y114849D01*
X76978Y118599*
X73852Y138284D02*
X75415Y134534D01*
X76978Y138284*
X73852Y156778D02*
Y160528D01*
X76040*
X76665Y160216*
X76978Y159591*
X76665Y158966*
X76040Y158653*
X73852*
X76040D02*
X76978Y156778D01*
X89935Y98914D02*
X91498Y95164D01*
X93060Y98914*
X89935Y117811D02*
X91498Y114061D01*
X93060Y117811*
X91746Y44189D02*
X93309Y40439D01*
X94871Y44189*
X100171Y98914D02*
X101734Y95164D01*
X103296Y98914*
X100171Y117811D02*
X101734Y114061D01*
X103296Y117811*
X113793Y74111D02*
X115356Y70361D01*
X116919Y74111*
X134659Y138363D02*
X136222Y134613D01*
X137785Y138363*
X134659Y159544D02*
X136222Y155794D01*
X137785Y159544*
X135447Y74111D02*
X137009Y70361D01*
X138572Y74111*
X136687Y98914D02*
X138250Y95164D01*
X139812Y98914*
X136687Y117418D02*
X138250Y113668D01*
X139812Y117418*
X143715Y98914D02*
X145277Y95164D01*
X146840Y98914*
X143715Y117811D02*
X145277Y114061D01*
X146840Y117811*
X160644Y157369D02*
Y161119D01*
X162831*
X163456Y160806*
X163769Y160181*
X163456Y159556*
X162831Y159244*
X160644*
X162831D02*
X163769Y157369D01*
X161037Y106788D02*
X162600Y103038D01*
X164163Y106788*
X180329D02*
X181891Y103038D01*
X183454Y106788*
X180722Y157369D02*
Y161119D01*
X182910*
X183535Y160806*
X183848Y160181*
X183535Y159556*
X182910Y159244*
X180722*
X182910D02*
X183848Y157369D01*
X200722D02*
Y161119D01*
X202910*
X203535Y160806*
X203848Y160181*
X203535Y159556*
X202910Y159244*
X200722*
X202910D02*
X203848Y157369D01*
X217238Y43589D02*
Y47339D01*
X219426*
X220051Y47027*
X220363Y46402*
X220051Y45777*
X219426Y45464*
X217238*
X219426D02*
X220363Y43589D01*
X217238Y63589D02*
Y67339D01*
X219426*
X220051Y67027*
X220363Y66402*
X220051Y65777*
X219426Y65464*
X217238*
X219426D02*
X220363Y63589D01*
X217238Y83668D02*
Y87418D01*
X219426*
X220051Y87106*
X220363Y86480*
X220051Y85856*
X219426Y85543*
X217238*
X219426D02*
X220363Y83668D01*
X227967Y17361D02*
X228279Y16736D01*
X228904Y16424*
X230154*
X230779Y16736*
X231092Y17361*
X230779Y17986*
X230154Y18299*
X228904*
X228279Y18611*
X227967Y19236*
X228279Y19861*
X228904Y20174*
X230154*
X230779Y19861*
X231092Y19236*
X227967Y170905D02*
X228279Y170280D01*
X228904Y169967*
X230154*
X230779Y170280*
X231092Y170905*
X230779Y171530*
X230154Y171842*
X228904*
X228279Y172155*
X227967Y172780*
X228279Y173405*
X228904Y173717*
X230154*
X230779Y173405*
X231092Y172780*
D02*
D18*
X11274Y10486D03*
Y162061D03*
X23478Y37455D03*
Y57455D03*
Y77533D03*
X43852Y150841D03*
X61667Y34896D03*
X63852Y108911D03*
Y128596D03*
Y150841D03*
X79935Y89226D03*
Y108124D03*
X81746Y34502D03*
X90171Y89226D03*
Y108124D03*
X103793Y64423D03*
X124659Y128675D03*
Y149856D03*
X125447Y64423D03*
X126687Y89226D03*
Y107730D03*
X133715Y89226D03*
Y108124D03*
X150644Y151431D03*
X151037Y97100D03*
X170329D03*
X170722Y151431D03*
X190722D03*
X207238Y37652D03*
Y57652D03*
Y77730D03*
X217967Y10486D03*
Y164030D03*
X0Y0D02*
M02*
