G04 DesignSpark PCB Gerber Version 9.0 Build 5138 *
G04 #@! TF.Part,Single*
G04 #@! TF.FileFunction,Legend,Top *
G04 #@! TF.FilePolarity,Positive *
%FSLAX35Y35*%
%MOIN*%
%ADD98C,0.00100*%
%ADD111C,0.00300*%
%ADD12C,0.00500*%
%ADD110C,0.00600*%
%ADD17C,0.00787*%
X0Y0D02*
D02*
D12*
X7730Y25959D02*
Y88951D01*
X14435Y31052D02*
X14748Y30740D01*
X15061Y30115*
Y29177*
X14748Y28552*
X14435Y28240*
X13811Y27927*
X12561*
X11935Y28240*
X11623Y28552*
X11311Y29177*
Y30115*
X11623Y30740*
X11935Y31052*
X13811Y32927D02*
X12561D01*
X11935Y33240*
X11623Y33552*
X11311Y34177*
Y34802*
X11623Y35427*
X11935Y35740*
X12561Y36052*
X13811*
X14435Y35740*
X14748Y35427*
X15061Y34802*
Y34177*
X14748Y33552*
X14435Y33240*
X13811Y32927*
X15061Y37927D02*
X11311D01*
X15061Y41052*
X11311*
X15061Y42927D02*
X11311D01*
X15061Y46052*
X11311*
X15061Y50427D02*
Y47927D01*
X12873Y50115*
X12248Y50427*
X11623Y50115*
X11311Y49490*
Y48552*
X11623Y47927*
X23478Y25959D02*
X7730D01*
X23478D02*
X39226D01*
X23478Y88951D02*
X39226D01*
X23478D02*
X7730D01*
X32041Y150841D02*
Y166589D01*
Y150841D02*
Y135093D01*
X39226Y88951D02*
Y25959D01*
X60511Y116876D02*
X60823Y117189D01*
X61448Y117502*
X62386*
X63011Y117189*
X63323Y116876*
X63636Y116252*
Y115002*
X63323Y114376*
X63011Y114064*
X62386Y113752*
X61448*
X60823Y114064*
X60511Y114376*
X58636Y117189D02*
X58011Y117502D01*
X57073*
X56448Y117189*
X56136Y116564*
Y116252*
X56448Y115626*
X57073Y115314*
X58636*
Y113752*
X56136*
X72979Y109139D02*
X67679D01*
Y121439*
X72979*
Y109139*
X70255Y141798D02*
X70567Y142110D01*
X71193Y142423*
X72130*
X72755Y142110*
X73067Y141798*
X73380Y141173*
Y139923*
X73067Y139298*
X72755Y138985*
X72130Y138673*
X71193*
X70567Y138985*
X70255Y139298*
X68380Y141173D02*
Y139923D01*
X68067Y139298*
X67755Y138985*
X67130Y138673*
X66505*
X65880Y138985*
X65567Y139298*
X65255Y139923*
Y141173*
X65567Y141798*
X65880Y142110*
X66505Y142423*
X67130*
X67755Y142110*
X68067Y141798*
X68380Y141173*
X63380Y142423D02*
Y138673D01*
X60255Y142423*
Y138673*
X58380Y142423D02*
Y138673D01*
X55255Y142423*
Y138673*
X51817Y142423D02*
Y138673D01*
X53380Y141173*
X50880*
X75348Y135093D02*
X32041D01*
X75348Y150841D02*
Y135093D01*
Y150841D02*
Y166589D01*
X32041*
X77034Y125107D02*
X77346Y124795D01*
X77659Y124170*
Y123232*
X77346Y122607*
X77034Y122295*
X76409Y121982*
X75159*
X74534Y122295*
X74221Y122607*
X73909Y123232*
Y124170*
X74221Y124795*
X74534Y125107*
X77659Y127607D02*
Y128857D01*
Y128232D02*
X73909D01*
X74534Y127607*
X79435Y132738D02*
Y138038D01*
X91735*
Y132738*
X79435*
X98037Y133131D02*
Y138431D01*
X110337*
Y133131*
X98037*
X108715Y124992D02*
Y127804D01*
X108402Y128429*
X107777Y128742*
X106527*
X105902Y128429*
X105589Y127804*
Y124992*
X103089Y128742D02*
X101839D01*
X102465D02*
Y124992D01*
X103089Y125617*
X108148Y116876D02*
X108461Y117189D01*
X109086Y117502*
X110024*
X110648Y117189*
X110961Y116876*
X111274Y116252*
Y115002*
X110961Y114376*
X110648Y114064*
X110024Y113752*
X109086*
X108461Y114064*
X108148Y114376*
X104711Y117502D02*
Y113752D01*
X106274Y116252*
X103774*
X114435Y143926D02*
X114748Y143614D01*
X115061Y142989*
Y142051*
X114748Y141426*
X114435Y141114*
X113811Y140801*
X112561*
X111935Y141114*
X111623Y141426*
X111311Y142051*
Y142989*
X111623Y143614*
X111935Y143926*
X115061Y148301D02*
Y145801D01*
X112873Y147989*
X112248Y148301*
X111623Y147989*
X111311Y147364*
Y146426*
X111623Y145801*
X119042Y109533D02*
X113742D01*
Y121833*
X119042*
Y109533*
X139226Y151431D02*
Y167179D01*
Y151431D02*
Y135683D01*
Y167179D02*
X202219D01*
X147888Y106665D02*
Y109477D01*
X147575Y110102*
X146950Y110415*
X145700*
X145075Y110102*
X144763Y109477*
Y106665*
X142575Y110102D02*
X141950Y110415D01*
X141325*
X140700Y110102*
X140388Y109477*
X140700Y108852*
X141325Y108540*
X141950*
X141325D02*
X140700Y108227D01*
X140388Y107602*
X140700Y106977*
X141325Y106665*
X141950*
X142575Y106977*
X151062Y124750D02*
X151374Y125063D01*
X152000Y125376*
X152937*
X153562Y125063*
X153874Y124750*
X154187Y124126*
Y122876*
X153874Y122250*
X153562Y121938*
X152937Y121626*
X152000*
X151374Y121938*
X151062Y122250*
X148874Y125063D02*
X148250Y125376D01*
X147624*
X147000Y125063*
X146687Y124438*
X147000Y123813*
X147624Y123500*
X148250*
X147624D02*
X147000Y123188D01*
X146687Y122563*
X147000Y121938*
X147624Y121626*
X148250*
X148874Y121938*
X161955Y109927D02*
X156655D01*
Y122227*
X161955*
Y109927*
X191490Y26156D02*
Y89148D01*
X193163Y107059D02*
Y109871D01*
X192851Y110496*
X192226Y110809*
X190976*
X190351Y110496*
X190038Y109871*
Y107059*
X185663Y110809D02*
X188163D01*
X185976Y108621*
X185663Y107996*
X185976Y107371*
X186601Y107059*
X187538*
X188163Y107371*
X198195Y31249D02*
X198508Y30937D01*
X198820Y30311*
Y29374*
X198508Y28749*
X198195Y28437*
X197570Y28124*
X196320*
X195695Y28437*
X195383Y28749*
X195070Y29374*
Y30311*
X195383Y30937*
X195695Y31249*
X197570Y33124D02*
X196320D01*
X195695Y33437*
X195383Y33749*
X195070Y34374*
Y34999*
X195383Y35624*
X195695Y35937*
X196320Y36249*
X197570*
X198195Y35937*
X198508Y35624*
X198820Y34999*
Y34374*
X198508Y33749*
X198195Y33437*
X197570Y33124*
X198820Y38124D02*
X195070D01*
X198820Y41249*
X195070*
X198820Y43124D02*
X195070D01*
X198820Y46249*
X195070*
X198508Y48437D02*
X198820Y49061D01*
Y49687*
X198508Y50311*
X197883Y50624*
X197258Y50311*
X196945Y49687*
Y49061*
Y49687D02*
X196633Y50311D01*
X196008Y50624*
X195383Y50311*
X195070Y49687*
Y49061*
X195383Y48437*
X197125Y142388D02*
X197437Y142701D01*
X198063Y143013*
X199000*
X199625Y142701*
X199937Y142388*
X200250Y141763*
Y140513*
X199937Y139888*
X199625Y139576*
X199000Y139263*
X198063*
X197437Y139576*
X197125Y139888*
X195250Y141763D02*
Y140513D01*
X194937Y139888*
X194625Y139576*
X194000Y139263*
X193375*
X192750Y139576*
X192437Y139888*
X192125Y140513*
Y141763*
X192437Y142388*
X192750Y142701*
X193375Y143013*
X194000*
X194625Y142701*
X194937Y142388*
X195250Y141763*
X190250Y143013D02*
Y139263D01*
X187125Y143013*
Y139263*
X185250Y143013D02*
Y139263D01*
X182125Y143013*
Y139263*
X179625Y143013D02*
X178375D01*
X179000D02*
Y139263D01*
X179625Y139888*
X202219Y135683D02*
X139226D01*
X202219Y151431D02*
Y135683D01*
Y151431D02*
Y167179D01*
X207238Y26156D02*
X191490D01*
X207238D02*
X222986D01*
X207238Y89148D02*
X222986D01*
X207238D02*
X191490D01*
X222986D02*
Y26156D01*
D02*
D17*
X85486Y140113D02*
Y163734D01*
X105171*
Y140113*
Y140112D02*
X85486D01*
D02*
D98*
X8321Y110880D02*
X8518Y110683D01*
X8715Y110289*
Y109699*
X8518Y109305*
X8321Y109108*
X7927Y108911*
X7140*
X6746Y109108*
X6549Y109305*
X6352Y109699*
Y110289*
X6549Y110683*
X6746Y110880*
X7140Y112061D02*
X8124D01*
X8518Y112258*
X8715Y112652*
Y113045*
X8518Y113439*
X8124Y113636*
X7140D02*
X8715D01*
Y115211D02*
X7140D01*
X7730D02*
X7337Y115407D01*
X7140Y115801*
Y116195*
X7337Y116589*
X8715Y118360D02*
X7140D01*
X7730D02*
X7337Y118557D01*
X7140Y118951*
Y119344*
X7337Y119738*
X8518Y123085D02*
X8715Y122888D01*
Y122494*
Y122100*
X8518Y121707*
X8124Y121510*
X7533*
X7337Y121707*
X7140Y122100*
Y122494*
X7337Y122888*
X7533Y123085*
X7730*
X7927Y122888*
X8124Y122494*
Y122100*
X7927Y121707*
X7730Y121510*
X8715Y124659D02*
X7140D01*
X7730D02*
X7337Y124856D01*
X7140Y125250*
Y125644*
X7337Y126037*
X7730Y126234*
X8715*
X7140Y128137D02*
Y129056D01*
X6746Y128596D02*
X8518D01*
X8715Y128793*
Y128990*
X8518Y129187*
X8715Y130959D02*
X6352D01*
X7533Y131943*
X6352Y132927*
X8715*
X8518Y135683D02*
X8715Y135486D01*
Y135093*
Y134699*
X8518Y134305*
X8124Y134108*
X7533*
X7337Y134305*
X7140Y134699*
Y135093*
X7337Y135486*
X7533Y135683*
X7730*
X7927Y135486*
X8124Y135093*
Y134699*
X7927Y134305*
X7730Y134108*
X7337Y137258D02*
X7140Y137652D01*
Y138242*
X7337Y138636*
X7730Y138833*
X8321*
X8518Y138636*
X8715Y138242*
Y137848*
X8518Y137455*
X8321Y137258*
X8124*
X7927Y137455*
X7730Y137848*
Y138242*
X7927Y138636*
X8124Y138833*
X8321D02*
X8715D01*
X8518Y140407D02*
X8715Y140801D01*
Y141589*
X8518Y141982*
X8124*
X7927Y141589*
Y140801*
X7730Y140407*
X7337*
X7140Y140801*
Y141589*
X7337Y141982*
X7140Y143557D02*
X8124D01*
X8518Y143754*
X8715Y144148*
Y144541*
X8518Y144935*
X8124Y145132*
X7140D02*
X8715D01*
Y146707D02*
X7140D01*
X7730D02*
X7337Y146904D01*
X7140Y147297*
Y147691*
X7337Y148085*
X8518Y151431D02*
X8715Y151234D01*
Y150841*
Y150447*
X8518Y150053*
X8124Y149856*
X7533*
X7337Y150053*
X7140Y150447*
Y150841*
X7337Y151234*
X7533Y151431*
X7730*
X7927Y151234*
X8124Y150841*
Y150447*
X7927Y150053*
X7730Y149856*
X15998Y108911D02*
X16392Y109108D01*
X16589Y109502*
Y110289*
X16392Y110683*
X15998Y110880*
X15604Y110683*
X15407Y110289*
Y109502*
X15211Y109108*
X14817Y108911*
X14423Y109108*
X14226Y109502*
Y110289*
X14423Y110683*
X14817Y110880*
X16589Y112061D02*
X15014D01*
X15211D02*
X15014Y112258D01*
Y112652*
X15211Y112848*
X15801*
X15211D02*
X15014Y113045D01*
Y113439*
X15211Y113636*
X16589*
X15211Y115211D02*
X15014Y115604D01*
Y116195*
X15211Y116589*
X15604Y116785*
X16195*
X16392Y116589*
X16589Y116195*
Y115801*
X16392Y115407*
X16195Y115211*
X15998*
X15801Y115407*
X15604Y115801*
Y116195*
X15801Y116589*
X15998Y116785*
X16195D02*
X16589D01*
Y118360D02*
X15014D01*
X15604D02*
X15211Y118557D01*
X15014Y118951*
Y119344*
X15211Y119738*
X15014Y121838D02*
Y122757D01*
X14620Y122297D02*
X16392D01*
X16589Y122494*
Y122691*
X16392Y122888*
X16195Y126628D02*
X16392Y126431D01*
X16589Y126037*
Y125447*
X16392Y125053*
X16195Y124856*
X15801Y124659*
X15014*
X14620Y124856*
X14423Y125053*
X14226Y125447*
Y126037*
X14423Y126431*
X14620Y126628*
X16589Y127809D02*
X14226D01*
X15604D02*
X15211Y128006D01*
X15014Y128400*
Y128793*
X15211Y129187*
X15604Y129384*
X16589*
X15211Y130959D02*
X15014Y131352D01*
Y131943*
X15211Y132337*
X15604Y132533*
X16195*
X16392Y132337*
X16589Y131943*
Y131549*
X16392Y131156*
X16195Y130959*
X15998*
X15801Y131156*
X15604Y131549*
Y131943*
X15801Y132337*
X15998Y132533*
X16195D02*
X16589D01*
Y134896D02*
X15014D01*
X14423D02*
X16589Y137258*
X15014D01*
X15604D02*
X15211Y137455D01*
X15014Y137848*
Y138242*
X15211Y138636*
X25053Y3081D02*
X25834Y4956D01*
X26616Y3081*
X25366Y3862D02*
X26303D01*
X28647D02*
X29116D01*
Y3706*
X28959Y3393*
X28803Y3237*
X28491Y3081*
X28178*
X27866Y3237*
X27709Y3393*
X27553Y3706*
Y4331*
X27709Y4643*
X27866Y4800*
X28178Y4956*
X28491*
X28803Y4800*
X28959Y4643*
X29116Y4331*
X30053Y3550D02*
X30209Y3237D01*
X30522Y3081*
X31147*
X31459Y3237*
X31616Y3550*
X31459Y3862*
X31147Y4019*
X30522*
X30209Y4175*
X30053Y4487*
X30209Y4800*
X30522Y4956*
X31147*
X31459Y4800*
X31616Y4487*
X28990Y129384D02*
X29384Y129187D01*
X29974*
X30368Y129384*
X30565Y129778*
Y129974*
X30368Y130368*
X29974Y130565*
X28990*
Y131549*
X30565*
X32140D02*
X33124Y129187D01*
X34108Y131549*
X35289Y129974D02*
X36864D01*
X36077Y129187D02*
Y130762D01*
X50644Y39030D02*
X50447Y38833D01*
X50053Y38636*
X49463*
X49069Y38833*
X48872Y39030*
X48675Y39423*
Y40211*
X48872Y40604*
X49069Y40801*
X49463Y40998*
X50053*
X50447Y40801*
X50644Y40604*
X50053Y59502D02*
X50447Y59305D01*
X50644Y58911*
X50447Y58518*
X50053Y58321*
X48675*
Y60683*
X50053*
X50447Y60486*
X50644Y60093*
X50447Y59699*
X50053Y59502*
X48675*
Y78006D02*
X49659Y80368D01*
X50644Y78006*
X49069Y78990D02*
X50250D01*
X77612Y165604D02*
X78203D01*
Y165407*
X78006Y165014*
X77809Y164817*
X77415Y164620*
X77022*
X76628Y164817*
X76431Y165014*
X76234Y165407*
Y166195*
X76431Y166589*
X76628Y166785*
X77022Y166982*
X77415*
X77809Y166785*
X78006Y166589*
X78203Y166195*
X79384Y164620D02*
Y166982D01*
X81352Y164620*
Y166982*
X82533Y164620D02*
Y166982D01*
X83715*
X84108Y166785*
X84305Y166589*
X84502Y166195*
Y165407*
X84305Y165014*
X84108Y164817*
X83715Y164620*
X82533*
X127415Y129778D02*
X127612Y129384D01*
X128006Y129187*
X128793*
X129187Y129384*
X129384Y129778*
X129187Y130171*
X128793Y130368*
X128006*
X127612Y130565*
X127415Y130959*
X127612Y131352*
X128006Y131549*
X128793*
X129187Y131352*
X129384Y130959*
X130565Y129187D02*
Y131549D01*
Y130171D02*
X130762Y130565D01*
X131156Y130762*
X131549*
X131943Y130565*
X132140Y130171*
Y129187*
X133715Y130762D02*
Y129778D01*
X133911Y129384*
X134305Y129187*
X134699*
X135093Y129384*
X135289Y129778*
Y130762D02*
Y129187D01*
X136864D02*
Y130762D01*
Y130171D02*
X137061Y130565D01*
X137455Y130762*
X137848*
X138242Y130565*
X138439Y130171*
Y129187*
X140342Y130762D02*
X141261D01*
X140801Y131156D02*
Y129384D01*
X140998Y129187*
X141195*
X141392Y129384*
X143163Y129187D02*
X145132D01*
X148281Y129581D02*
X148085Y129384D01*
X147691Y129187*
X147100*
X146707Y129384*
X146510Y129581*
X146313Y129974*
Y130762*
X146510Y131156*
X146707Y131352*
X147100Y131549*
X147691*
X148085Y131352*
X148281Y131156*
X158911Y129778D02*
X159108Y129384D01*
X159502Y129187*
X160289*
X160683Y129384*
X160880Y129778*
X160683Y130171*
X160289Y130368*
X159502*
X159108Y130565*
X158911Y130959*
X159108Y131352*
X159502Y131549*
X160289*
X160683Y131352*
X160880Y130959*
X162061Y129187D02*
Y131549D01*
Y130171D02*
X162258Y130565D01*
X162652Y130762*
X163045*
X163439Y130565*
X163636Y130171*
Y129187*
X165211Y130762D02*
Y129778D01*
X165407Y129384*
X165801Y129187*
X166195*
X166589Y129384*
X166785Y129778*
Y130762D02*
Y129187D01*
X168360D02*
Y130762D01*
Y130171D02*
X168557Y130565D01*
X168951Y130762*
X169344*
X169738Y130565*
X169935Y130171*
Y129187*
X171838Y130762D02*
X172757D01*
X172297Y131156D02*
Y129384D01*
X172494Y129187*
X172691*
X172888Y129384*
X174659Y129187D02*
X176628D01*
X179187Y130368D02*
X179581Y130171D01*
X179778Y129778*
X179581Y129384*
X179187Y129187*
X177809*
Y131549*
X179187*
X179581Y131352*
X179778Y130959*
X179581Y130565*
X179187Y130368*
X177809*
X184502Y35093D02*
X184305Y34896D01*
X183911Y34699*
X183321*
X182927Y34896*
X182730Y35093*
X182533Y35486*
Y36274*
X182730Y36667*
X182927Y36864*
X183321Y37061*
X183911*
X184305Y36864*
X184502Y36667*
X186077Y34699D02*
X186864D01*
X186470D02*
Y37061D01*
X186077Y36667*
X183911Y55565D02*
X184305Y55368D01*
X184502Y54974*
X184305Y54581*
X183911Y54384*
X182533*
Y56746*
X183911*
X184305Y56549*
X184502Y56156*
X184305Y55762*
X183911Y55565*
X182533*
X186077Y54384D02*
X186864D01*
X186470D02*
Y56746D01*
X186077Y56352*
X182533Y78006D02*
X183518Y80368D01*
X184502Y78006*
X182927Y78990D02*
X184108D01*
X186077Y78006D02*
X186864D01*
X186470D02*
Y80368D01*
X186077Y79974*
X190407Y129778D02*
X190604Y129384D01*
X190998Y129187*
X191785*
X192179Y129384*
X192376Y129778*
X192179Y130171*
X191785Y130368*
X190998*
X190604Y130565*
X190407Y130959*
X190604Y131352*
X190998Y131549*
X191785*
X192179Y131352*
X192376Y130959*
X193557Y129187D02*
Y131549D01*
Y130171D02*
X193754Y130565D01*
X194148Y130762*
X194541*
X194935Y130565*
X195132Y130171*
Y129187*
X196707Y130762D02*
Y129778D01*
X196904Y129384*
X197297Y129187*
X197691*
X198085Y129384*
X198281Y129778*
Y130762D02*
Y129187D01*
X199856D02*
Y130762D01*
Y130171D02*
X200053Y130565D01*
X200447Y130762*
X200841*
X201234Y130565*
X201431Y130171*
Y129187*
X203334Y130762D02*
X204253D01*
X203793Y131156D02*
Y129384D01*
X203990Y129187*
X204187*
X204384Y129384*
X206156Y129187D02*
X208124D01*
X209305D02*
X210289Y131549D01*
X211274Y129187*
X209699Y130171D02*
X210880D01*
X216982Y110880D02*
X217179Y110683D01*
X217376Y110289*
Y109699*
X217179Y109305*
X216982Y109108*
X216589Y108911*
X215801*
X215407Y109108*
X215211Y109305*
X215014Y109699*
Y110289*
X215211Y110683*
X215407Y110880*
X215801Y112061D02*
X216785D01*
X217179Y112258*
X217376Y112652*
Y113045*
X217179Y113439*
X216785Y113636*
X215801D02*
X217376D01*
Y115211D02*
X215801D01*
X216392D02*
X215998Y115407D01*
X215801Y115801*
Y116195*
X215998Y116589*
X217376Y118360D02*
X215801D01*
X216392D02*
X215998Y118557D01*
X215801Y118951*
Y119344*
X215998Y119738*
X217179Y123085D02*
X217376Y122888D01*
Y122494*
Y122100*
X217179Y121707*
X216785Y121510*
X216195*
X215998Y121707*
X215801Y122100*
Y122494*
X215998Y122888*
X216195Y123085*
X216392*
X216589Y122888*
X216785Y122494*
Y122100*
X216589Y121707*
X216392Y121510*
X217376Y124659D02*
X215801D01*
X216392D02*
X215998Y124856D01*
X215801Y125250*
Y125644*
X215998Y126037*
X216392Y126234*
X217376*
X215801Y128137D02*
Y129056D01*
X215407Y128596D02*
X217179D01*
X217376Y128793*
Y128990*
X217179Y129187*
X217376Y130959D02*
X215014D01*
X216195Y131943*
X215014Y132927*
X217376*
X217179Y135683D02*
X217376Y135486D01*
Y135093*
Y134699*
X217179Y134305*
X216785Y134108*
X216195*
X215998Y134305*
X215801Y134699*
Y135093*
X215998Y135486*
X216195Y135683*
X216392*
X216589Y135486*
X216785Y135093*
Y134699*
X216589Y134305*
X216392Y134108*
X215998Y137258D02*
X215801Y137652D01*
Y138242*
X215998Y138636*
X216392Y138833*
X216982*
X217179Y138636*
X217376Y138242*
Y137848*
X217179Y137455*
X216982Y137258*
X216785*
X216589Y137455*
X216392Y137848*
Y138242*
X216589Y138636*
X216785Y138833*
X216982D02*
X217376D01*
X217179Y140407D02*
X217376Y140801D01*
Y141589*
X217179Y141982*
X216785*
X216589Y141589*
Y140801*
X216392Y140407*
X215998*
X215801Y140801*
Y141589*
X215998Y141982*
X215801Y143557D02*
X216785D01*
X217179Y143754*
X217376Y144148*
Y144541*
X217179Y144935*
X216785Y145132*
X215801D02*
X217376D01*
Y146707D02*
X215801D01*
X216392D02*
X215998Y146904D01*
X215801Y147297*
Y147691*
X215998Y148085*
X217179Y151431D02*
X217376Y151234D01*
Y150841*
Y150447*
X217179Y150053*
X216785Y149856*
X216195*
X215998Y150053*
X215801Y150447*
Y150841*
X215998Y151234*
X216195Y151431*
X216392*
X216589Y151234*
X216785Y150841*
Y150447*
X216589Y150053*
X216392Y149856*
X224659Y108911D02*
X225053Y109108D01*
X225250Y109502*
Y110289*
X225053Y110683*
X224659Y110880*
X224266Y110683*
X224069Y110289*
Y109502*
X223872Y109108*
X223478Y108911*
X223085Y109108*
X222888Y109502*
Y110289*
X223085Y110683*
X223478Y110880*
X225250Y112061D02*
X223675D01*
X223872D02*
X223675Y112258D01*
Y112652*
X223872Y112848*
X224463*
X223872D02*
X223675Y113045D01*
Y113439*
X223872Y113636*
X225250*
X223872Y115211D02*
X223675Y115604D01*
Y116195*
X223872Y116589*
X224266Y116785*
X224856*
X225053Y116589*
X225250Y116195*
Y115801*
X225053Y115407*
X224856Y115211*
X224659*
X224463Y115407*
X224266Y115801*
Y116195*
X224463Y116589*
X224659Y116785*
X224856D02*
X225250D01*
Y118360D02*
X223675D01*
X224266D02*
X223872Y118557D01*
X223675Y118951*
Y119344*
X223872Y119738*
X223675Y121838D02*
Y122757D01*
X223281Y122297D02*
X225053D01*
X225250Y122494*
Y122691*
X225053Y122888*
X224856Y126628D02*
X225053Y126431D01*
X225250Y126037*
Y125447*
X225053Y125053*
X224856Y124856*
X224463Y124659*
X223675*
X223281Y124856*
X223085Y125053*
X222888Y125447*
Y126037*
X223085Y126431*
X223281Y126628*
X225250Y127809D02*
X222888D01*
X224266D02*
X223872Y128006D01*
X223675Y128400*
Y128793*
X223872Y129187*
X224266Y129384*
X225250*
X223872Y130959D02*
X223675Y131352D01*
Y131943*
X223872Y132337*
X224266Y132533*
X224856*
X225053Y132337*
X225250Y131943*
Y131549*
X225053Y131156*
X224856Y130959*
X224659*
X224463Y131156*
X224266Y131549*
Y131943*
X224463Y132337*
X224659Y132533*
X224856D02*
X225250D01*
Y134896D02*
X223675D01*
X223085D02*
X225250Y137258*
X223675D01*
X224266D02*
X223872Y137455D01*
X223675Y137848*
Y138242*
X223872Y138636*
D02*
D110*
X82846Y110368D02*
X87143D01*
X86194D02*
G75*
G03X83794I-1200D01*
G01*
X87143Y122002D02*
X82846D01*
X129598Y110368D02*
X133894D01*
X132946D02*
G75*
G03X130546I-1200D01*
G01*
X133894Y122002D02*
X129598D01*
X172511Y110368D02*
X176808D01*
X175859D02*
G75*
G03X173459I-1200D01*
G01*
X176808Y122002D02*
X172511D01*
D02*
D111*
X89482Y108791D02*
X86982D01*
X88857Y110041D02*
X87607Y107541D01*
X88857D02*
X87607Y110041D01*
X136234Y108791D02*
X133734D01*
X135609Y110041D02*
X134359Y107541D01*
X135609D02*
X134359Y110041D01*
X179148Y108791D02*
X176648D01*
X178522Y110041D02*
X177272Y107541D01*
X178522D02*
X177272Y110041D01*
X0Y0D02*
M02*
