G05
M48
METRIC,TZ
FMAT,2
T1C000.60000
T2C000.80000
T3C001.02000
T4C001.40000
T5C003.00000
%
T001
X12.46350Y61.46350
X13.86350Y83.06350
X20.86350Y74.86350
X21.56350Y46.56350
X21.56350Y50.96350
X22.86350Y33.26350
X23.06350Y104.96350
X23.06350Y108.06350
X23.86350Y37.66350
X23.86350Y41.16350
X25.56350Y30.09350
X26.36350Y36.66350
X26.36350Y45.56350
X27.86350Y34.86350
X27.86350Y46.66350
X28.96350Y32.46350
X30.83350Y35.86350
X30.83350Y46.66350
X34.06350Y79.96350
X34.16350Y77.96350
X35.06350Y112.16350
X35.36350Y97.56350
X37.16350Y112.26350
X37.46350Y71.66350
X37.66350Y97.56350
X38.06350Y81.16350
X38.06350Y92.36350
X38.76350Y94.26350
X39.46350Y112.06350
X39.86350Y79.96350
X42.96350Y103.36350
X44.36350Y110.46350
X46.96350Y81.16350
X47.16350Y70.76350
X48.16350Y62.06350
X49.69350Y44.56350
X50.46350Y50.16350
X51.56350Y51.96350
X51.56350Y65.56350
X51.56350Y71.06350
X52.06350Y43.36350
X52.26350Y92.56350
X52.36350Y86.66350
X52.36350Y89.26350
X55.46350Y49.26350
X55.46350Y59.96350
X55.66350Y51.96350
X57.36350Y92.56350
X59.86350Y49.26350
X59.96350Y88.96350
X63.76350Y80.96350
X63.86350Y92.86350
X64.76350Y98.66350
X65.16350Y106.66350
X65.16350Y111.76350
X65.46350Y27.26350
X66.86350Y58.66350
X67.06350Y85.46350
X67.56350Y110.46350
X67.96350Y68.16350
X68.56350Y52.46350
X68.66350Y75.56350
X68.86350Y104.36350
X69.46350Y59.96350
X69.46350Y65.26350
X69.76350Y58.66350
X70.56350Y108.96350
X71.06350Y49.66350
X71.36350Y79.80350
X71.66350Y43.66350
X72.16350Y107.76350
X72.76350Y66.56350
X73.26350Y75.76350
X74.16350Y46.26350
X74.36350Y49.66350
X75.26350Y66.56350
X76.26350Y48.76350
X76.26350Y50.66350
X76.26350Y53.66350
X76.26350Y57.26350
X77.96350Y79.46350
X77.96350Y88.56350
X78.46350Y55.46350
X78.56350Y50.56350
X78.76350Y100.36350
X79.56350Y95.76350
X81.06350Y80.86350
X81.06350Y84.16350
X82.06350Y58.36350
X82.76350Y87.06350
X82.76350Y93.56350
X85.26350Y50.26350
X85.26350Y53.96350
X86.06350Y59.16350
X86.66350Y76.06350
X86.76350Y52.46350
X89.16350Y54.56350
X89.96350Y107.76350
X90.26350Y41.06350
X90.26350Y44.96350
X91.36350Y108.96350
X93.26350Y70.56350
X95.86350Y70.56350
X95.86350Y76.86350
X95.96350Y73.06350
X95.96350Y74.96350
X96.86350Y58.16350
X96.96350Y78.76350
X96.96350Y81.96350
X97.76350Y53.86350
X97.76350Y93.36350
X98.06350Y94.76350
X98.26350Y86.56350
X98.56350Y83.36350
X98.76350Y56.46350
X99.66350Y90.26350
X105.66350Y90.56350
T002
X28.29350Y56.60350
X28.29350Y59.14350
X28.29350Y61.68350
X28.29350Y64.22350
X28.29350Y66.76350
X28.29350Y69.30350
X28.29350Y71.84350
X28.29350Y74.38350
X28.29350Y76.92350
X28.29350Y79.46350
X28.29350Y82.00350
X28.29350Y84.54350
X28.29350Y87.08350
X28.29350Y89.62350
X28.29350Y92.16350
X28.29350Y94.70350
X28.29350Y97.24350
X28.29350Y99.78350
X28.29350Y102.32350
X30.83350Y56.60350
X30.83350Y59.14350
X30.83350Y61.68350
X30.83350Y64.22350
X30.83350Y66.76350
X30.83350Y69.30350
X30.83350Y71.84350
X30.83350Y74.38350
X30.83350Y76.92350
X30.83350Y79.46350
X30.83350Y82.00350
X30.83350Y84.54350
X30.83350Y87.08350
X30.83350Y89.62350
X30.83350Y92.16350
X30.83350Y94.70350
X30.83350Y97.24350
X30.83350Y99.78350
X30.83350Y102.32350
X37.06350Y55.20350
X37.06350Y65.36350
X37.36350Y67.40350
X37.36350Y77.56350
X40.05850Y97.56850
X40.76350Y82.55350
X40.76350Y86.36350
X41.96350Y95.66350
X41.96350Y99.47350
X42.06350Y70.45350
X42.06350Y74.26350
X42.46350Y59.35350
X42.46350Y63.16350
X42.66850Y84.45850
X43.96850Y72.35850
X44.36850Y61.25850
X45.66350Y79.30350
X45.66350Y89.46350
X46.66350Y92.26350
X46.66350Y102.42350
X47.56350Y67.80350
X47.56350Y77.96350
X47.76350Y55.16350
X47.76350Y65.32350
X49.86350Y92.19850
X49.86350Y102.35850
X50.46350Y82.25350
X50.46350Y86.06350
X52.36850Y84.15850
X53.60350Y102.56350
X53.66350Y53.36350
X53.66350Y63.52350
X53.86350Y65.96350
X53.86350Y76.12350
X54.36350Y94.85350
X54.36350Y98.66350
X55.56350Y79.70350
X55.56350Y89.86350
X56.26850Y96.75850
X57.16350Y53.50350
X57.16350Y63.66350
X57.56350Y66.00350
X57.56350Y76.16350
X60.05850Y96.96850
X61.06350Y82.15350
X61.06350Y85.96350
X61.96350Y95.06350
X61.96350Y98.87350
X62.46350Y65.70350
X62.46350Y75.86350
X62.76350Y53.36350
X62.76350Y63.52350
X62.96850Y84.05850
X63.76350Y102.56350
X66.26350Y79.80350
X66.26350Y89.96350
X66.36350Y65.86350
X66.36350Y76.02350
X66.46350Y53.20350
X66.46350Y63.36350
X67.56350Y92.86350
X67.56350Y103.02350
X70.36350Y92.80350
X70.36350Y102.96350
X70.96350Y56.66350
X70.96350Y62.10350
X70.96350Y72.26350
X71.20350Y53.56350
X71.46350Y82.45350
X71.46350Y86.26350
X73.36850Y84.35850
X73.86350Y102.46350
X75.16350Y94.85350
X75.16350Y98.66350
X75.36350Y62.16350
X75.36350Y72.32350
X76.36350Y79.60350
X76.36350Y89.76350
X77.06850Y96.75850
X81.12350Y56.66350
X81.36350Y53.56350
X84.02350Y102.46350
X84.80350Y44.93350
X84.81350Y48.57350
X89.25350Y56.60350
X89.25350Y59.14350
X89.25350Y61.68350
X89.25350Y64.22350
X89.25350Y66.76350
X89.25350Y69.30350
X89.25350Y71.84350
X89.25350Y74.38350
X89.25350Y76.92350
X89.25350Y79.46350
X89.25350Y82.00350
X89.25350Y84.54350
X89.25350Y87.08350
X89.25350Y89.62350
X89.25350Y92.16350
X89.25350Y94.70350
X89.25350Y97.24350
X89.25350Y99.78350
X89.25350Y102.32350
X91.79350Y56.60350
X91.79350Y59.14350
X91.79350Y61.68350
X91.79350Y64.22350
X91.79350Y66.76350
X91.79350Y69.30350
X91.79350Y71.84350
X91.79350Y74.38350
X91.79350Y76.92350
X91.79350Y79.46350
X91.79350Y82.00350
X91.79350Y84.54350
X91.79350Y87.08350
X91.79350Y89.62350
X91.79350Y92.16350
X91.79350Y94.70350
X91.79350Y97.24350
X91.79350Y99.78350
X91.79350Y102.32350
X94.96350Y44.93350
X94.97350Y48.57350
X98.36350Y101.70350
X98.36350Y111.86350
X99.16350Y62.01350
X99.16350Y72.17350
X102.21350Y62.01350
X102.21350Y72.17350
X102.43350Y101.70350
X102.43350Y111.86350
T003
X18.61350Y17.05350
X18.61350Y19.59350
X26.11350Y17.03350
X26.11350Y19.57350
X33.56350Y17.11350
X33.56350Y19.65350
X80.76350Y70.92350
X80.76350Y73.46350
X80.86350Y61.62350
X80.86350Y64.16350
T004
X9.11350Y9.66350
X9.11350Y14.74350
X9.13350Y19.86350
X9.13350Y24.94350
X9.13350Y30.09350
X9.13350Y35.17350
X9.27350Y52.76350
X9.27350Y57.86350
X9.27350Y62.94350
X9.27350Y70.96350
X9.27350Y76.06350
X9.27350Y81.14350
X9.28350Y42.56350
X9.28350Y47.64350
X9.28350Y87.76350
X9.28350Y92.86350
X9.28350Y97.94350
X9.30350Y102.98350
X9.30350Y108.08350
X9.30350Y113.16350
X25.56350Y5.86350
X30.66350Y5.86350
X35.74350Y5.86350
X38.75350Y34.43350
X43.83350Y34.43350
X48.86350Y34.45350
X53.96350Y34.45350
X59.04350Y34.45350
X60.93350Y5.65350
X65.69350Y34.45350
X66.01350Y5.65350
X70.79350Y34.45350
X73.83350Y5.76350
X74.38350Y111.26350
X75.87350Y34.45350
X78.91350Y5.76350
X79.46350Y111.26350
X80.96350Y34.46350
X86.06350Y34.46350
X91.14350Y34.46350
X110.19350Y63.76350
X110.19350Y68.84350
X110.19350Y73.94350
X110.19350Y79.02350
X110.20350Y53.56350
X110.20350Y58.64350
X110.25350Y19.66350
X110.25350Y24.76350
X110.25350Y29.84350
X110.25350Y35.02350
X110.25350Y40.12350
X110.25350Y45.20350
X110.26350Y4.38350
X110.26350Y9.46350
X110.26350Y14.56350
X110.26350Y87.76350
X110.26350Y92.84350
X110.27350Y97.96350
X110.27350Y103.04350
X110.27350Y108.20350
X110.27350Y113.28350
T005
X2.86350Y2.66350
X2.86350Y116.96350
X49.16350Y3.26350
X116.46350Y117.06350
X116.86350Y2.16350
M30
