G04 DesignSpark PCB Gerber Version 9.0 Build 5138 *
G04 #@! TF.Part,Single*
G04 #@! TF.FileFunction,Legend,Bot *
G04 #@! TF.FilePolarity,Positive *
%FSLAX35Y35*%
%MOIN*%
%ADD10C,0.01181*%
X0Y0D02*
D02*
D10*
X36864Y15137D02*
X35019Y19566D01*
X33173Y15137*
X36126Y16982D02*
X33911D01*
X28375D02*
X27268D01*
Y16613*
X27637Y15875*
X28006Y15506*
X28744Y15137*
X29482*
X30220Y15506*
X30589Y15875*
X30959Y16613*
Y18090*
X30589Y18828*
X30220Y19197*
X29482Y19566*
X28744*
X28006Y19197*
X27637Y18828*
X27268Y18090*
X25053Y16244D02*
X24684Y15506D01*
X23946Y15137*
X22469*
X21731Y15506*
X21362Y16244*
X21731Y16982*
X22469Y17352*
X23946*
X24684Y17720*
X25053Y18459*
X24684Y19197*
X23946Y19566*
X22469*
X21731Y19197*
X21362Y18459*
X59724Y20722D02*
X55294D01*
Y24413*
X57878Y26628D02*
X58247Y27366D01*
Y28474*
X57878Y29212*
X57140Y29581*
X56033*
X55663Y29212*
X55294Y28474*
Y27735*
X55663Y26997*
X56033Y26628*
X56402*
X56771Y26997*
X57140Y27735*
Y28474*
X56771Y29212*
X56402Y29581*
X56033D02*
X55294D01*
X55663Y32533D02*
X55294Y33272D01*
Y34748*
X55663Y35486*
X56402*
X56771Y34748*
Y33272*
X57140Y32533*
X57878*
X58247Y33272*
Y34748*
X57878Y35486*
X55663Y41392D02*
X55294Y41023D01*
Y40285*
Y39546*
X55663Y38808*
X56402Y38439*
X57509*
X57878Y38808*
X58247Y39546*
Y40285*
X57878Y41023*
X57509Y41392*
X57140*
X56771Y41023*
X56402Y40285*
Y39546*
X56771Y38808*
X57140Y38439*
X55294Y44344D02*
X58247D01*
X57140D02*
X57878Y44714D01*
X58247Y45452*
Y46190*
X57878Y46928*
X55294Y50988D02*
Y52465D01*
Y51726D02*
X59724D01*
X58985Y50988*
X82952Y8124D02*
X78523Y9970D01*
X82952Y11815*
X81106Y16982D02*
X81476Y16244D01*
Y15137*
X81106Y14399*
X80368Y14030*
X79630*
X78892Y14399*
X78523Y15137*
Y16244*
X78892Y16982*
X81106Y22888D02*
X81476Y22150D01*
Y21043*
X81106Y20304*
X80368Y19935*
X79630*
X78892Y20304*
X78523Y21043*
Y22150*
X78892Y22888*
X79261Y29531D02*
X78892Y29163D01*
X78523Y28424*
Y27317*
X78892Y26579*
X79261Y26210*
X79999Y25841*
X81476*
X82214Y26210*
X82583Y26579*
X82952Y27317*
Y28424*
X82583Y29163*
X82214Y29531*
X79630Y31746D02*
X78892Y32115D01*
X78523Y32854*
Y33592*
X78892Y34330*
X79630Y34699*
X80368*
X81106Y34330*
X81476Y33592*
Y32854*
X81106Y32115*
X80368Y31746*
X79630*
X78523Y37652D02*
X81476D01*
X80368D02*
X81106Y38021D01*
X81476Y38759*
Y39497*
X81106Y40235*
X80368Y40604*
X78523*
X81476Y44172D02*
Y45895D01*
X82214Y45033D02*
X78892D01*
X78523Y45403*
Y45772*
X78892Y46141*
X82952Y49463D02*
X78523D01*
Y53154*
X81746Y59724D02*
Y55294D01*
X78055*
X75841Y57878D02*
X75102Y58247D01*
X73995*
X73257Y57878*
X72888Y57140*
Y56033*
X73257Y55663*
X73995Y55294*
X74733*
X75471Y55663*
X75841Y56033*
Y56402*
X75471Y56771*
X74733Y57140*
X73995*
X73257Y56771*
X72888Y56402*
Y56033D02*
Y55294D01*
X69935Y55663D02*
X69197Y55294D01*
X67720*
X66982Y55663*
Y56402*
X67720Y56771*
X69197*
X69935Y57140*
Y57878*
X69197Y58247*
X67720*
X66982Y57878*
X61077Y55663D02*
X61446Y55294D01*
X62184*
X62922*
X63660Y55663*
X64030Y56402*
Y57509*
X63660Y57878*
X62922Y58247*
X62184*
X61446Y57878*
X61077Y57509*
Y57140*
X61446Y56771*
X62184Y56402*
X62922*
X63660Y56771*
X64030Y57140*
X58124Y55294D02*
Y58247D01*
Y57140D02*
X57755Y57878D01*
X57017Y58247*
X56278*
X55540Y57878*
X49266Y55294D02*
X52219D01*
X49635Y57878*
X49266Y58616*
X49635Y59354*
X50373Y59724*
X51480*
X52219Y59354*
X80294Y276948D02*
Y281377D01*
X82140D02*
X78449D01*
X76234Y276948D02*
Y279901D01*
Y278793D02*
X75865Y279531D01*
X75127Y279901*
X74389*
X73650Y279531*
X67376Y278793D02*
X67745Y279531D01*
X68483Y279901*
X69221*
X69959Y279531*
X70329Y278793*
Y278424*
X69959Y277686*
X69221Y277317*
X68483*
X67745Y277686*
X67376Y278424*
Y279901D02*
Y276948D01*
X67745Y276210*
X68483Y275841*
X69591*
X70329Y276210*
X82533Y87283D02*
Y82854D01*
X78843*
X76628Y85437D02*
X75890Y85806D01*
X74782*
X74044Y85437*
X73675Y84699*
Y83592*
X74044Y83222*
X74782Y82854*
X75520*
X76259Y83222*
X76628Y83592*
Y83961*
X76259Y84330*
X75520Y84699*
X74782*
X74044Y84330*
X73675Y83961*
Y83592D02*
Y82854D01*
X70722Y83222D02*
X69984Y82854D01*
X68508*
X67770Y83222*
Y83961*
X68508Y84330*
X69984*
X70722Y84699*
Y85437*
X69984Y85806*
X68508*
X67770Y85437*
X61864Y83222D02*
X62233Y82854D01*
X62971*
X63709*
X64448Y83222*
X64817Y83961*
Y85068*
X64448Y85437*
X63709Y85806*
X62971*
X62233Y85437*
X61864Y85068*
Y84699*
X62233Y84330*
X62971Y83961*
X63709*
X64448Y84330*
X64817Y84699*
X58911Y82854D02*
Y85806D01*
Y84699D02*
X58542Y85437D01*
X57804Y85806*
X57066*
X56328Y85437*
X52637Y83222D02*
X51898Y82854D01*
X51160*
X50422Y83222*
X50053Y83961*
X50422Y84699*
X51160Y85068*
X51898*
X51160D02*
X50422Y85437D01*
X50053Y86175*
X50422Y86913*
X51160Y87283*
X51898*
X52637Y86913*
X82533Y165063D02*
X82164Y164325D01*
X81426Y163956*
X79950*
X79211Y164325*
X78843Y165063*
X79211Y165801*
X79950Y166170*
X81426*
X82164Y166539*
X82533Y167278*
X82164Y168016*
X81426Y168385*
X79950*
X79211Y168016*
X78843Y167278*
X76628Y168385D02*
X76259Y163956D01*
X74782Y166170*
X73306Y163956*
X72937Y168385*
X70722Y165432D02*
X67770D01*
X64817Y168385D02*
Y165063D01*
X64448Y164325*
X63709Y163956*
X62233*
X61495Y164325*
X61126Y165063*
Y168385*
X58911Y164325D02*
X58173Y163956D01*
X56697*
X55959Y164325*
Y165063*
X56697Y165432*
X58173*
X58911Y165801*
Y166539*
X58173Y166909*
X56697*
X55959Y166539*
X82927Y185142D02*
X82558Y184404D01*
X81820Y184035*
X80343*
X79605Y184404*
X79236Y185142*
X79605Y185880*
X80343Y186249*
X81820*
X82558Y186618*
X82927Y187356*
X82558Y188094*
X81820Y188464*
X80343*
X79605Y188094*
X79236Y187356*
X77022Y186987D02*
Y184404D01*
X76652Y184035*
X75914*
X75545Y184404*
Y185511*
Y184404D02*
X75176Y184035D01*
X74438*
X74069Y184404*
Y186987*
X71116Y185511D02*
X68163D01*
X65211Y184035D02*
Y188464D01*
X61520*
X62258Y186249D02*
X65211D01*
Y184035D02*
X61520D01*
X59305D02*
X56352Y186987D01*
Y184035D02*
X59305Y186987D01*
X52784D02*
X51062D01*
X51923Y187726D02*
Y184404D01*
X51554Y184035*
X51185*
X50816Y184404*
X80737Y298872D02*
X79630D01*
Y298503*
X79999Y297765*
X80368Y297396*
X81106Y297027*
X81844*
X82583Y297396*
X82952Y297765*
X83321Y298503*
Y299980*
X82952Y300718*
X82583Y301087*
X81844Y301456*
X81106*
X80368Y301087*
X79999Y300718*
X79630Y299980*
X77415Y297027D02*
Y299980D01*
Y298872D02*
X77046Y299610D01*
X76308Y299980*
X75570*
X74831Y299610*
X74463Y298872*
Y297027*
X68557Y298872D02*
X68926Y299610D01*
X69664Y299980*
X70402*
X71141Y299610*
X71510Y298872*
Y298134*
X71141Y297396*
X70402Y297027*
X69664*
X68926Y297396*
X68557Y298134*
Y297027D02*
Y301456D01*
X84108Y339153D02*
Y343582D01*
X80417*
X81156Y341367D02*
X84108D01*
Y339153D02*
X80417D01*
X74512Y339891D02*
X74881Y339522D01*
X75619Y339153*
X76726*
X77465Y339522*
X77833Y339891*
X78203Y340629*
Y342106*
X77833Y342844*
X77465Y343213*
X76726Y343582*
X75619*
X74881Y343213*
X74512Y342844*
X72297Y339153D02*
Y343582D01*
Y341367D02*
X68606D01*
Y339153D02*
Y343582D01*
X66392Y340629D02*
Y342106D01*
X66022Y342844*
X65654Y343213*
X64915Y343582*
X64177*
X63439Y343213*
X63070Y342844*
X62701Y342106*
Y340629*
X63070Y339891*
X63439Y339522*
X64177Y339153*
X64915*
X65654Y339522*
X66022Y339891*
X66392Y340629*
X58641Y339153D02*
Y343582D01*
X60486Y340629*
X57533*
X84108Y402145D02*
Y406574D01*
X80417*
X81156Y404359D02*
X84108D01*
Y402145D02*
X80417D01*
X74512Y402883D02*
X74881Y402514D01*
X75619Y402145*
X76726*
X77465Y402514*
X77833Y402883*
X78203Y403621*
Y405098*
X77833Y405836*
X77465Y406205*
X76726Y406574*
X75619*
X74881Y406205*
X74512Y405836*
X72297Y402145D02*
Y406574D01*
Y404359D02*
X68606D01*
Y402145D02*
Y406574D01*
X66392Y403621D02*
Y405098D01*
X66022Y405836*
X65654Y406205*
X64915Y406574*
X64177*
X63439Y406205*
X63070Y405836*
X62701Y405098*
Y403621*
X63070Y402883*
X63439Y402514*
X64177Y402145*
X64915*
X65654Y402514*
X66022Y402883*
X66392Y403621*
X60117Y402514D02*
X59379Y402145D01*
X58641*
X57902Y402514*
X57533Y403252*
X57902Y403990*
X58641Y404359*
X59379*
X58641D02*
X57902Y404728D01*
X57533Y405467*
X57902Y406205*
X58641Y406574*
X59379*
X60117Y406205*
X84108Y423798D02*
Y428228D01*
X80417*
X81156Y426013D02*
X84108D01*
Y423798D02*
X80417D01*
X74512Y424537D02*
X74881Y424167D01*
X75619Y423798*
X76726*
X77465Y424167*
X77833Y424537*
X78203Y425275*
Y426751*
X77833Y427489*
X77465Y427858*
X76726Y428228*
X75619*
X74881Y427858*
X74512Y427489*
X72297Y423798D02*
Y428228D01*
Y426013D02*
X68606D01*
Y423798D02*
Y428228D01*
X66392Y425275D02*
Y426751D01*
X66022Y427489*
X65654Y427858*
X64915Y428228*
X64177*
X63439Y427858*
X63070Y427489*
X62701Y426751*
Y425275*
X63070Y424537*
X63439Y424167*
X64177Y423798*
X64915*
X65654Y424167*
X66022Y424537*
X66392Y425275*
X57533Y423798D02*
X60486D01*
X57902Y426382*
X57533Y427120*
X57902Y427858*
X58641Y428228*
X59748*
X60486Y427858*
X84502Y213267D02*
Y208838D01*
X80811*
X75644Y209207D02*
X76013Y208838D01*
X76751*
X77489*
X78227Y209207*
X78596Y209945*
Y211052*
X78227Y211421*
X77489Y211791*
X76751*
X76013Y211421*
X75644Y211052*
Y210683*
X76013Y210314*
X76751Y209945*
X77489*
X78227Y210314*
X78596Y210683*
X69738D02*
X70107Y211421D01*
X70845Y211791*
X71583*
X72322Y211421*
X72691Y210683*
Y209945*
X72322Y209207*
X71583Y208838*
X70845*
X70107Y209207*
X69738Y209945*
Y208838D02*
Y213267D01*
X66785Y208838D02*
X63094D01*
X57927D02*
X60880D01*
X58296Y211421*
X57927Y212159*
X58296Y212898*
X59034Y213267*
X60142*
X60880Y212898*
X84502Y252243D02*
X82656Y247814D01*
X80811Y252243*
X75644Y250398D02*
X76382Y250767D01*
X77489*
X78227Y250398*
X78596Y249659*
Y248921*
X78227Y248183*
X77489Y247814*
X76382*
X75644Y248183*
X69738Y250398D02*
X70476Y250767D01*
X71583*
X72322Y250398*
X72691Y249659*
Y248921*
X72322Y248183*
X71583Y247814*
X70476*
X69738Y248183*
X84502Y321141D02*
X82656Y316712D01*
X80811Y321141*
X75644Y319295D02*
X76382Y319665D01*
X77489*
X78227Y319295*
X78596Y318557*
Y317819*
X78227Y317081*
X77489Y316712*
X76382*
X75644Y317081*
X69738Y319295D02*
X70476Y319665D01*
X71583*
X72322Y319295*
X72691Y318557*
Y317819*
X72322Y317081*
X71583Y316712*
X70476*
X69738Y317081*
X84502Y358838D02*
Y363267D01*
X80811*
X81549Y361052D02*
X84502D01*
Y358838D02*
X80811D01*
X74906Y359576D02*
X75274Y359207D01*
X76013Y358838*
X77120*
X77858Y359207*
X78227Y359576*
X78596Y360314*
Y361791*
X78227Y362529*
X77858Y362898*
X77120Y363267*
X76013*
X75274Y362898*
X74906Y362529*
X72691Y358838D02*
Y363267D01*
Y361052D02*
X69000D01*
Y358838D02*
Y363267D01*
X66785Y360314D02*
Y361791D01*
X66416Y362529*
X66047Y362898*
X65309Y363267*
X64571*
X63833Y362898*
X63463Y362529*
X63094Y361791*
Y360314*
X63463Y359576*
X63833Y359207*
X64571Y358838*
X65309*
X66047Y359207*
X66416Y359576*
X66785Y360314*
X60880Y359207D02*
X60142Y358838D01*
X59034*
X58296Y359207*
X57927Y359945*
Y360314*
X58296Y361052*
X59034Y361421*
X60880*
Y363267*
X57927*
X84502Y379704D02*
Y384133D01*
X80811*
X81549Y381919D02*
X84502D01*
Y379704D02*
X80811D01*
X74906Y380442D02*
X75274Y380073D01*
X76013Y379704*
X77120*
X77858Y380073*
X78227Y380442*
X78596Y381180*
Y382657*
X78227Y383395*
X77858Y383764*
X77120Y384133*
X76013*
X75274Y383764*
X74906Y383395*
X72691Y379704D02*
Y384133D01*
Y381919D02*
X69000D01*
Y379704D02*
Y384133D01*
X66785Y381180D02*
Y382657D01*
X66416Y383395*
X66047Y383764*
X65309Y384133*
X64571*
X63833Y383764*
X63463Y383395*
X63094Y382657*
Y381180*
X63463Y380442*
X63833Y380073*
X64571Y379704*
X65309*
X66047Y380073*
X66416Y380442*
X66785Y381180*
X60880Y380811D02*
X60511Y381549D01*
X59772Y381919*
X59034*
X58296Y381549*
X57927Y380811*
X58296Y380073*
X59034Y379704*
X59772*
X60511Y380073*
X60880Y380811*
Y381919*
X60511Y383026*
X59772Y383764*
X59034Y384133*
X84896Y231377D02*
Y226948D01*
X81205*
X76037Y227317D02*
X76406Y226948D01*
X77144*
X77883*
X78621Y227317*
X78990Y228055*
Y229163*
X78621Y229531*
X77883Y229901*
X77144*
X76406Y229531*
X76037Y229163*
Y228793*
X76406Y228424*
X77144Y228055*
X77883*
X78621Y228424*
X78990Y228793*
X70132D02*
X70501Y229531D01*
X71239Y229901*
X71977*
X72715Y229531*
X73085Y228793*
Y228055*
X72715Y227317*
X71977Y226948*
X71239*
X70501Y227317*
X70132Y228055*
Y226948D02*
Y231377D01*
X67179Y226948D02*
X63488D01*
X60535D02*
X59059D01*
X59797D02*
Y231377D01*
X60535Y230639*
X85289Y448208D02*
Y452637D01*
X81598*
X82337Y450422D02*
X85289D01*
Y448208D02*
X81598D01*
X75693Y448946D02*
X76062Y448577D01*
X76800Y448208*
X77907*
X78646Y448577*
X79015Y448946*
X79384Y449684*
Y451161*
X79015Y451899*
X78646Y452268*
X77907Y452637*
X76800*
X76062Y452268*
X75693Y451899*
X73478Y448208D02*
Y452637D01*
Y450422D02*
X69787D01*
Y448208D02*
Y452637D01*
X67573Y449684D02*
Y451161D01*
X67204Y451899*
X66835Y452268*
X66096Y452637*
X65358*
X64620Y452268*
X64251Y451899*
X63882Y451161*
Y449684*
X64251Y448946*
X64620Y448577*
X65358Y448208*
X66096*
X66835Y448577*
X67204Y448946*
X67573Y449684*
X60929Y448208D02*
X59453D01*
X60191D02*
Y452637D01*
X60929Y451899*
X85683Y101062D02*
Y96633D01*
X81992*
X79778Y99217D02*
X79039Y99586D01*
X77932*
X77194Y99217*
X76825Y98478*
Y97371*
X77194Y97002*
X77932Y96633*
X78670*
X79408Y97002*
X79778Y97371*
Y97740*
X79408Y98109*
X78670Y98478*
X77932*
X77194Y98109*
X76825Y97740*
Y97371D02*
Y96633D01*
X73872Y97002D02*
X73134Y96633D01*
X71657*
X70919Y97002*
Y97740*
X71657Y98109*
X73134*
X73872Y98478*
Y99217*
X73134Y99586*
X71657*
X70919Y99217*
X65014Y97002D02*
X65383Y96633D01*
X66121*
X66859*
X67597Y97002*
X67967Y97740*
Y98848*
X67597Y99217*
X66859Y99586*
X66121*
X65383Y99217*
X65014Y98848*
Y98478*
X65383Y98109*
X66121Y97740*
X66859*
X67597Y98109*
X67967Y98478*
X62061Y96633D02*
Y99586D01*
Y98478D02*
X61692Y99217D01*
X60954Y99586*
X60215*
X59477Y99217*
X54310Y96633D02*
Y101062D01*
X56156Y98109*
X53203*
X89620Y119566D02*
Y115137D01*
X85929*
X83715Y117720D02*
X82976Y118090D01*
X81869*
X81131Y117720*
X80762Y116982*
Y115875*
X81131Y115506*
X81869Y115137*
X82607*
X83345Y115506*
X83715Y115875*
Y116244*
X83345Y116613*
X82607Y116982*
X81869*
X81131Y116613*
X80762Y116244*
Y115875D02*
Y115137D01*
X77809Y115506D02*
X77071Y115137D01*
X75594*
X74856Y115506*
Y116244*
X75594Y116613*
X77071*
X77809Y116982*
Y117720*
X77071Y118090*
X75594*
X74856Y117720*
X68951Y115506D02*
X69320Y115137D01*
X70058*
X70796*
X71534Y115506*
X71904Y116244*
Y117352*
X71534Y117720*
X70796Y118090*
X70058*
X69320Y117720*
X68951Y117352*
Y116982*
X69320Y116613*
X70058Y116244*
X70796*
X71534Y116613*
X71904Y116982*
X65998Y115137D02*
Y118090D01*
Y116982D02*
X65629Y117720D01*
X64891Y118090*
X64152*
X63414Y117720*
X60093Y115506D02*
X59354Y115137D01*
X58247*
X57509Y115506*
X57140Y116244*
Y116613*
X57509Y117352*
X58247Y117720*
X60093*
Y119566*
X57140*
X104581Y140826D02*
Y136397D01*
X100890*
X98675Y138980D02*
X97937Y139350D01*
X96830*
X96091Y138980*
X95722Y138242*
Y137135*
X96091Y136766*
X96830Y136397*
X97568*
X98306Y136766*
X98675Y137135*
Y137504*
X98306Y137873*
X97568Y138242*
X96830*
X96091Y137873*
X95722Y137504*
Y137135D02*
Y136397D01*
X92770Y136766D02*
X92031Y136397D01*
X90555*
X89817Y136766*
Y137504*
X90555Y137873*
X92031*
X92770Y138242*
Y138980*
X92031Y139350*
X90555*
X89817Y138980*
X83911Y136766D02*
X84280Y136397D01*
X85019*
X85757*
X86495Y136766*
X86864Y137504*
Y138611*
X86495Y138980*
X85757Y139350*
X85019*
X84280Y138980*
X83911Y138611*
Y138242*
X84280Y137873*
X85019Y137504*
X85757*
X86495Y137873*
X86864Y138242*
X80959Y136397D02*
Y139350D01*
Y138242D02*
X80589Y138980D01*
X79851Y139350*
X79113*
X78375Y138980*
X73946Y136397D02*
X72469D01*
X73207D02*
Y140826D01*
X73946D02*
X72469D01*
X69148Y136397D02*
Y139350D01*
Y138242D02*
X68778Y138980D01*
X68040Y139350*
X67302*
X66564Y138980*
X66195Y138242*
Y136397*
X62627Y139350D02*
X60904D01*
X61766Y140088D02*
Y136766D01*
X61396Y136397*
X61028*
X60658Y136766*
X111667Y43582D02*
X109822Y39153D01*
X107976Y43582*
X102809Y41736D02*
X103547Y42106D01*
X104654*
X105393Y41736*
X105762Y40998*
Y40260*
X105393Y39522*
X104654Y39153*
X103547*
X102809Y39522*
X96904Y41736D02*
X97642Y42106D01*
X98749*
X99487Y41736*
X99856Y40998*
Y40260*
X99487Y39522*
X98749Y39153*
X97642*
X96904Y39522*
X90260Y39891D02*
X90629Y39522D01*
X91367Y39153*
X92474*
X93213Y39522*
X93581Y39891*
X93951Y40629*
Y42106*
X93581Y42844*
X93213Y43213*
X92474Y43582*
X91367*
X90629Y43213*
X90260Y42844*
X88045Y40260D02*
X87676Y39522D01*
X86938Y39153*
X86200*
X85461Y39522*
X85093Y40260*
Y40998*
X85461Y41736*
X86200Y42106*
X86938*
X87676Y41736*
X88045Y40998*
Y40260*
X82140Y39153D02*
Y42106D01*
Y40998D02*
X81770Y41736D01*
X81032Y42106*
X80294*
X79556Y41736*
X79187Y40998*
Y39153*
X75619Y42106D02*
X73896D01*
X74758Y42844D02*
Y39522D01*
X74389Y39153*
X74020*
X73650Y39522*
X70329Y39153D02*
Y43582D01*
X67745*
X67007Y43213*
X66638Y42474*
X67007Y41736*
X67745Y41367*
X70329*
X67745D02*
X66638Y39153D01*
X127809Y94763D02*
X125963Y90334D01*
X124118Y94763*
X118951Y92917D02*
X119689Y93287D01*
X120796*
X121534Y92917*
X121904Y92179*
Y91441*
X121534Y90703*
X120796Y90334*
X119689*
X118951Y90703*
X113045Y92917D02*
X113783Y93287D01*
X114891*
X115629Y92917*
X115998Y92179*
Y91441*
X115629Y90703*
X114891Y90334*
X113783*
X113045Y90703*
X106402Y91072D02*
X106770Y90703D01*
X107509Y90334*
X108616*
X109354Y90703*
X109723Y91072*
X110093Y91810*
Y93287*
X109723Y94025*
X109354Y94394*
X108616Y94763*
X107509*
X106770Y94394*
X106402Y94025*
X104187Y91441D02*
X103818Y90703D01*
X103080Y90334*
X102341*
X101603Y90703*
X101234Y91441*
Y92179*
X101603Y92917*
X102341Y93287*
X103080*
X103818Y92917*
X104187Y92179*
Y91441*
X98281Y90334D02*
Y93287D01*
Y92179D02*
X97912Y92917D01*
X97174Y93287*
X96436*
X95698Y92917*
X95329Y92179*
Y90334*
X91761Y93287D02*
X90038D01*
X90900Y94025D02*
Y90703D01*
X90530Y90334*
X90161*
X89792Y90703*
X86470Y90334D02*
Y94763D01*
X83887*
X83148Y94394*
X82780Y93656*
X83148Y92917*
X83887Y92548*
X86470*
X83887D02*
X82780Y90334D01*
X153867Y109625D02*
X152391D01*
X153129D02*
Y114054D01*
X153867D02*
X152391D01*
X146116Y109625D02*
X149069D01*
X146485Y112209*
X146116Y112947*
X146485Y113685*
X147223Y114054*
X148331*
X149069Y113685*
X139472Y110363D02*
X139841Y109994D01*
X140580Y109625*
X141687*
X142425Y109994*
X142794Y110363*
X143163Y111102*
Y112578*
X142794Y113316*
X142425Y113685*
X141687Y114054*
X140580*
X139841Y113685*
X139472Y113316*
X137258Y109994D02*
X136520Y109625D01*
X135043*
X134305Y109994*
Y110732*
X135043Y111102*
X136520*
X137258Y111470*
Y112209*
X136520Y112578*
X135043*
X134305Y112209*
X128400Y111470D02*
X128769Y112209D01*
X129507Y112578*
X130245*
X130983Y112209*
X131352Y111470*
Y110732*
X130983Y109994*
X130245Y109625*
X129507*
X128769Y109994*
X128400Y110732*
Y109625D02*
Y114054D01*
X125447Y112209D02*
X124709Y112578D01*
X123601*
X122863Y112209*
X122494Y111470*
Y110363*
X122863Y109994*
X123601Y109625*
X124339*
X125078Y109994*
X125447Y110363*
Y110732*
X125078Y111102*
X124339Y111470*
X123601*
X122863Y111102*
X122494Y110732*
Y110363D02*
Y109625D01*
X156943Y37676D02*
X155097Y33247D01*
X153252Y37676*
X148085Y35831D02*
X148823Y36200D01*
X149930*
X150668Y35831*
X151037Y35093*
Y34354*
X150668Y33616*
X149930Y33247*
X148823*
X148085Y33616*
X142179Y35831D02*
X142917Y36200D01*
X144024*
X144763Y35831*
X145132Y35093*
Y34354*
X144763Y33616*
X144024Y33247*
X142917*
X142179Y33616*
X139226Y33247D02*
Y37676D01*
X135535*
X136274Y35462D02*
X139226D01*
Y33247D02*
X135535D01*
X133321D02*
X130368Y36200D01*
Y33247D02*
X133321Y36200D01*
X126800D02*
X125078D01*
X125939Y36938D02*
Y33616D01*
X125570Y33247*
X125201*
X124831Y33616*
X174266Y95157D02*
X172420Y90728D01*
X170575Y95157*
X165407Y93311D02*
X166146Y93680D01*
X167253*
X167991Y93311*
X168360Y92573*
Y91835*
X167991Y91096*
X167253Y90728*
X166146*
X165407Y91096*
X159502Y93311D02*
X160240Y93680D01*
X161347*
X162085Y93311*
X162455Y92573*
Y91835*
X162085Y91096*
X161347Y90728*
X160240*
X159502Y91096*
X152858Y91466D02*
X153227Y91096D01*
X153965Y90728*
X155073*
X155811Y91096*
X156180Y91466*
X156549Y92204*
Y93680*
X156180Y94419*
X155811Y94787*
X155073Y95157*
X153965*
X153227Y94787*
X152858Y94419*
X150644Y91835D02*
X150274Y91096D01*
X149536Y90728*
X148798*
X148060Y91096*
X147691Y91835*
Y92573*
X148060Y93311*
X148798Y93680*
X149536*
X150274Y93311*
X150644Y92573*
Y91835*
X144738Y90728D02*
Y93680D01*
Y92573D02*
X144369Y93311D01*
X143631Y93680*
X142893*
X142154Y93311*
X141785Y92573*
Y90728*
X138217Y93680D02*
X136495D01*
X137356Y94419D02*
Y91096D01*
X136987Y90728*
X136618*
X136249Y91096*
X132927Y90728D02*
Y95157D01*
X130343*
X129605Y94787*
X129236Y94049*
X129605Y93311*
X130343Y92942*
X132927*
X130343D02*
X129236Y90728D01*
X191662Y110019D02*
X190186D01*
X190924D02*
Y114448D01*
X191662D02*
X190186D01*
X183911Y110019D02*
X186864D01*
X184280Y112602*
X183911Y113341*
X184280Y114079*
X185019Y114448*
X186126*
X186864Y114079*
X177268Y110757D02*
X177637Y110388D01*
X178375Y110019*
X179482*
X180220Y110388*
X180589Y110757*
X180959Y111495*
Y112972*
X180589Y113710*
X180220Y114079*
X179482Y114448*
X178375*
X177637Y114079*
X177268Y113710*
X175053Y110388D02*
X174315Y110019D01*
X172839*
X172100Y110388*
Y111126*
X172839Y111495*
X174315*
X175053Y111864*
Y112602*
X174315Y112972*
X172839*
X172100Y112602*
X166195D02*
X166933Y112972D01*
X168040*
X168778Y112602*
X169148Y111864*
Y111126*
X168778Y110388*
X168040Y110019*
X166933*
X166195Y110388*
X161396Y110019D02*
X161766D01*
Y114448*
X196633Y82533D02*
X201062D01*
Y85117*
X200693Y85856*
X199955Y86224*
X199217Y85856*
X198848Y85117*
Y82533*
X196633Y88439D02*
X201062Y90285D01*
X196633Y92130*
X198478Y89177D02*
Y91392D01*
X196633Y95083D02*
Y96559D01*
Y95821D02*
X201062D01*
X200324Y95083*
X196633Y102096D02*
X201062D01*
X198109Y100250*
Y103203*
X213562Y81746D02*
X217991D01*
Y84330*
X217622Y85068*
X216884Y85437*
X216146Y85068*
X215777Y84330*
Y81746*
X213562Y87652D02*
X217991Y89497D01*
X213562Y91343*
X215407Y88390D02*
Y90604D01*
X213562Y94295D02*
Y95772D01*
Y95033D02*
X217991D01*
X217253Y94295*
X213931Y99832D02*
X213562Y100570D01*
Y101308*
X213931Y102046*
X214669Y102415*
X215407Y102046*
X215777Y101308*
Y100570*
Y101308D02*
X216146Y102046D01*
X216884Y102415*
X217622Y102046*
X217991Y101308*
Y100570*
X217622Y99832*
X234035Y82533D02*
X238464D01*
Y85117*
X238094Y85856*
X237356Y86224*
X236618Y85856*
X236249Y85117*
Y82533*
X234773Y92130D02*
X234404Y91761D01*
X234035Y91023*
Y89915*
X234404Y89177*
X234773Y88808*
X235511Y88439*
X236987*
X237726Y88808*
X238094Y89177*
X238464Y89915*
Y91023*
X238094Y91761*
X237726Y92130*
X234035Y95083D02*
Y96559D01*
Y95821D02*
X238464D01*
X237726Y95083*
X234035Y102096D02*
X238464D01*
X235511Y100250*
Y103203*
X244344Y53031D02*
X242499Y48602D01*
X240654Y53031*
X235486Y51185D02*
X236224Y51554D01*
X237331*
X238070Y51185*
X238439Y50447*
Y49709*
X238070Y48970*
X237331Y48602*
X236224*
X235486Y48970*
X229581Y51185D02*
X230319Y51554D01*
X231426*
X232164Y51185*
X232533Y50447*
Y49709*
X232164Y48970*
X231426Y48602*
X230319*
X229581Y48970*
X261200Y95526D02*
X265629Y97371D01*
X261200Y99217*
X263045Y96264D02*
Y98478D01*
X261200Y101431D02*
X265629D01*
Y103646*
X265260Y104384*
X264891Y104753*
X264153Y105122*
X262676*
X261938Y104753*
X261569Y104384*
X261200Y103646*
Y101431*
X261938Y111028D02*
X261569Y110659D01*
X261200Y109920*
Y108813*
X261569Y108075*
X261938Y107706*
X262676Y107337*
X264153*
X264891Y107706*
X265260Y108075*
X265629Y108813*
Y109920*
X265260Y110659*
X264891Y111028*
X261200Y115088D02*
X265629D01*
X262676Y113242*
Y116195*
X268926Y49659D02*
X267819D01*
Y49291*
X268188Y48552*
X268557Y48183*
X269295Y47814*
X270033*
X270772Y48183*
X271141Y48552*
X271510Y49291*
Y50767*
X271141Y51505*
X270772Y51874*
X270033Y52243*
X269295*
X268557Y51874*
X268188Y51505*
X267819Y50767*
X265604Y47814D02*
Y50767D01*
Y49659D02*
X265235Y50398D01*
X264497Y50767*
X263759*
X263020Y50398*
X262652Y49659*
Y47814*
X256746Y49659D02*
X257115Y50398D01*
X257853Y50767*
X258591*
X259330Y50398*
X259699Y49659*
Y48921*
X259330Y48183*
X258591Y47814*
X257853*
X257115Y48183*
X256746Y48921*
Y47814D02*
Y52243D01*
X282854Y95919D02*
X287283Y97765D01*
X282854Y99610*
X284699Y96657D02*
Y98872D01*
X282854Y101825D02*
X287283D01*
Y104039*
X286913Y104778*
X286544Y105147*
X285806Y105516*
X284330*
X283592Y105147*
X283222Y104778*
X282854Y104039*
Y101825*
X283592Y111421D02*
X283222Y111052D01*
X282854Y110314*
Y109207*
X283222Y108469*
X283592Y108100*
X284330Y107730*
X285806*
X286544Y108100*
X286913Y108469*
X287283Y109207*
Y110314*
X286913Y111052*
X286544Y111421*
X283222Y114005D02*
X282854Y114743D01*
Y115481*
X283222Y116220*
X283961Y116589*
X284699Y116220*
X285068Y115481*
Y114743*
Y115481D02*
X285437Y116220D01*
X286175Y116589*
X286913Y116220*
X287283Y115481*
Y114743*
X286913Y114005*
X294738Y53031D02*
X292893Y48602D01*
X291047Y53031*
X285880Y51185D02*
X286618Y51554D01*
X287725*
X288463Y51185*
X288833Y50447*
Y49709*
X288463Y48970*
X287725Y48602*
X286618*
X285880Y48970*
X279974Y51185D02*
X280713Y51554D01*
X281820*
X282558Y51185*
X282927Y50447*
Y49709*
X282558Y48970*
X281820Y48602*
X280713*
X279974Y48970*
X297888Y467991D02*
X296042Y463562D01*
X294197Y467991*
X289030Y466146D02*
X289768Y466515D01*
X290875*
X291613Y466146*
X291982Y465407*
Y464669*
X291613Y463931*
X290875Y463562*
X289768*
X289030Y463931*
X283124Y466146D02*
X283862Y466515D01*
X284969*
X285707Y466146*
X286077Y465407*
Y464669*
X285707Y463931*
X284969Y463562*
X283862*
X283124Y463931*
X277587Y465777D02*
X276849Y465407D01*
X276480Y464669*
X276849Y463931*
X277587Y463562*
X280171*
Y467991*
X277587*
X276849Y467622*
X276480Y466884*
X276849Y466146*
X277587Y465777*
X280171*
X274266Y463562D02*
Y466515D01*
Y465407D02*
X273896Y466146D01*
X273158Y466515*
X272420*
X271682Y466146*
X268360Y465039D02*
X265407D01*
X262455Y467991D02*
Y463562D01*
X258764*
X302145Y96707D02*
X306574Y98552D01*
X302145Y100398*
X303990Y97445D02*
Y99659D01*
X302145Y102612D02*
X306574D01*
Y104827*
X306205Y105565*
X305836Y105934*
X305098Y106303*
X303621*
X302883Y105934*
X302514Y105565*
X302145Y104827*
Y102612*
X302883Y112209D02*
X302514Y111840D01*
X302145Y111102*
Y109994*
X302514Y109256*
X302883Y108887*
X303621Y108518*
X305098*
X305836Y108887*
X306205Y109256*
X306574Y109994*
Y111102*
X306205Y111840*
X305836Y112209*
X302145Y117376D02*
Y114423D01*
X304728Y117007*
X305467Y117376*
X306205Y117007*
X306574Y116269*
Y115161*
X306205Y114423*
X318594Y52966D02*
G75*
G02X316039I-1278D01*
G01*
G75*
G02X318594I1278*
G01*
X320255Y96707D02*
X324684Y98552D01*
X320255Y100398*
X322100Y97445D02*
Y99659D01*
X320255Y102612D02*
X324684D01*
Y104827*
X324315Y105565*
X323946Y105934*
X323208Y106303*
X321731*
X320993Y105934*
X320624Y105565*
X320255Y104827*
Y102612*
X320993Y112209D02*
X320624Y111840D01*
X320255Y111102*
Y109994*
X320624Y109256*
X320993Y108887*
X321731Y108518*
X323208*
X323946Y108887*
X324315Y109256*
X324684Y109994*
Y111102*
X324315Y111840*
X323946Y112209*
X320255Y115161D02*
Y116638D01*
Y115900D02*
X324684D01*
X323946Y115161*
X319320Y49659D02*
X318213D01*
Y49291*
X318581Y48552*
X318951Y48183*
X319689Y47814*
X320427*
X321165Y48183*
X321534Y48552*
X321904Y49291*
Y50767*
X321534Y51505*
X321165Y51874*
X320427Y52243*
X319689*
X318951Y51874*
X318581Y51505*
X318213Y50767*
X315998Y47814D02*
Y50767D01*
Y49659D02*
X315629Y50398D01*
X314891Y50767*
X314152*
X313414Y50398*
X313045Y49659*
Y47814*
X307140Y49659D02*
X307509Y50398D01*
X308247Y50767*
X308985*
X309723Y50398*
X310093Y49659*
Y48921*
X309723Y48183*
X308985Y47814*
X308247*
X307509Y48183*
X307140Y48921*
Y47814D02*
Y52243D01*
X331107Y54702D02*
G75*
G02Y53348J-677D01*
G01*
X323409*
G75*
G02X326251Y48050I6455J52*
G01*
G75*
G02X327150Y49381I450J665*
G01*
G75*
G03X325310Y55065I2714J4018*
G01*
G75*
G03X325560Y54702I257J-91*
G01*
X331107*
X338439Y53400D02*
G75*
G02X321288I-8576D01*
G01*
G75*
G02X338439I8576*
G01*
X340334Y94738D02*
X344763D01*
Y98429*
X342548Y97691D02*
Y94738D01*
X340334D02*
Y98429D01*
Y100644D02*
X343287D01*
X342179D02*
X342917Y101013D01*
X343287Y101751*
Y102489*
X342917Y103228*
X342179Y103596*
X340334*
X342917Y109502D02*
X343287Y108764D01*
Y107657*
X342917Y106919*
X342179Y106549*
X341441*
X340703Y106919*
X340334Y107657*
Y108764*
X340703Y109502*
X340334Y113193D02*
Y114669D01*
Y113931D02*
X344763D01*
X344025Y113193*
X347094Y47216D02*
X345372D01*
Y58057*
X340220*
Y59806*
X352297*
Y58057*
X347094*
Y47216*
X350250Y468385D02*
X348404Y463956D01*
X346559Y468385*
X341392Y466539D02*
X342130Y466909D01*
X343237*
X343975Y466539*
X344344Y465801*
Y465063*
X343975Y464325*
X343237Y463956*
X342130*
X341392Y464325*
X335486Y466539D02*
X336224Y466909D01*
X337331*
X338070Y466539*
X338439Y465801*
Y465063*
X338070Y464325*
X337331Y463956*
X336224*
X335486Y464325*
X329950Y466170D02*
X329211Y465801D01*
X328843Y465063*
X329211Y464325*
X329950Y463956*
X332533*
Y468385*
X329950*
X329211Y468016*
X328843Y467278*
X329211Y466539*
X329950Y466170*
X332533*
X326628Y463956D02*
Y466909D01*
Y465801D02*
X326259Y466539D01*
X325520Y466909*
X324782*
X324044Y466539*
X320722Y465432D02*
X317770D01*
X314817Y463956D02*
Y468385D01*
X312233*
X311495Y468016*
X311126Y467278*
X311495Y466539*
X312233Y466170*
X314817*
X312233D02*
X311126Y463956D01*
X360019Y94738D02*
X364448D01*
Y98429*
X362233Y97691D02*
Y94738D01*
X360019D02*
Y98429D01*
Y100644D02*
X362972D01*
X361864D02*
X362602Y101013D01*
X362972Y101751*
Y102489*
X362602Y103228*
X361864Y103596*
X360019*
X362602Y109502D02*
X362972Y108764D01*
Y107657*
X362602Y106919*
X361864Y106549*
X361126*
X360388Y106919*
X360019Y107657*
Y108764*
X360388Y109502*
X360019Y115407D02*
Y112455D01*
X362602Y115039*
X363341Y115407*
X364079Y115039*
X364448Y114300*
Y113193*
X364079Y112455*
X366059Y49003D02*
X360004D01*
G75*
G02Y57996I632J4496*
G01*
X366059*
Y49003*
X367837Y47224D02*
X360004D01*
G75*
G02Y59825I615J6301*
G01*
X367837*
Y47224*
X406328Y346092D02*
X405589Y345722D01*
X405220Y344984*
X405589Y344246*
X406328Y343877*
X408911*
Y348306*
X406328*
X405589Y347937*
X405220Y347199*
X405589Y346461*
X406328Y346092*
X408911*
X403006Y343877D02*
Y346830D01*
Y345722D02*
X402637Y346461D01*
X401898Y346830*
X401160*
X400422Y346461*
X397100D02*
X396362Y346830D01*
X395255*
X394517Y346461*
X394148Y345722*
Y344615*
X394517Y344246*
X395255Y343877*
X395993*
X396731Y344246*
X397100Y344615*
Y344984*
X396731Y345354*
X395993Y345722*
X395255*
X394517Y345354*
X394148Y344984*
Y344615D02*
Y343877D01*
X391195D02*
Y348306D01*
Y345354D02*
X390087D01*
X388242Y346830*
X390087Y345354D02*
X388242Y343877D01*
X382337Y344246D02*
X382706Y343877D01*
X383444*
X384182*
X384920Y344246*
X385289Y344984*
Y346092*
X384920Y346461*
X384182Y346830*
X383444*
X382706Y346461*
X382337Y346092*
Y345722*
X382706Y345354*
X383444Y344984*
X384182*
X384920Y345354*
X385289Y345722*
X379384Y348306D02*
Y343877D01*
X375693*
X411151Y387799D02*
X410781Y387430D01*
X410413Y386692*
Y385585*
X410781Y384846*
X411151Y384478*
X411889Y384108*
X413365*
X414104Y384478*
X414472Y384846*
X414842Y385585*
Y386692*
X414472Y387430*
X414104Y387799*
X411520Y390014D02*
X410781Y390383D01*
X410413Y391121*
Y391859*
X410781Y392598*
X411520Y392967*
X412258*
X412996Y392598*
X413365Y391859*
Y391121*
X412996Y390383*
X412258Y390014*
X411520*
X410413Y395919D02*
X413365D01*
X412258D02*
X412996Y396289D01*
X413365Y397027*
Y397765*
X412996Y398503*
X412258Y398872*
X410413*
Y401825D02*
X414842D01*
Y405516*
X412627Y404778D02*
Y401825D01*
X410413D02*
Y405516D01*
Y407730D02*
X413365D01*
X412258D02*
X412996Y408100D01*
X413365Y408838*
Y409576*
X412996Y410314*
X412258Y410683*
X410413*
X412996Y413636D02*
X413365Y414374D01*
Y415481*
X412996Y416220*
X412258Y416589*
X411151*
X410781Y416220*
X410413Y415481*
Y414743*
X410781Y414005*
X411151Y413636*
X411520*
X411889Y414005*
X412258Y414743*
Y415481*
X411889Y416220*
X411520Y416589*
X411151D02*
X410413D01*
X414842Y419541D02*
X410413D01*
Y423232*
X411938Y249610D02*
X411569Y249241D01*
X411200Y248503*
Y247396*
X411569Y246657*
X411938Y246289*
X412676Y245919*
X414153*
X414891Y246289*
X415260Y246657*
X415629Y247396*
Y248503*
X415260Y249241*
X414891Y249610*
X412307Y251825D02*
X411569Y252194D01*
X411200Y252932*
Y253670*
X411569Y254409*
X412307Y254778*
X413045*
X413783Y254409*
X414153Y253670*
Y252932*
X413783Y252194*
X413045Y251825*
X412307*
X411200Y257730D02*
X414153D01*
X413045D02*
X413783Y258100D01*
X414153Y258838*
Y259576*
X413783Y260314*
X413045Y260683*
X411200*
Y263636D02*
X415629D01*
Y267327*
X413415Y266589D02*
Y263636D01*
X411200D02*
Y267327D01*
Y269541D02*
X414153D01*
X413045D02*
X413783Y269911D01*
X414153Y270649*
Y271387*
X413783Y272125*
X413045Y272494*
X411200*
X413783Y275447D02*
X414153Y276185D01*
Y277293*
X413783Y278031*
X413045Y278400*
X411938*
X411569Y278031*
X411200Y277293*
Y276554*
X411569Y275816*
X411938Y275447*
X412307*
X412676Y275816*
X413045Y276554*
Y277293*
X412676Y278031*
X412307Y278400*
X411938D02*
X411200D01*
Y281352D02*
X415629D01*
Y283936*
X415260Y284674*
X414522Y285043*
X413783Y284674*
X413415Y283936*
Y281352*
Y283936D02*
X411200Y285043D01*
X409477Y59896D02*
X408370D01*
Y59527*
X408739Y58789*
X409108Y58419*
X409846Y58050*
X410585*
X411323Y58419*
X411692Y58789*
X412061Y59527*
Y61003*
X411692Y61741*
X411323Y62110*
X410585Y62480*
X409846*
X409108Y62110*
X408739Y61741*
X408370Y61003*
X406156Y58050D02*
Y61003D01*
Y59896D02*
X405786Y60634D01*
X405048Y61003*
X404310*
X403572Y60634*
X403203Y59896*
Y58050*
X397297Y59896D02*
X397666Y60634D01*
X398404Y61003*
X399143*
X399881Y60634*
X400250Y59896*
Y59157*
X399881Y58419*
X399143Y58050*
X398404*
X397666Y58419*
X397297Y59157*
Y58050D02*
Y62480D01*
X410265Y207509D02*
X409526Y207140D01*
X409157Y206402*
X409526Y205663*
X410265Y205294*
X412848*
Y209724*
X410265*
X409526Y209354*
X409157Y208616*
X409526Y207878*
X410265Y207509*
X412848*
X406943Y205294D02*
Y208247D01*
Y207140D02*
X406574Y207878D01*
X405835Y208247*
X405097*
X404359Y207878*
X401037D02*
X400299Y208247D01*
X399192*
X398454Y207878*
X398085Y207140*
Y206033*
X398454Y205663*
X399192Y205294*
X399930*
X400668Y205663*
X401037Y206033*
Y206402*
X400668Y206771*
X399930Y207140*
X399192*
X398454Y206771*
X398085Y206402*
Y206033D02*
Y205294D01*
X395132D02*
Y209724D01*
Y206771D02*
X394024D01*
X392179Y208247*
X394024Y206771D02*
X392179Y205294D01*
X386274Y205663D02*
X386643Y205294D01*
X387381*
X388119*
X388857Y205663*
X389226Y206402*
Y207509*
X388857Y207878*
X388119Y208247*
X387381*
X386643Y207878*
X386274Y207509*
Y207140*
X386643Y206771*
X387381Y206402*
X388119*
X388857Y206771*
X389226Y207140*
X383321Y205294D02*
Y209724D01*
X380737*
X379999Y209354*
X379630Y208616*
X379999Y207878*
X380737Y207509*
X383321*
X380737D02*
X379630Y205294D01*
X413242Y117499D02*
Y121928D01*
X411396Y119714*
X409551Y121928*
Y117499*
X407337Y118976D02*
Y120452D01*
X406967Y121190*
X406598Y121559*
X405860Y121928*
X405122*
X404384Y121559*
X404015Y121190*
X403646Y120452*
Y118976*
X404015Y118237*
X404384Y117868*
X405122Y117499*
X405860*
X406598Y117868*
X406967Y118237*
X407337Y118976*
X401431Y118606D02*
X401062Y117868D01*
X400324Y117499*
X398847*
X398109Y117868*
X397740Y118606*
X398109Y119344*
X398847Y119714*
X400324*
X401062Y120083*
X401431Y120821*
X401062Y121559*
X400324Y121928*
X398847*
X398109Y121559*
X397740Y120821*
X394418Y117499D02*
X392942D01*
X393680D02*
Y121928D01*
X394418D02*
X392942D01*
X413636Y95058D02*
Y99487D01*
X411790Y97273*
X409945Y99487*
Y95058*
X406623D02*
X405146D01*
X405885D02*
Y99487D01*
X406623D02*
X405146D01*
X401825Y96165D02*
X401456Y95427D01*
X400717Y95058*
X399241*
X398503Y95427*
X398134Y96165*
X398503Y96904*
X399241Y97273*
X400717*
X401456Y97642*
X401825Y98380*
X401456Y99118*
X400717Y99487*
X399241*
X398503Y99118*
X398134Y98380*
X395919Y96535D02*
Y98011D01*
X395550Y98749*
X395181Y99118*
X394443Y99487*
X393705*
X392967Y99118*
X392597Y98749*
X392228Y98011*
Y96535*
X392597Y95796*
X392967Y95427*
X393705Y95058*
X394443*
X395181Y95427*
X395550Y95796*
X395919Y96535*
X414030Y20747D02*
Y17425D01*
X413660Y16687*
X412922Y16318*
X411446*
X410707Y16687*
X410339Y17425*
Y20747*
X408124Y16318D02*
X406278Y20747D01*
X404433Y16318*
X407386Y18163D02*
X405171D01*
X402219Y16318D02*
Y20747D01*
X399635*
X398896Y20378*
X398528Y19640*
X398896Y18902*
X399635Y18533*
X402219*
X399635D02*
X398528Y16318D01*
X394467D02*
Y20747D01*
X396313D02*
X392622D01*
X390038Y16687D02*
X389300Y16318D01*
X388562*
X387824Y16687*
X387455Y17425*
X387824Y18163*
X388562Y18533*
X389300*
X388562D02*
X387824Y18902D01*
X387455Y19640*
X387824Y20378*
X388562Y20747*
X389300*
X390038Y20378*
X383887Y19271D02*
X382164D01*
X383026Y20009D02*
Y16687D01*
X382656Y16318*
X382287*
X381918Y16687*
X378596Y16318D02*
X375644Y19271D01*
Y16318D02*
X378596Y19271D01*
X414030Y42007D02*
Y38685D01*
X413660Y37947*
X412922Y37578*
X411446*
X410707Y37947*
X410339Y38685*
Y42007*
X408124Y37578D02*
X406278Y42007D01*
X404433Y37578*
X407386Y39423D02*
X405171D01*
X402219Y37578D02*
Y42007D01*
X399635*
X398896Y41638*
X398528Y40900*
X398896Y40161*
X399635Y39793*
X402219*
X399635D02*
X398528Y37578D01*
X394467D02*
Y42007D01*
X396313D02*
X392622D01*
X390038Y37947D02*
X389300Y37578D01*
X388562*
X387824Y37947*
X387455Y38685*
X387824Y39423*
X388562Y39793*
X389300*
X388562D02*
X387824Y40161D01*
X387455Y40900*
X387824Y41638*
X388562Y42007*
X389300*
X390038Y41638*
X384502Y37578D02*
Y40531D01*
Y39423D02*
X384133Y40161D01*
X383394Y40531*
X382656*
X381918Y40161*
X378596Y37578D02*
X375644Y40531D01*
Y37578D02*
X378596Y40531D01*
X412233Y160659D02*
X411495Y160289D01*
X411126Y159551*
X411495Y158813*
X412233Y158444*
X414817*
Y162873*
X412233*
X411495Y162504*
X411126Y161766*
X411495Y161028*
X412233Y160659*
X414817*
X408911Y162873D02*
Y158444D01*
X405220*
X403006D02*
Y161397D01*
Y160289D02*
X402637Y161028D01*
X401898Y161397*
X401160*
X400422Y161028*
X397100Y158444D02*
X394148Y161397D01*
Y158444D02*
X397100Y161397D01*
X414817Y447814D02*
Y452243D01*
X412602*
X411864Y451874*
X411495Y451505*
X411126Y450767*
Y449291*
X411495Y448552*
X411864Y448183*
X412602Y447814*
X414817*
X408911D02*
X407066Y452243D01*
X405220Y447814*
X408173Y449659D02*
X405959D01*
X399315Y448552D02*
X399684Y448183D01*
X400422Y447814*
X401530*
X402268Y448183*
X402637Y448552*
X403006Y449291*
Y450767*
X402637Y451505*
X402268Y451874*
X401530Y452243*
X400422*
X399684Y451874*
X399315Y451505*
X397100Y449291D02*
X394148D01*
X390087Y447814D02*
X388611D01*
X389349D02*
Y452243D01*
X390087D02*
X388611D01*
X415604Y313169D02*
Y317598D01*
X413390*
X412652Y317228*
X412282Y316859*
X411913Y316121*
Y314645*
X412282Y313907*
X412652Y313537*
X413390Y313169*
X415604*
X409699D02*
X407853Y317598D01*
X406008Y313169*
X408961Y315014D02*
X406746D01*
X400102Y313907D02*
X400471Y313537D01*
X401209Y313169*
X402317*
X403055Y313537*
X403424Y313907*
X403793Y314645*
Y316121*
X403424Y316859*
X403055Y317228*
X402317Y317598*
X401209*
X400471Y317228*
X400102Y316859*
X397888Y314645D02*
X394935D01*
X391982Y313169D02*
Y317598D01*
X389768*
X389030Y317228*
X388660Y316859*
X388291Y316121*
Y314645*
X388660Y313907*
X389030Y313537*
X389768Y313169*
X391982*
X413414Y140974D02*
X412676Y140604D01*
X412307Y139866*
X412676Y139128*
X413414Y138759*
X415998*
Y143188*
X413414*
X412676Y142819*
X412307Y142081*
X412676Y141343*
X413414Y140974*
X415998*
X410093Y143188D02*
Y138759D01*
X406402*
X404187Y139128D02*
X403449Y138759D01*
X401972*
X401234Y139128*
Y139866*
X401972Y140235*
X403449*
X404187Y140604*
Y141343*
X403449Y141712*
X401972*
X401234Y141343*
X397666Y141712D02*
X395944D01*
X396805Y142450D02*
Y139128D01*
X396436Y138759*
X396067*
X395698Y139128*
X392376Y141343D02*
X391638Y141712D01*
X390530*
X389792Y141343*
X389423Y140604*
Y139497*
X389792Y139128*
X390530Y138759*
X391269*
X392007Y139128*
X392376Y139497*
Y139866*
X392007Y140235*
X391269Y140604*
X390530*
X389792Y140235*
X389423Y139866*
Y139497D02*
Y138759D01*
X385855Y141712D02*
X384133D01*
X384994Y142450D02*
Y139128D01*
X384625Y138759*
X384256*
X383887Y139128*
X377612D02*
X377981Y138759D01*
X378719*
X379457*
X380196Y139128*
X380565Y139866*
Y140974*
X380196Y141343*
X379457Y141712*
X378719*
X377981Y141343*
X377612Y140974*
Y140604*
X377981Y140235*
X378719Y139866*
X379457*
X380196Y140235*
X380565Y140604*
X415998Y230590D02*
X412307D01*
X415998Y226161*
X412307*
X410093D02*
X406402Y230590D01*
X404187Y226161D02*
Y230590D01*
X400496*
X401234Y228375D02*
X404187D01*
X398281Y227637D02*
X395329D01*
X392376Y226161D02*
Y230590D01*
X389792*
X389054Y230220*
X388685Y229482*
X389054Y228744*
X389792Y228375*
X392376*
X389792D02*
X388685Y226161D01*
X415998Y235929D02*
X415629Y235191D01*
X414891Y234822*
X413414*
X412676Y235191*
X412307Y235929*
X412676Y236667*
X413414Y237037*
X414891*
X415629Y237406*
X415998Y238144*
X415629Y238882*
X414891Y239251*
X413414*
X412676Y238882*
X412307Y238144*
X408616Y234822D02*
Y237775D01*
Y238882D02*
X401234Y236667*
X401603Y237406D01*
X402341Y237775*
X403080*
X403818Y237406*
X404187Y236667*
Y236298*
X403818Y235560*
X403080Y235191*
X402341*
X401603Y235560*
X401234Y236298*
Y237775D02*
Y234822D01*
X401603Y234084*
X402341Y233715*
X403449*
X404187Y234084*
X398281Y234822D02*
Y239251D01*
X396436Y237037*
X394591Y239251*
Y234822*
X392376D02*
Y239251D01*
X390161*
X389423Y238882*
X389054Y238513*
X388685Y237775*
Y236298*
X389054Y235560*
X389423Y235191*
X390161Y234822*
X392376*
X415998Y366417D02*
X412307D01*
X415998Y361987*
X412307*
X410093D02*
X406402Y366417D01*
X404187Y361987D02*
Y366417D01*
X400496*
X401234Y364202D02*
X404187D01*
X398281Y363464D02*
X395329D01*
X392376Y366417D02*
Y361987D01*
X388685*
X413808Y180344D02*
X413070Y179974D01*
X412701Y179236*
X413070Y178498*
X413808Y178129*
X416392*
Y182558*
X413808*
X413070Y182189*
X412701Y181451*
X413070Y180713*
X413808Y180344*
X416392*
X410486Y182558D02*
Y178129D01*
X406795*
X403965Y181082D02*
X402243D01*
X403104Y181820D02*
Y178498D01*
X402735Y178129*
X402366*
X401997Y178498*
X398675Y178129D02*
X395722Y181082D01*
Y178129D02*
X398675Y181082D01*
X413808Y292967D02*
X412701D01*
Y292598*
X413070Y291859*
X413439Y291490*
X414177Y291121*
X414915*
X415654Y291490*
X416022Y291859*
X416392Y292598*
Y294074*
X416022Y294812*
X415654Y295181*
X414915Y295550*
X414177*
X413439Y295181*
X413070Y294812*
X412701Y294074*
X410486Y291121D02*
Y294074D01*
Y292967D02*
X410117Y293705D01*
X409379Y294074*
X408641*
X407902Y293705*
X407533Y292967*
Y291121*
X401628Y292967D02*
X401997Y293705D01*
X402735Y294074*
X403473*
X404211Y293705*
X404581Y292967*
Y292228*
X404211Y291490*
X403473Y291121*
X402735*
X401997Y291490*
X401628Y292228*
Y291121D02*
Y295550D01*
X416392Y378055D02*
X416022Y377317D01*
X415284Y376948*
X413808*
X413070Y377317*
X412701Y378055*
X413070Y378793*
X413808Y379163*
X415284*
X416022Y379531*
X416392Y380270*
X416022Y381008*
X415284Y381377*
X413808*
X413070Y381008*
X412701Y380270*
X409010Y376948D02*
Y379901D01*
Y381008D02*
X401628Y378793*
X401997Y379531D01*
X402735Y379901*
X403473*
X404211Y379531*
X404581Y378793*
Y378424*
X404211Y377686*
X403473Y377317*
X402735*
X401997Y377686*
X401628Y378424*
Y379901D02*
Y376948D01*
X401997Y376210*
X402735Y375841*
X403843*
X404581Y376210*
X398675Y376948D02*
Y381377D01*
X396830Y379163*
X394984Y381377*
Y376948*
X391662D02*
X390186D01*
X390924D02*
Y381377D01*
X391662D02*
X390186D01*
X414989Y431943D02*
X413882D01*
Y431574*
X414251Y430836*
X414620Y430467*
X415358Y430098*
X416096*
X416835Y430467*
X417204Y430836*
X417573Y431574*
Y433050*
X417204Y433789*
X416835Y434157*
X416096Y434527*
X415358*
X414620Y434157*
X414251Y433789*
X413882Y433050*
X411667Y430098D02*
Y433050D01*
Y431943D02*
X411298Y432681D01*
X410560Y433050*
X409822*
X409083Y432681*
X408715Y431943*
Y430098*
X402809Y431943D02*
X403178Y432681D01*
X403916Y433050*
X404654*
X405393Y432681*
X405762Y431943*
Y431205*
X405393Y430467*
X404654Y430098*
X403916*
X403178Y430467*
X402809Y431205*
Y430098D02*
Y434527D01*
X419541Y75693D02*
X419172Y74955D01*
X418434Y74586*
X416957*
X416219Y74955*
X415850Y75693*
X416219Y76431*
X416957Y76800*
X418434*
X419172Y77169*
X419541Y77907*
X419172Y78646*
X418434Y79015*
X416957*
X416219Y78646*
X415850Y77907*
X413636Y74586D02*
Y79015D01*
X411052*
X410314Y78646*
X409945Y77907*
X410314Y77169*
X411052Y76800*
X413636*
X406623Y74586D02*
X405146D01*
X405885D02*
Y79015D01*
X406623D02*
X405146D01*
X401825Y74955D02*
X401087Y74586D01*
X399610*
X398872Y74955*
Y75693*
X399610Y76062*
X401087*
X401825Y76431*
Y77169*
X401087Y77539*
X399610*
X398872Y77169*
X392967D02*
X393705Y77539D01*
X394812*
X395550Y77169*
X395919Y76431*
Y75693*
X395550Y74955*
X394812Y74586*
X393705*
X392967Y74955*
X390014Y74586D02*
Y79015D01*
Y76062D02*
X388906D01*
X387061Y77539*
X388906Y76062D02*
X387061Y74586D01*
X0Y0D02*
M02*
