G04 DesignSpark PCB Gerber Version 9.0 Build 5138 *
G04 #@! TF.Part,Single*
G04 #@! TF.FileFunction,Soldermask,Top *
G04 #@! TF.FilePolarity,Negative *
%FSLAX35Y35*%
%MOIN*%
G04 #@! TA.AperFunction,ComponentPad*
%ADD75R,0.06906X0.06906*%
%ADD74C,0.06906*%
%ADD72R,0.05906X0.05906*%
%AMT72*0 Rounded Rectangle Pad at angle 90*4,1,24,0.03453,-0.03159,0.03453,0.03159,0.03438,0.03250,0.03396,0.03332,0.03331,0.03397,0.03250,0.03439,0.03159,0.03453,-0.03159,0.03453,-0.03250,0.03438,-0.03332,0.03396,-0.03397,0.03331,-0.03439,0.03250,-0.03453,0.03159,-0.03453,-0.03159,-0.03438,-0.03250,-0.03396,-0.03332,-0.03331,-0.03397,-0.03250,-0.03439,-0.03159,-0.03453,0.03159,-0.03453,0.03250,-0.03438,0.03332,-0.03396,0.03397,-0.03331,0.03439,-0.03250,0.03453,-0.03159,0*%
%ADD72T72*%
%ADD97C,0.10843*%
G04 #@! TA.AperFunction,WasherPad*
%ADD108C,0.14780*%
X0Y0D02*
D02*
D72*
X111392Y222848D03*
Y232848D03*
Y242848D03*
Y252848D03*
Y262848D03*
Y272848D03*
Y282848D03*
Y292848D03*
Y302848D03*
Y312848D03*
Y322848D03*
Y332848D03*
Y342848D03*
Y352848D03*
Y362848D03*
Y372848D03*
Y382848D03*
Y392848D03*
Y402848D03*
X121392Y222848D03*
Y232848D03*
Y242848D03*
Y252848D03*
Y262848D03*
Y272848D03*
Y282848D03*
Y292848D03*
Y302848D03*
Y312848D03*
Y322848D03*
Y332848D03*
Y342848D03*
Y352848D03*
Y362848D03*
Y372848D03*
Y382848D03*
Y392848D03*
Y402848D03*
X351392Y222848D03*
Y232848D03*
Y242848D03*
Y252848D03*
Y262848D03*
Y272848D03*
Y282848D03*
Y292848D03*
Y302848D03*
Y312848D03*
Y322848D03*
Y332848D03*
Y342848D03*
Y352848D03*
Y362848D03*
Y372848D03*
Y382848D03*
Y392848D03*
Y402848D03*
X361392Y222848D03*
Y232848D03*
Y242848D03*
Y252848D03*
Y262848D03*
Y272848D03*
Y282848D03*
Y292848D03*
Y302848D03*
Y312848D03*
Y322848D03*
Y332848D03*
Y342848D03*
Y352848D03*
Y362848D03*
Y372848D03*
Y382848D03*
Y392848D03*
Y402848D03*
D02*
D74*
X145919Y217337D03*
Y257337D03*
X147100Y265368D03*
Y305368D03*
X157711Y384128D03*
X160486Y325014D03*
Y340014D03*
X165211Y376628D03*
Y391628D03*
X165604Y277376D03*
Y292376D03*
X167179Y233675D03*
Y248675D03*
X167986Y332514D03*
X173104Y284876D03*
X174679Y241175D03*
X179778Y312219D03*
Y352219D03*
X183715Y363242D03*
Y403242D03*
X187258Y266943D03*
Y306943D03*
X188045Y217179D03*
Y257179D03*
X196313Y362986D03*
Y402986D03*
X198675Y323833D03*
Y338833D03*
X206175Y331333D03*
X211037Y403793D03*
X211274Y210093D03*
Y250093D03*
X212061Y259699D03*
Y299699D03*
X214030Y373439D03*
Y388439D03*
X218754Y313793D03*
Y353793D03*
X221530Y380939D03*
X225053Y210644D03*
Y250644D03*
X226628Y259856D03*
Y299856D03*
X236451Y381766D03*
X240407Y323439D03*
Y338439D03*
X243951Y374266D03*
Y389266D03*
X245919Y258675D03*
Y298675D03*
X247100Y210093D03*
Y250093D03*
X247907Y330939D03*
X251037Y403793D03*
X260880Y314187D03*
Y354187D03*
X261274Y259305D03*
Y299305D03*
X261667Y209463D03*
Y249463D03*
X265998Y365604D03*
Y405604D03*
X277022Y365368D03*
Y405368D03*
X279384Y223085D03*
Y244502D03*
Y284502D03*
X280329Y210880D03*
X281352Y324620D03*
Y339620D03*
X288852Y332120D03*
X290801Y403400D03*
X295919Y373439D03*
Y388439D03*
X296707Y244738D03*
Y284738D03*
X300644Y313400D03*
Y353400D03*
X303419Y380939D03*
X319384Y223085D03*
X320329Y210880D03*
X330801Y403400D03*
X333872Y176904D03*
X333911Y191234D03*
X373872Y176904D03*
X373911Y191234D03*
X387258Y400407D03*
Y440407D03*
X390407Y244148D03*
Y284148D03*
X402415Y244148D03*
Y284148D03*
X403281Y400407D03*
Y440407D03*
D02*
D75*
X73281Y67140D03*
Y77140D03*
X102809Y67061D03*
Y77061D03*
X132140Y67376D03*
Y77376D03*
X317967Y279226D03*
Y289226D03*
X318360Y242612D03*
Y252612D03*
D02*
D97*
X35880Y38045D03*
Y58045D03*
X35959Y78203D03*
Y98203D03*
Y118478D03*
Y138478D03*
X36510Y207730D03*
Y227809D03*
Y247809D03*
Y279384D03*
Y299463D03*
Y319463D03*
X36549Y167573D03*
Y187573D03*
Y345526D03*
Y365604D03*
Y385604D03*
X36628Y405447D03*
Y425526D03*
Y445526D03*
X100644Y23085D03*
X120722D03*
X140722D03*
X152573Y135565D03*
X172573D03*
X192376Y135644D03*
X212455D03*
X232455D03*
X239896Y22258D03*
X258636Y135644D03*
X259896Y22258D03*
X278715Y135644D03*
X290683Y22691D03*
X292848Y438045D03*
X298715Y135644D03*
X310683Y22691D03*
X312848Y438045D03*
X318754Y135683D03*
X338833D03*
X358833D03*
X433833Y251037D03*
Y271037D03*
Y291116D03*
Y311116D03*
X433872Y210880D03*
Y230880D03*
X434069Y77415D03*
Y97494D03*
Y117494D03*
Y137888D03*
Y157967D03*
Y177967D03*
X434108Y17258D03*
Y37258D03*
Y57337D03*
Y345526D03*
Y365526D03*
X434148Y385683D03*
Y405683D03*
Y425998D03*
Y445998D03*
D02*
D108*
X11274Y10486D03*
Y460486D03*
X193557Y12848D03*
X458518Y460880D03*
X460093Y8518D03*
X0Y0D02*
M02*
