G05
M48
METRIC,TZ
FMAT,2
T1C000.60000
T2C000.80000
T3C000.90000
T4C001.02000
%
T001
X3.06350Y50.47120
X10.36350Y65.81120
X10.86350Y63.11120
X12.16350Y67.51120
X12.26350Y72.21120
X14.46350Y67.61120
X14.96350Y60.41120
X16.36350Y12.61120
X19.26350Y61.81120
X20.86350Y67.51120
X21.76350Y25.81120
X31.46350Y12.61120
X32.36350Y61.01120
X32.96350Y49.31120
X34.46350Y44.01120
X36.56350Y10.91120
X38.56350Y42.11120
X44.37350Y66.91120
X46.16350Y41.81120
X46.56350Y5.91120
X47.86350Y50.51120
X48.96350Y7.71120
X48.96350Y14.71120
X51.06350Y5.91120
X56.36350Y65.71120
X62.96350Y72.11120
X63.76350Y59.41120
X67.56350Y22.70120
X70.06350Y15.21120
X70.96350Y60.63120
X71.06350Y70.79120
X71.16350Y12.71120
X72.26350Y10.71120
T002
X5.29350Y30.15120
X5.29350Y32.69120
X5.29350Y35.23120
X5.29350Y37.77120
X5.29350Y40.31120
X5.29350Y42.85120
X5.29350Y45.39120
X5.29350Y47.93120
X5.29350Y50.47120
X5.29350Y53.01120
X5.29350Y55.55120
X5.29350Y58.09120
X5.29350Y60.63120
X5.29350Y63.17120
X5.29350Y65.71120
X5.29350Y68.25120
X5.29350Y70.79120
X5.29350Y73.33120
X5.29350Y75.87120
X7.83350Y30.15120
X7.83350Y32.69120
X7.83350Y35.23120
X7.83350Y37.77120
X7.83350Y40.31120
X7.83350Y42.85120
X7.83350Y45.39120
X7.83350Y47.93120
X7.83350Y50.47120
X7.83350Y53.01120
X7.83350Y55.55120
X7.83350Y58.09120
X7.83350Y60.63120
X7.83350Y63.17120
X7.83350Y65.71120
X7.83350Y68.25120
X7.83350Y70.79120
X7.83350Y73.33120
X7.83350Y75.87120
X12.40350Y27.71120
X12.40350Y31.01120
X16.46350Y64.41120
X16.66350Y69.81120
X17.86350Y48.81120
X18.10350Y44.31120
X22.56350Y27.71120
X22.56350Y31.01120
X26.62350Y64.41120
X26.82350Y69.81120
X27.26350Y27.20120
X27.26350Y31.01120
X28.02350Y48.81120
X28.26350Y44.31120
X29.16850Y29.10620
X30.06350Y71.71120
X30.30350Y68.61120
X33.16350Y27.30120
X33.16350Y31.11120
X34.96350Y56.41120
X35.06850Y29.20620
X35.10350Y52.91120
X40.22350Y71.71120
X40.46350Y68.61120
X41.36350Y27.10120
X41.36350Y30.91120
X43.26850Y29.00620
X45.12350Y56.41120
X45.26350Y52.91120
X47.16350Y27.10120
X47.16350Y30.91120
X48.06350Y56.71120
X48.10350Y53.01120
X49.06850Y29.00620
X50.70350Y71.71120
X50.86350Y68.11120
X51.10350Y36.81120
X51.26350Y40.51120
X51.36350Y27.11120
X51.36350Y31.01120
X58.22350Y56.71120
X58.26350Y53.01120
X60.86350Y71.71120
X61.02350Y68.11120
X61.26350Y36.81120
X61.42350Y40.51120
X61.52350Y27.11120
X61.52350Y31.01120
X66.25350Y30.15120
X66.25350Y32.69120
X66.25350Y35.23120
X66.25350Y37.77120
X66.25350Y40.31120
X66.25350Y42.85120
X66.25350Y45.39120
X66.25350Y47.93120
X66.25350Y50.47120
X66.25350Y53.01120
X66.25350Y55.55120
X66.25350Y58.09120
X66.25350Y60.63120
X66.25350Y63.17120
X66.25350Y65.71120
X66.25350Y68.25120
X66.25350Y70.79120
X66.25350Y73.33120
X66.25350Y75.87120
X68.79350Y30.15120
X68.79350Y32.69120
X68.79350Y35.23120
X68.79350Y37.77120
X68.79350Y40.31120
X68.79350Y42.85120
X68.79350Y45.39120
X68.79350Y47.93120
X68.79350Y50.47120
X68.79350Y53.01120
X68.79350Y55.55120
X68.79350Y58.09120
X68.79350Y60.63120
X68.79350Y63.17120
X68.79350Y65.71120
X68.79350Y68.25120
X68.79350Y70.79120
X68.79350Y73.33120
X68.79350Y75.87120
T003
X4.83850Y4.92120
X4.83850Y22.70120
X7.37850Y4.92120
X7.37850Y22.70120
X9.91850Y4.92120
X9.91850Y22.70120
X12.45850Y4.92120
X12.45850Y22.70120
X14.99850Y4.92120
X14.99850Y22.70120
X17.53850Y4.92120
X17.53850Y22.70120
X20.07850Y4.92120
X20.07850Y22.70120
X22.61850Y4.92120
X22.61850Y22.70120
T004
X15.56350Y37.01120
X15.85350Y55.91120
X16.55350Y76.51120
X18.10350Y37.01120
X18.39350Y55.91120
X19.09350Y76.51120
X20.93350Y55.91120
X21.63350Y76.51120
X23.47350Y55.91120
X24.17350Y76.51120
X26.01350Y55.91120
X26.71350Y76.51120
X27.56350Y37.11120
X28.55350Y55.91120
X29.25350Y76.51120
X29.82350Y17.61120
X30.10350Y37.11120
X30.96350Y6.01120
X30.96350Y8.55120
X32.36350Y17.61120
X36.75350Y62.31120
X37.05350Y76.51120
X38.22350Y46.71120
X38.42350Y36.61120
X39.29350Y62.31120
X39.59350Y76.51120
X40.76350Y46.71120
X40.96350Y36.61120
X41.36350Y5.91120
X41.36350Y8.45120
X41.83350Y62.31120
X42.13350Y76.51120
X44.37350Y62.31120
X44.67350Y76.51120
X52.75350Y47.31120
X52.75350Y61.61120
X53.05350Y76.51120
X54.45350Y6.81120
X55.29350Y47.31120
X55.29350Y61.61120
X55.59350Y76.51120
X56.99350Y6.81120
X57.83350Y47.31120
X57.83350Y61.61120
X58.13350Y76.51120
X59.53350Y6.81120
X60.37350Y47.31120
X60.37350Y61.61120
X60.67350Y76.51120
X62.07350Y6.81120
X64.61350Y6.81120
X67.15350Y6.81120
M30
