G04 DesignSpark PCB Gerber Version 9.0 Build 5138 *
G04 #@! TF.Part,Single*
G04 #@! TF.FileFunction,Copper,L2,Bot *
G04 #@! TF.FilePolarity,Positive *
%FSLAX35Y35*%
%MOIN*%
G04 #@! TA.AperFunction,ComponentPad*
%ADD99R,0.06000X0.06000*%
%ADD100R,0.06000X0.06000*%
G04 #@! TD.AperFunction*
%ADD25C,0.01500*%
%ADD23C,0.02520*%
G04 #@! TA.AperFunction,ComponentPad*
%ADD13R,0.06000X0.06000*%
%AMT13*0 Rounded Rectangle Pad at angle 90*4,1,8,0.03000,-0.03000,0.03000,0.03000,0.03000,0.03000,-0.03000,0.03000,-0.03000,0.03000,-0.03000,-0.03000,-0.03000,-0.03000,0.03000,-0.03000,0.03000,-0.03000,0*%
%ADD13T13*%
G04 #@! TA.AperFunction,ViaPad*
%ADD24C,0.05118*%
%ADD78C,0.05591*%
G04 #@! TA.AperFunction,ComponentPad*
%ADD82C,0.06000*%
X0Y0D02*
D02*
D13*
X20841Y118706D03*
Y128706D03*
Y138706D03*
Y148706D03*
Y158706D03*
Y168706D03*
Y178706D03*
Y188706D03*
Y198706D03*
Y208706D03*
Y218706D03*
Y228706D03*
Y238706D03*
Y248706D03*
Y258706D03*
Y268706D03*
Y278706D03*
Y288706D03*
Y298706D03*
X30841Y118706D03*
Y128706D03*
Y138706D03*
Y148706D03*
Y158706D03*
Y168706D03*
Y178706D03*
Y188706D03*
Y198706D03*
Y208706D03*
Y218706D03*
Y228706D03*
Y238706D03*
Y248706D03*
Y258706D03*
Y268706D03*
Y278706D03*
Y288706D03*
Y298706D03*
X260841Y118706D03*
Y128706D03*
Y138706D03*
Y148706D03*
Y158706D03*
Y168706D03*
Y178706D03*
Y188706D03*
Y198706D03*
Y208706D03*
Y218706D03*
Y228706D03*
Y238706D03*
Y248706D03*
Y258706D03*
Y268706D03*
Y278706D03*
Y288706D03*
Y298706D03*
X270841Y118706D03*
Y128706D03*
Y138706D03*
Y148706D03*
Y158706D03*
Y168706D03*
Y178706D03*
Y188706D03*
Y198706D03*
Y208706D03*
Y218706D03*
Y228706D03*
Y238706D03*
Y248706D03*
Y258706D03*
Y268706D03*
Y278706D03*
Y288706D03*
Y298706D03*
D02*
D23*
X19049Y19375D02*
Y33410D01*
X35289Y49650*
X64423*
X20841Y208706D02*
X30841D01*
X40801Y259099D02*
X75447D01*
X82140Y265792*
X48281Y284296D02*
Y297288D01*
X51825Y300831*
X64778*
X65171Y301225*
X61274Y145713D02*
Y151225D01*
X65604Y155556*
X99069*
X108518Y146107*
X62415Y220123D02*
X59305D01*
Y146855*
X60447Y145713*
X61274*
X65171Y301225D02*
Y307485D01*
X70722Y313036*
X170722*
X176234Y307524*
Y301580*
X175880Y301225*
X75841Y243351D02*
X62415Y229926D01*
Y220123*
X79049Y19375D02*
Y18489D01*
X83715Y13824*
X112061*
X121904Y23666*
X79049Y89375D02*
Y19375D01*
Y89375D02*
Y94985D01*
X85683Y101619*
X104817Y253587D02*
Y250202D01*
X112455Y242564*
Y220162*
X112415Y220123*
X110329Y192170D02*
Y218036D01*
X112415Y220123*
X135683*
X137652Y222091*
X115171Y301225D02*
X145880D01*
X121904Y23666D02*
X162455D01*
X162848Y23272*
X123872Y49650D02*
Y35635D01*
X121904Y33666*
X130565Y107485D02*
X162061D01*
X162848Y106698*
X143951Y42957D02*
X155132D01*
X162848Y35241*
Y33272*
X144699Y245320D02*
X143951D01*
X138045Y239414*
Y222485*
X137652Y222091*
X144699Y245320D02*
Y255517D01*
X159305Y270123*
Y270517*
X147100Y282721*
Y300005*
X145880Y301225*
X160486Y183902D02*
Y144926D01*
X161274Y144139*
X162848Y23272D02*
X183321D01*
X162848Y106698D02*
Y114611D01*
X171116Y122879*
Y134296*
X161274Y144139*
X162848Y106698D02*
X185683D01*
X174699Y245320D02*
Y263430D01*
X175880Y301225D02*
Y305595D01*
X183321Y313036*
X234108*
X239620Y307524*
Y301973*
X238872Y301225*
X201037Y23272D02*
X201825D01*
X206156Y18942*
X226510*
X234384Y26816*
X201825Y159493D02*
X199856D01*
X185683Y173666*
X170722*
X160486Y183902*
X201825Y159493D02*
Y180398D01*
X207691Y186265*
Y187013*
X229384Y208706*
X207691Y242564D02*
Y243784D01*
X198281Y253194*
Y266186*
X200250Y268154*
X208872Y301225D02*
X199856D01*
X193163Y294532*
Y275241*
X200250Y268154*
X224384Y26816D02*
Y36146D01*
X210486Y50044*
X135132*
X121904Y36816*
Y33666*
X229384Y208706D02*
X225841D01*
X207730Y226816*
Y242524*
X207691Y242564*
X237691D02*
Y234650D01*
X240407Y231934*
Y188981*
X237691Y186265*
Y242564D02*
X236864D01*
Y241776*
X238872Y301225D02*
Y297721D01*
X233715Y292564*
Y246540*
X237691Y242564*
D02*
D24*
X12061Y198706D03*
X42770Y249650D03*
X47888Y265792D03*
X56943Y266186D03*
X58911Y237839D03*
X127415Y240202D03*
X129778Y194139D03*
X135683Y173272D03*
X151825Y165792D03*
X181746Y164611D03*
X188439Y198863D03*
X221904Y258706D03*
X247888Y283902D03*
X251037Y233902D03*
X265998Y89375D03*
X279384Y238706D03*
X279778Y278706D03*
X284502Y42170D03*
D02*
D25*
X12061Y198706D02*
Y196107D01*
X14423Y193745*
X40407*
X47888Y201225*
Y226816*
X58911Y237839*
X47888Y265792D02*
Y267367D01*
X65998Y285477*
X75722*
X85171Y294926*
Y301225*
X56943Y266186D02*
X65604Y274847D01*
X64817Y253587D02*
X84344D01*
X105604Y274847*
X69049Y19375D02*
Y16284D01*
X76234Y9099*
X182533*
X192770Y19335*
Y63430*
X173872Y82328*
X130407*
X117415Y69335*
X70329Y192170D02*
X70722D01*
X87258Y208706*
X90998*
X102415Y220123*
X71274Y145713D02*
X83715D01*
X107337Y122091*
X71274Y174454D02*
Y191225D01*
X70329Y192170*
X82415Y220123D02*
Y247013D01*
X79778Y249650*
X42770*
X88833Y109099D02*
X92770D01*
X101825Y100044*
X112455*
X128970Y116560*
X138065*
Y114985*
X89049Y19375D02*
X99502D01*
X104187Y24060*
Y46107*
X127415Y69335*
X89049Y89375D02*
X265998D01*
X92415Y220123D02*
Y218587D01*
X78990Y205162*
X71116*
X64817Y198863*
Y170123*
X69541Y165398*
X119148*
X162848Y121698*
X95171Y301225D02*
Y304808D01*
X97888Y307524*
X107730*
X110093Y305162*
Y257524*
X127415Y240202*
X105171Y301225D02*
Y275280D01*
X105604Y274847*
X114837Y114591D02*
X96333D01*
X88833Y122091*
X118360Y282328D02*
Y271068D01*
X119305Y270123*
X118518Y146107D02*
Y134532D01*
X130565Y122485*
X135683Y173272D02*
Y188233D01*
X129778Y194139*
X138203Y208312D02*
Y210831D01*
X153006Y225635*
Y243627*
X154699Y245320*
X151274Y144139D02*
Y165241D01*
X151825Y165792*
X158360Y282328D02*
Y298745D01*
X155880Y301225*
X165880D02*
Y246501D01*
X164699Y245320*
X177652Y222091D02*
Y208863D01*
X178203Y208312*
X181746Y164611D02*
X185683Y160674D01*
Y121698*
X188439Y198863D02*
X165447D01*
X150486Y183902*
X189226Y223272D02*
Y208863D01*
X189384Y208706*
X193183Y114198D02*
X194325D01*
X202219Y122091*
X199620Y282328D02*
X208518D01*
X218360Y292170*
Y300713*
X218872Y301225*
X201195Y144926D02*
Y145083D01*
X215211Y159099*
Y183784*
X217691Y186265*
X202219Y106737D02*
X193951D01*
X186077Y114611*
X170762*
X170348Y114198*
X217691Y242564D02*
Y232209D01*
X226628Y223272*
X229226*
X221904Y258706D02*
Y248351D01*
X227691Y242564*
Y232839*
X235289Y225241*
Y203194*
X231746Y199650*
Y196894*
X227415Y192564*
Y186540*
X227691Y186265*
X228872Y301225D02*
Y303312D01*
X223478Y308706*
X193951*
X179384Y294139*
X172967*
X165880Y301225*
X228872D02*
Y243745D01*
X227691Y242564*
X240250Y268154D02*
Y281698D01*
X239620Y282328*
X241825Y159493D02*
Y145556D01*
X241195Y144926*
X247888Y283902D02*
Y261461D01*
X245526Y259099*
Y161225*
X243793Y159493*
X241825*
X251037Y233902D02*
Y130910D01*
X242219Y122091*
X264384Y26816D02*
X269148D01*
X284502Y42170*
X275841Y59887D02*
X243203Y26816D01*
X244384*
X279384Y238706D02*
Y113036D01*
X271904Y105556*
X243400*
X242219Y106737*
X279778Y278706D02*
Y308312D01*
X268754Y319335*
X8518*
X2612Y313430*
Y91776*
X13242Y81146*
X60821*
X69049Y89375*
X280171Y50044D02*
X256943Y26816D01*
X254384*
D02*
D78*
X40801Y259099D03*
X48281Y284296D03*
X64423Y49650D03*
X75841Y243351D03*
X82140Y265792D03*
X85683Y101619D03*
X123872Y49650D03*
X143951Y42957D03*
X174699Y263430D03*
X183321Y23272D03*
X201037D03*
X275841Y59887D03*
X280171Y50044D03*
D02*
D82*
X48833Y109099D03*
Y122091D03*
X64817Y253587D03*
X65604Y274847D03*
X70329Y192170D03*
X71274Y174454D03*
X88833Y109099D03*
Y122091D03*
X104817Y253587D03*
X105604Y274847D03*
X107337Y107091D03*
Y122091D03*
X110329Y192170D03*
X111274Y174454D03*
X114837Y114591D03*
X118360Y282328D03*
X119305Y270123D03*
X130565Y107485D03*
Y122485D03*
X137652Y222091D03*
X138065Y114985D03*
X138203Y208312D03*
X158360Y282328D03*
X159305Y270123D03*
X162848Y106698D03*
Y121698D03*
X170348Y114198D03*
X177652Y222091D03*
X178203Y208312D03*
X185683Y106698D03*
Y121698D03*
X189226Y223272D03*
X189384Y208706D03*
X193183Y114198D03*
X199620Y282328D03*
X200250Y268154D03*
X201195Y144926D03*
X201825Y159493D03*
X202219Y106737D03*
Y122091D03*
X229226Y223272D03*
X229384Y208706D03*
X239620Y282328D03*
X240250Y268154D03*
X241195Y144926D03*
X241825Y159493D03*
X242219Y106737D03*
Y122091D03*
D02*
D99*
X19049Y19375D03*
Y89375D03*
X29049Y19375D03*
Y89375D03*
X39049Y19375D03*
Y89375D03*
X49049Y19375D03*
Y89375D03*
X59049Y19375D03*
Y89375D03*
X62415Y220123D03*
X65171Y301225D03*
X69049Y19375D03*
Y89375D03*
X72415Y220123D03*
X75171Y301225D03*
X79049Y19375D03*
Y89375D03*
X82415Y220123D03*
X85171Y301225D03*
X89049Y19375D03*
Y89375D03*
X92415Y220123D03*
X95171Y301225D03*
X102415Y220123D03*
X105171Y301225D03*
X112415Y220123D03*
X115171Y301225D03*
X144699Y245320D03*
X145880Y301225D03*
X154699Y245320D03*
X155880Y301225D03*
X164699Y245320D03*
X165880Y301225D03*
X174699Y245320D03*
X175880Y301225D03*
X207691Y186265D03*
Y242564D03*
X208872Y301225D03*
X214384Y26816D03*
X217691Y186265D03*
Y242564D03*
X218872Y301225D03*
X224384Y26816D03*
X227691Y186265D03*
Y242564D03*
X228872Y301225D03*
X234384Y26816D03*
X237691Y186265D03*
Y242564D03*
X238872Y301225D03*
X244384Y26816D03*
X254384D03*
X264384D03*
D02*
D100*
X61274Y145713D03*
X71274D03*
X108518Y146107D03*
X117415Y69335D03*
X118518Y146107D03*
X121904Y23666D03*
Y33666D03*
X127415Y69335D03*
X150486Y183902D03*
X151274Y144139D03*
X160486Y183902D03*
X161274Y144139D03*
X162848Y23272D03*
Y33272D03*
X0Y0D02*
M02*
