G04 DesignSpark PCB Gerber Version 9.0 Build 5138 *
G04 #@! TF.Part,Single*
G04 #@! TF.FileFunction,Copper,L1,Top *
G04 #@! TF.FilePolarity,Positive *
%FSLAX35Y35*%
%MOIN*%
G04 #@! TA.AperFunction,ComponentPad*
%ADD29R,0.05906X0.05906*%
G04 #@! TD.AperFunction*
%ADD25C,0.01500*%
%ADD23C,0.02520*%
G04 #@! TA.AperFunction,ComponentPad*
%ADD26R,0.05906X0.05906*%
%AMT26*0 Rounded Rectangle Pad at angle 90*4,1,8,0.02953,-0.02953,0.02953,0.02953,0.02953,0.02953,-0.02953,0.02953,-0.02953,0.02953,-0.02953,-0.02953,-0.02953,-0.02953,0.02953,-0.02953,0.02953,-0.02953,0*%
%ADD26T26*%
G04 #@! TA.AperFunction,ViaPad*
%ADD106C,0.03937*%
G04 #@! TA.AperFunction,ComponentPad*
%ADD28C,0.05906*%
%ADD88C,0.09843*%
G04 #@! TA.AperFunction,WasherPad*
%ADD107C,0.13780*%
X0Y0D02*
D02*
D23*
X36510Y247809D02*
X24581D01*
X19935Y243163*
Y99463*
X32140Y87258*
X64738*
X73281Y78715*
Y77140*
X36510Y247809D02*
X34187D01*
X19148Y262848*
Y302100*
X36510Y319463*
X18754Y337219*
Y382140*
X30565Y393951*
X53006*
X58911Y388045*
X116785*
X121392Y383439*
Y382848*
X73281Y67140D02*
Y50447D01*
X100644Y23085*
X73281Y77140D02*
X102730D01*
X102809Y77061*
X74266Y78124D02*
X73281Y77140D01*
X102809Y67061D02*
Y40998D01*
X120722Y23085*
X102809Y77061D02*
X131825D01*
X132140Y77376*
X121392Y312848D02*
Y302848D01*
Y312848D02*
X124659D01*
X136864Y325053*
X160447*
X160486Y325014*
X121392Y372848D02*
X124502D01*
X130565Y366785*
Y351431*
X144344Y337652*
X147848*
X160486Y325014*
X121392Y382848D02*
X136077Y368163D01*
X136274*
X147100Y357337*
X185289*
X187258Y355368*
X196707*
X205762Y364423*
X132140Y67376D02*
Y31667D01*
X140722Y23085*
X132140Y77376D02*
X184778D01*
X239896Y22258*
X165604Y277376D02*
X164384D01*
X157730Y270722*
Y243124*
X167179Y233675*
X187691*
X211274Y210093*
X189620Y244344D02*
X187258D01*
X165604Y265998*
Y277376*
X198675Y323833D02*
Y331352D01*
X205368Y338045*
Y340407*
X206156Y341195*
X203006Y279778D02*
Y258124D01*
X214030Y373439D02*
Y363242D01*
X206156Y355368*
Y351431*
X225841Y364423D02*
Y360486D01*
X236077Y350250*
X226628Y299856D02*
X223872D01*
X217967Y305762*
X207337*
X199069Y314030*
Y323439*
X198675Y323833*
X226628Y299856D02*
Y309659D01*
X240407Y323439*
X239896Y22258D02*
Y29659D01*
X247888Y37652*
X275722*
X290683Y22691*
X259896Y22258D02*
X266037D01*
X273872Y14423*
X302415*
X310683Y22691*
X265998Y365604D02*
X275447Y375053D01*
X294305*
X295919Y373439*
X267573Y268360D02*
X273872Y262061D01*
X286470*
X271116Y410880D02*
X204600D01*
X196707Y402986*
X196313*
X274659Y230959D02*
X263242D01*
X279384Y284502D02*
Y299856D01*
X271904Y307337*
Y319935*
X268754Y323085*
X255368*
X251037Y318754*
X295919Y373439D02*
Y380959D01*
X310093Y395132*
X296313Y262061D02*
Y245132D01*
X296707Y244738*
X309896Y23478D02*
X310683Y22691D01*
X320329Y210880D02*
X316392D01*
X308911Y218360*
X320329Y210880D02*
Y210093D01*
X309305Y199069*
X355368Y177022D02*
Y161667D01*
X377415Y302612D02*
X390801D01*
X401825Y291589*
Y284738*
X402415Y284148*
D02*
D25*
X35880Y58045D02*
X13636Y80289D01*
Y386785*
X20407Y393557*
Y394423*
X23872Y397888*
X96392*
X101431Y392848*
X111392*
X35959Y98203D02*
X385211D01*
X401825Y114817*
Y195132*
X384896Y212061*
X36510Y207730D02*
X41982D01*
X49069Y214817*
Y241982*
X36510Y279384D02*
X50250D01*
X54581Y283715*
Y327022*
X36628Y405447D02*
X49148Y417967D01*
X122297*
X132140Y408124*
Y378203*
X140407Y369935*
X143557*
X149856Y363636*
X84896Y200644D02*
Y183321D01*
X90801Y425447D02*
X48675D01*
X38439Y415211*
X23872*
X8124Y399463*
Y65801*
X35880Y38045*
X93951Y148281D02*
X45762D01*
X35959Y138478*
X100644Y118478D02*
X104699D01*
X114030Y127809*
X103793Y144344D02*
X103400D01*
X90014Y130959*
X109699Y137258D02*
X117573D01*
X147494Y107337*
X257730*
X110604Y392848D02*
X111392D01*
Y222848D02*
Y183715D01*
X109699*
X111392Y232848D02*
X112927D01*
X117573Y228203*
X141982*
X153793Y216392*
X160486*
X179384Y197494*
X198675*
X111392Y322848D02*
X88596D01*
X82140Y316392*
Y294738*
X111392Y342848D02*
X82612D01*
X75447Y335683*
Y181352*
X86077Y170722*
X204974*
X111392Y392848D02*
Y393557D01*
X119463Y392848D02*
X121392D01*
Y141195D02*
X136864D01*
X138439Y142770*
X156943*
X163636Y136077*
Y130171*
X176234Y117573*
X213242*
X224266Y128596*
Y137652*
X230565Y143951*
X310486*
X318754Y135683*
X121392Y222848D02*
Y183715D01*
Y232848D02*
X143636D01*
X154581Y221904*
X165211*
X180959Y206156*
X201431*
X203006Y204581*
X121392Y242848D02*
X141116D01*
X156943Y227022*
X186470*
X208911Y204581*
X219148*
X121392Y392848D02*
Y393281D01*
X117179Y397494*
X106156*
X100250Y403400*
Y403793*
X90801Y413242*
X134108Y314817D02*
X156943D01*
X134502Y306943D02*
X138439Y310880D01*
X154974*
X161667Y304187*
X184502*
X187258Y306943*
X138045Y441589D02*
X144738Y434896D01*
X174659*
X138045Y441589D02*
Y441982D01*
X139226Y384108D02*
Y391589D01*
X197888Y450250*
X395447*
X403281Y442415*
Y440407*
X146313Y441982D02*
X164817Y460486D01*
X438045*
X454581Y443951*
Y97927*
X434069Y77415*
X147100Y305368D02*
X154581D01*
X159305Y300644*
X165211*
X173478Y292376*
Y285250*
X173104Y284876*
X147494Y282140D02*
X130683D01*
X121392Y272848*
X148281Y384108D02*
Y393951D01*
X199463Y445132*
X390407*
X402612Y432927*
X421077*
X434148Y445998*
X152573Y135565D02*
Y124699D01*
X164817Y112455*
X320329*
X332140Y124266*
Y143163*
X345526Y156549*
Y188045*
X335683Y197888*
X152612Y371116D02*
Y390407D01*
X169148Y406943*
X155368Y441195D02*
X170329Y456156D01*
X438045*
X451037Y443163*
Y114463*
X434069Y97494*
X160486Y340014D02*
X162061D01*
X167573Y345526*
X281746*
X313242Y377022*
X165211Y376628D02*
X172691D01*
X175447Y379384*
Y405762*
X184108Y414423*
X362061*
X380959Y395526*
Y346707*
X386864Y340801*
X165604Y292376D02*
Y285289D01*
X178203Y272691*
X181510*
X187258Y266943*
X172573Y135565D02*
Y143045D01*
X179384Y149856*
X254187*
X275841Y171510*
X282140*
Y171904*
X179778Y312219D02*
X189856D01*
X202219Y299856*
Y299463*
X209699Y291982*
X264817*
X270329Y297494*
X184896Y319541D02*
X149856D01*
X195644Y175447D02*
X86470D01*
X78203Y183715*
Y317179*
X93951Y332927*
X111313*
X111392Y332848*
X214030Y388439D02*
X198518D01*
X183715Y403242*
X218360Y193951D02*
X188833D01*
X174266Y179384*
X103793*
X225053Y210644D02*
Y178203D01*
X213636Y166785*
X85289*
X71510Y180565*
Y361274*
X56943Y375841*
X46313*
X36549Y385604*
X251431Y365604D02*
Y384896D01*
X254974Y388439*
X256549Y419935D02*
Y440014D01*
X264030Y336470D02*
X245132D01*
X243163Y334502*
Y327809*
X245132Y325841*
Y315447*
X261274Y299305*
X269935Y206549D02*
X269148D01*
X261274Y198675*
X232533*
X228596Y194738*
Y177415*
X213242Y162061*
X93951*
X273478Y236077D02*
X218360D01*
X273478Y256943D02*
Y250250D01*
X264817Y241589*
X208124*
X195919Y253793*
Y268360*
X185683Y278596*
X277809Y428990D02*
X359699D01*
X279778Y195526D02*
X235683D01*
Y193951*
X280959Y314187D02*
X291352D01*
X306943Y329778*
Y348675*
X284108Y424266D02*
X354187D01*
X288439Y298281D02*
X301037D01*
X312061Y309305*
Y369935*
X336470Y394344*
X349896*
X351392Y392848*
X291982Y182140D02*
Y183715D01*
X300250Y191982*
X295919Y388439D02*
Y392770D01*
X314817Y411667*
X361274*
X378203Y394738*
Y330959*
X408124Y301037*
Y235447*
X432691Y210880*
X433872*
X300250Y199463D02*
Y211274D01*
Y225447D02*
Y234896D01*
X307730Y242376*
Y278990*
X317967Y289226*
X306943Y312848D02*
Y309699D01*
X300644Y303400*
X286077*
X284896Y302219*
Y280565*
X278203Y273872*
X248281*
X225053Y250644*
X319148Y331352D02*
Y318360D01*
X319384Y223085D02*
X304581D01*
X292770Y211274*
Y200644*
X250250Y158124*
X88439*
X64817Y181746*
Y351431*
X53006Y363242*
X38911*
X36549Y365604*
X323085Y229778D02*
Y237888D01*
X318360Y242612*
X325841Y342770D02*
Y368360D01*
X333872Y176904D02*
X273754D01*
X251037Y154187*
X86864*
X60093Y180959*
Y329384*
X47494Y341982*
X40093*
X36549Y345526*
X335683Y212455D02*
X335289D01*
X325447Y222297*
Y227415*
X323085Y229778*
X341195Y299463D02*
Y292376D01*
X345526Y288045*
X356589*
X361392Y292848*
X341589Y206549D02*
X328596D01*
X317573Y195526*
X292770*
X351392Y262848D02*
X345526D01*
X338833Y256156*
Y232927*
X351392Y282848D02*
X351510D01*
X356549Y277809*
X367179*
X351392Y332848D02*
X338360D01*
X335289Y329778*
Y224659*
X364423Y195526*
Y150250*
X373085Y141589*
Y132140*
X365604Y124659*
X349856*
X338833Y135683*
X351392Y342848D02*
X335368D01*
X331352Y338833*
Y222691*
X360880Y193163*
Y137730*
X358833Y135683*
X351392Y382848D02*
X351510D01*
X356549Y377809*
X368360*
X370722Y375447*
Y194423*
X373911Y191234*
X361392Y242848D02*
Y242494D01*
X356156Y237258*
Y219935*
X351037Y214817*
X361392Y382848D02*
X368045D01*
X373872Y377022*
Y243951*
X406549Y211274*
Y64817*
X434108Y37258*
X361392Y392848D02*
X361352D01*
X356156Y387652*
X335683*
X314817Y366785*
Y307730*
X299856Y292770*
X295132*
X291589Y289226*
Y234502*
X280171Y223085*
X279384*
X373911Y191234D02*
Y176943D01*
X373872Y176904*
X377415Y277809D02*
Y244344D01*
X410486Y211274*
Y68360*
X428990Y49856*
X432533*
X443557Y38833*
Y26707*
X434108Y17258*
X377415Y277809D02*
X377809Y277415D01*
Y295132D02*
X388833D01*
X395526Y288439*
Y231746*
X413242Y214030*
Y178793*
X434069Y157967*
X381352Y228990D02*
X382140D01*
X388833Y222297*
X381746Y310093D02*
Y322691D01*
X386077Y373085D02*
X387258D01*
Y393163*
X361274Y419148*
X279778*
X265998Y432927*
Y434896*
X388045Y328203D02*
X388439D01*
X392376Y332140*
Y355368*
X390407Y284148D02*
X381313D01*
X377809Y287652*
X415998Y356549D02*
Y291628D01*
X433833Y273793*
Y271037*
X433872Y230880D02*
X421982D01*
X412848Y240014*
Y286077*
X412061Y286864*
Y343557*
X388045Y367573*
X384896*
D02*
D26*
X111392Y222848D03*
Y232848D03*
Y242848D03*
Y252848D03*
Y262848D03*
Y272848D03*
Y282848D03*
Y292848D03*
Y302848D03*
Y312848D03*
Y322848D03*
Y332848D03*
Y342848D03*
Y352848D03*
Y362848D03*
Y372848D03*
Y382848D03*
Y392848D03*
Y402848D03*
X121392Y222848D03*
Y232848D03*
Y242848D03*
Y252848D03*
Y262848D03*
Y272848D03*
Y282848D03*
Y292848D03*
Y302848D03*
Y312848D03*
Y322848D03*
Y332848D03*
Y342848D03*
Y352848D03*
Y362848D03*
Y372848D03*
Y382848D03*
Y392848D03*
Y402848D03*
X351392Y222848D03*
Y232848D03*
Y242848D03*
Y252848D03*
Y262848D03*
Y272848D03*
Y282848D03*
Y292848D03*
Y302848D03*
Y312848D03*
Y322848D03*
Y332848D03*
Y342848D03*
Y352848D03*
Y362848D03*
Y372848D03*
Y382848D03*
Y392848D03*
Y402848D03*
X361392Y222848D03*
Y232848D03*
Y242848D03*
Y252848D03*
Y262848D03*
Y272848D03*
Y282848D03*
Y292848D03*
Y302848D03*
Y312848D03*
Y322848D03*
Y332848D03*
Y342848D03*
Y352848D03*
Y362848D03*
Y372848D03*
Y382848D03*
Y392848D03*
Y402848D03*
D02*
D28*
X145919Y217337D03*
Y257337D03*
X147100Y265368D03*
Y305368D03*
X157711Y384128D03*
X160486Y325014D03*
Y340014D03*
X165211Y376628D03*
Y391628D03*
X165604Y277376D03*
Y292376D03*
X167179Y233675D03*
Y248675D03*
X167986Y332514D03*
X173104Y284876D03*
X174679Y241175D03*
X179778Y312219D03*
Y352219D03*
X183715Y363242D03*
Y403242D03*
X187258Y266943D03*
Y306943D03*
X188045Y217179D03*
Y257179D03*
X196313Y362986D03*
Y402986D03*
X198675Y323833D03*
Y338833D03*
X206175Y331333D03*
X211037Y403793D03*
X211274Y210093D03*
Y250093D03*
X212061Y259699D03*
Y299699D03*
X214030Y373439D03*
Y388439D03*
X218754Y313793D03*
Y353793D03*
X221530Y380939D03*
X225053Y210644D03*
Y250644D03*
X226628Y259856D03*
Y299856D03*
X236451Y381766D03*
X240407Y323439D03*
Y338439D03*
X243951Y374266D03*
Y389266D03*
X245919Y258675D03*
Y298675D03*
X247100Y210093D03*
Y250093D03*
X247907Y330939D03*
X251037Y403793D03*
X260880Y314187D03*
Y354187D03*
X261274Y259305D03*
Y299305D03*
X261667Y209463D03*
Y249463D03*
X265998Y365604D03*
Y405604D03*
X277022Y365368D03*
Y405368D03*
X279384Y223085D03*
Y244502D03*
Y284502D03*
X280329Y210880D03*
X281352Y324620D03*
Y339620D03*
X288852Y332120D03*
X290801Y403400D03*
X295919Y373439D03*
Y388439D03*
X296707Y244738D03*
Y284738D03*
X300644Y313400D03*
Y353400D03*
X303419Y380939D03*
X319384Y223085D03*
X320329Y210880D03*
X330801Y403400D03*
X333872Y176904D03*
X333911Y191234D03*
X373872Y176904D03*
X373911Y191234D03*
X387258Y400407D03*
Y440407D03*
X390407Y244148D03*
Y284148D03*
X402415Y244148D03*
Y284148D03*
X403281Y400407D03*
Y440407D03*
D02*
D29*
X73281Y67140D03*
Y77140D03*
X102809Y67061D03*
Y77061D03*
X132140Y67376D03*
Y77376D03*
X317967Y279226D03*
Y289226D03*
X318360Y242612D03*
Y252612D03*
D02*
D88*
X35880Y38045D03*
Y58045D03*
X35959Y78203D03*
Y98203D03*
Y118478D03*
Y138478D03*
X36510Y207730D03*
Y227809D03*
Y247809D03*
Y279384D03*
Y299463D03*
Y319463D03*
X36549Y167573D03*
Y187573D03*
Y345526D03*
Y365604D03*
Y385604D03*
X36628Y405447D03*
Y425526D03*
Y445526D03*
X100644Y23085D03*
X120722D03*
X140722D03*
X152573Y135565D03*
X172573D03*
X192376Y135644D03*
X212455D03*
X232455D03*
X239896Y22258D03*
X258636Y135644D03*
X259896Y22258D03*
X278715Y135644D03*
X290683Y22691D03*
X292848Y438045D03*
X298715Y135644D03*
X310683Y22691D03*
X312848Y438045D03*
X318754Y135683D03*
X338833D03*
X358833D03*
X433833Y251037D03*
Y271037D03*
Y291116D03*
Y311116D03*
X433872Y210880D03*
Y230880D03*
X434069Y77415D03*
Y97494D03*
Y117494D03*
Y137888D03*
Y157967D03*
Y177967D03*
X434108Y17258D03*
Y37258D03*
Y57337D03*
Y345526D03*
Y365526D03*
X434148Y385683D03*
Y405683D03*
Y425998D03*
Y445998D03*
D02*
D106*
X49069Y241982D03*
X54581Y327022D03*
X82140Y294738D03*
X84896Y183321D03*
Y200644D03*
X90014Y130959D03*
X90801Y413242D03*
Y425447D03*
X93951Y148281D03*
Y162061D03*
X100644Y118478D03*
X103793Y144344D03*
Y179384D03*
X109699Y137258D03*
Y183715D03*
X114030Y127809D03*
X121392Y141195D03*
Y183715D03*
X134108Y314817D03*
X134502Y306943D03*
X138045Y441589D03*
X139226Y384108D03*
X146313Y441982D03*
X147494Y282140D03*
X148281Y384108D03*
X149856Y319541D03*
Y363636D03*
X152612Y371116D03*
X155368Y441195D03*
X156943Y314817D03*
X169148Y406943D03*
X174659Y434896D03*
X184896Y319541D03*
X185683Y278596D03*
X189620Y244344D03*
X195644Y175447D03*
X198675Y197494D03*
X203006Y204581D03*
Y258124D03*
Y279778D03*
X204974Y170722D03*
X205762Y364423D03*
X206156Y341195D03*
Y351431D03*
X218360Y193951D03*
Y236077D03*
X219148Y204581D03*
X225841Y364423D03*
X235683Y193951D03*
X236077Y350250D03*
X251037Y318754D03*
X251431Y365604D03*
X254974Y388439D03*
X256549Y419935D03*
Y440014D03*
X257730Y107337D03*
X263242Y230959D03*
X264030Y336470D03*
X265998Y434896D03*
X267573Y268360D03*
X269935Y206549D03*
X270329Y297494D03*
X271116Y410880D03*
X273478Y236077D03*
Y256943D03*
X274659Y230959D03*
X277809Y428990D03*
X279778Y195526D03*
X280959Y314187D03*
X282140Y171904D03*
X284108Y424266D03*
X286470Y262061D03*
X288439Y298281D03*
X291982Y182140D03*
X292770Y195526D03*
X296313Y262061D03*
X300250Y191982D03*
Y199463D03*
Y211274D03*
Y225447D03*
X306943Y312848D03*
Y348675D03*
X308911Y218360D03*
X309305Y199069D03*
X310093Y395132D03*
X313242Y377022D03*
X319148Y318360D03*
Y331352D03*
X323085Y229778D03*
X325841Y342770D03*
Y368360D03*
X335683Y197888D03*
Y212455D03*
X338833Y232927D03*
X341195Y299463D03*
X341589Y206549D03*
X351037Y214817D03*
X354187Y424266D03*
X355368Y161667D03*
Y177022D03*
X359699Y428990D03*
X367179Y277809D03*
X377415D03*
Y302612D03*
X377809Y287652D03*
Y295132D03*
X381352Y228990D03*
X381746Y310093D03*
Y322691D03*
X384896Y212061D03*
Y367573D03*
X386077Y373085D03*
X386864Y340801D03*
X388045Y328203D03*
X388833Y222297D03*
X392376Y355368D03*
X415998Y356549D03*
D02*
D107*
X11274Y10486D03*
Y460486D03*
X193557Y12848D03*
X458518Y460880D03*
X460093Y8518D03*
X0Y0D02*
M02*
