G04 DesignSpark PCB Gerber Version 9.0 Build 5138 *
G04 #@! TF.Part,Single*
G04 #@! TF.FileFunction,Copper,L2,Bot *
G04 #@! TF.FilePolarity,Positive *
%FSLAX35Y35*%
%MOIN*%
G04 #@! TA.AperFunction,ComponentPad*
%ADD27R,0.05906X0.05906*%
%ADD29R,0.05906X0.05906*%
G04 #@! TD.AperFunction*
%ADD12C,0.00500*%
%ADD76C,0.01000*%
%ADD25C,0.01500*%
%ADD23C,0.02520*%
G04 #@! TA.AperFunction,ComponentPad*
%ADD26R,0.05906X0.05906*%
%AMT26*0 Rounded Rectangle Pad at angle 90*4,1,8,0.02953,-0.02953,0.02953,0.02953,0.02953,0.02953,-0.02953,0.02953,-0.02953,0.02953,-0.02953,-0.02953,-0.02953,-0.02953,0.02953,-0.02953,0.02953,-0.02953,0*%
%ADD26T26*%
G04 #@! TA.AperFunction,ViaPad*
%ADD24C,0.05118*%
G04 #@! TA.AperFunction,ComponentPad*
%ADD28C,0.05906*%
X0Y0D02*
D02*
D12*
X2719Y87472D02*
Y8418D01*
X72717*
X66953Y14182*
G75*
G02X66932Y14204I2100J2122*
G01*
X13878*
Y24546*
X15571*
Y33410*
G75*
G02X16590Y35870I3478J0*
G01*
X32830Y52110*
G75*
G02X35292Y53129I2459J-2459*
G01*
X61148*
G75*
G02X69201Y49650I3275J-3478*
G01*
G75*
G02X61148Y46172I-4778*
G01*
X36730*
X22528Y31969*
Y24546*
X74220*
Y15311*
X77464Y12068*
X181304*
X189801Y20565*
Y26616*
G75*
G02X187992Y30359I2969J3743*
G01*
G75*
G02X197547I4778*
G01*
G75*
G02X195738Y26616I-4778*
G01*
Y19339*
G75*
G02Y19337I-946J-1*
G01*
G75*
G02Y19335I-1253J0*
G01*
G75*
G02X194869Y17236I-2969J0*
G01*
X186050Y8418*
X287545*
Y38487*
G75*
G02X283954Y37424I-3044J3683*
G01*
X271247Y24717*
G75*
G02X269555Y23875I-2099J2099*
G01*
Y21644*
X239213*
Y31987*
X244135*
X271098Y59307*
G75*
G02X271063Y59887I4742J581*
G01*
G75*
G02X280618I4778*
G01*
G75*
G02X275324Y55137I-4778*
G01*
X252477Y31987*
X257916*
X275425Y49496*
G75*
G02X275394Y50044I4747J548*
G01*
G75*
G02X284949I4778*
G01*
G75*
G02X283759Y46889I-4778J0*
G01*
G75*
G02X287545Y45853I743J-4719*
G01*
Y325135*
X2719*
Y317734*
X6419Y321435*
G75*
G02X8522Y322304I2099J-2099*
G01*
X268750*
G75*
G02X270853Y321435I4J-2969*
G01*
X281877Y310411*
G75*
G02X282746Y308312I-2100J-2099*
G01*
G75*
G02Y308311I-1187J0*
G01*
G75*
G02Y308308I-929J-1*
G01*
Y282449*
G75*
G02X284555Y278706I-2969J-3743*
G01*
G75*
G02X276012Y275765I-4778*
G01*
Y274835*
G75*
G02X275356Y273706I-1300*
G01*
G75*
G02X276012Y272576I-645J-1129*
G01*
Y264835*
G75*
G02X275356Y263706I-1300*
G01*
G75*
G02X276012Y262576I-645J-1129*
G01*
Y254835*
G75*
G02X275356Y253706I-1300*
G01*
G75*
G02X276012Y252576I-645J-1129*
G01*
Y244835*
G75*
G02X275356Y243706I-1300*
G01*
G75*
G02X276012Y242576I-645J-1129*
G01*
Y242090*
G75*
G02X284161Y238706I3372J-3384*
G01*
G75*
G02X282352Y234962I-4778*
G01*
Y113036*
G75*
G02X281480Y110934I-2969*
G01*
X274006Y103460*
G75*
G02X271904Y102587I-2102J2096*
G01*
X245304*
G75*
G02X237047Y106737I-3086J4150*
G01*
G75*
G02X247071Y108524I5171*
G01*
X270674*
X276415Y114266*
Y234962*
G75*
G02X276012Y235321I2970J3744*
G01*
Y234835*
G75*
G02X275356Y233706I-1300*
G01*
G75*
G02X276012Y232576I-645J-1129*
G01*
Y224835*
G75*
G02X275356Y223706I-1300*
G01*
G75*
G02X276012Y222576I-645J-1129*
G01*
Y214835*
G75*
G02X274711Y213534I-1300*
G01*
X266970*
G75*
G02X265841Y214190J1300*
G01*
G75*
G02X265356Y213706I-1130J645*
G01*
G75*
G02X266012Y212576I-645J-1129*
G01*
Y204835*
G75*
G02X265356Y203706I-1300*
G01*
G75*
G02X265841Y203221I-645J-1130*
G01*
G75*
G02X266970Y203877I1129J-645*
G01*
X274711*
G75*
G02X276012Y202576J-1300*
G01*
Y194835*
G75*
G02X275356Y193706I-1300*
G01*
G75*
G02X276012Y192576I-645J-1129*
G01*
Y184835*
G75*
G02X275356Y183706I-1300*
G01*
G75*
G02X276012Y182576I-645J-1129*
G01*
Y174835*
G75*
G02X275356Y173706I-1300*
G01*
G75*
G02X276012Y172576I-645J-1129*
G01*
Y164835*
G75*
G02X275356Y163706I-1300*
G01*
G75*
G02X276012Y162576I-645J-1129*
G01*
Y154835*
G75*
G02X275356Y153706I-1300*
G01*
G75*
G02X276012Y152576I-645J-1129*
G01*
Y144835*
G75*
G02X275356Y143706I-1300*
G01*
G75*
G02X276012Y142576I-645J-1129*
G01*
Y134835*
G75*
G02X275356Y133706I-1300*
G01*
G75*
G02X276012Y132576I-645J-1129*
G01*
Y124835*
G75*
G02X275356Y123706I-1300*
G01*
G75*
G02X276012Y122576I-645J-1129*
G01*
Y114835*
G75*
G02X274711Y113534I-1300*
G01*
X266970*
G75*
G02X265841Y114190J1300*
G01*
G75*
G02X264711Y113534I-1129J645*
G01*
X256970*
G75*
G02X255669Y114835J1300*
G01*
Y122576*
G75*
G02X256325Y123706I1300*
G01*
G75*
G02X255669Y124835I645J1129*
G01*
Y132576*
G75*
G02X256325Y133706I1300*
G01*
G75*
G02X255669Y134835I645J1129*
G01*
Y142576*
G75*
G02X256325Y143706I1300*
G01*
G75*
G02X255669Y144835I645J1129*
G01*
Y152576*
G75*
G02X256325Y153706I1300*
G01*
G75*
G02X255669Y154835I645J1129*
G01*
Y162576*
G75*
G02X256325Y163706I1300*
G01*
G75*
G02X255669Y164835I645J1129*
G01*
Y172576*
G75*
G02X256325Y173706I1300*
G01*
G75*
G02X255669Y174835I645J1129*
G01*
Y182576*
G75*
G02X256325Y183706I1300*
G01*
G75*
G02X255669Y184835I645J1129*
G01*
Y192576*
G75*
G02X256325Y193706I1300*
G01*
G75*
G02X255669Y194835I645J1129*
G01*
Y202576*
G75*
G02X256325Y203706I1300*
G01*
G75*
G02X255669Y204835I645J1129*
G01*
Y212576*
G75*
G02X256325Y213706I1300*
G01*
G75*
G02X255669Y214835I645J1129*
G01*
Y222576*
G75*
G02X256325Y223706I1300*
G01*
G75*
G02X255669Y224835I645J1129*
G01*
Y232576*
G75*
G02X256325Y233706I1300*
G01*
G75*
G02X255801Y234264I645J1130*
G01*
G75*
G02X255815Y233902I-4763J-363*
G01*
G75*
G02X254006Y230159I-4778*
G01*
Y130914*
G75*
G02Y130911I-946J-1*
G01*
G75*
G02Y130910I-1253J0*
G01*
G75*
G02X253137Y128811I-2969J0*
G01*
X247312Y122987*
G75*
G02X247390Y122091I-5094J-894*
G01*
G75*
G02X242219Y116920I-5171*
G01*
G75*
G02X237047Y122091J5171*
G01*
G75*
G02X242219Y127263I5171*
G01*
G75*
G02X243114Y127185I1J-5172*
G01*
X248069Y132140*
Y159694*
G75*
G02X247622Y159123I-2544J1531*
G01*
X246874Y158375*
G75*
G02X244793Y155259I-5049J1118*
G01*
Y148640*
G75*
G02X241195Y139755I-3598J-3714*
G01*
G75*
G02X238856Y149538J5171*
G01*
Y155259*
G75*
G02X242557Y164612I2969J4234*
G01*
Y181093*
X218179*
Y159103*
G75*
G02Y159100I-946J-1*
G01*
G75*
G02Y159099I-1253J0*
G01*
G75*
G02X217310Y157000I-2969J0*
G01*
X206263Y145954*
G75*
G02X201195Y139755I-5068J-1028*
G01*
G75*
G02X196024Y144926J5171*
G01*
G75*
G02X201195Y150097I5171*
G01*
G75*
G02X201954Y150041I1J-5170*
G01*
X212242Y160329*
Y183784*
G75*
G02X212520Y185037I2968*
G01*
Y191436*
X224447*
Y192564*
G75*
G02X225319Y194666I2969*
G01*
X228778Y198124*
Y199646*
G75*
G02Y199649I946J2*
G01*
G75*
G02Y199650I1253J1*
G01*
G75*
G02X229647Y201750I2969J0*
G01*
X232321Y204423*
Y205699*
G75*
G02X225181Y208706I-2937J3006*
G01*
G75*
G02X232321Y211712I4203*
G01*
Y219129*
G75*
G02X224478Y221224I-3094J4143*
G01*
X215595Y230107*
G75*
G02X214722Y232209I2096J2102*
G01*
Y237393*
X212520*
Y247735*
X219000*
G75*
G02X218935Y248351I2904J616*
G01*
Y254962*
G75*
G02X217126Y258706I2969J3743*
G01*
G75*
G02X225904Y261318I4778*
G01*
Y296054*
X221329*
Y292170*
G75*
G02X220456Y290068I-2969*
G01*
X210620Y280231*
G75*
G02X208518Y279359I-2102J2096*
G01*
X203854*
G75*
G02X194449Y282328I-4234J2969*
G01*
G75*
G02X203854Y285296I5171*
G01*
X207288*
X215392Y293400*
Y296054*
X213701*
Y305737*
X195180*
X181483Y292039*
G75*
G02X179380Y291170I-2099J2099*
G01*
X172970*
G75*
G02X170867Y292039I-4J2969*
G01*
X168848Y294059*
Y250491*
X171220*
Y260155*
G75*
G02X169921Y263430I3478J3275*
G01*
G75*
G02X179476I4778*
G01*
G75*
G02X178177Y260155I-4778*
G01*
Y250491*
X179870*
Y240148*
X155974*
Y225639*
G75*
G02Y225636I-946J-1*
G01*
G75*
G02Y225635I-1253J0*
G01*
G75*
G02X155105Y223535I-2969J0*
G01*
X142601Y211031*
G75*
G02X138203Y203141I-4398J-2720*
G01*
G75*
G02X136289Y213116J5171*
G01*
X150037Y226864*
Y240148*
X149528*
Y250491*
X162911*
Y267965*
G75*
G02X155102Y270123I-3606J2158*
G01*
G75*
G02X162911Y272281I4203*
G01*
Y279872*
G75*
G02X153189Y282328I-4551J2456*
G01*
G75*
G02X155392Y286562I5171*
G01*
Y296054*
X150709*
Y306396*
X172443*
X169281Y309558*
X109895*
X112192Y307261*
G75*
G02X113049Y305428I-2099J-2099*
G01*
X119374*
Y297022*
X113061*
Y258754*
X126867Y244948*
G75*
G02X132193Y240202I548J-4746*
G01*
G75*
G02X122638I-4778*
G01*
G75*
G02X122669Y240750I4779J0*
G01*
X108920Y254499*
G75*
G02X104817Y249385I-4103J-912*
G01*
G75*
G02Y257790J4203*
G01*
G75*
G02X107158Y257078J-4203*
G01*
G75*
G02X107124Y257524I2934J447*
G01*
Y269904*
G75*
G02X104709Y269754I-1520J4944*
G01*
X86444Y251488*
G75*
G02X84341Y250619I-2099J2099*
G01*
X81825*
G75*
G02X81877Y250569I-2041J-2157*
G01*
X84515Y247931*
G75*
G02X85384Y245831I-2100J-2099*
G01*
G75*
G02Y245830I-1187J0*
G01*
G75*
G02Y245828I-929J-1*
G01*
Y225294*
X107587*
Y214952*
X101442*
X93097Y206606*
G75*
G02X90994Y205737I-2099J2099*
G01*
X88487*
X75470Y192720*
G75*
G02X75500Y192170I-5141J-552*
G01*
G75*
G02X74242Y188790I-5171*
G01*
Y178688*
G75*
G02X69565Y169572I-2969J-4234*
G01*
X70771Y168367*
X119148*
G75*
G02X121250Y167494J-2969*
G01*
X146102Y142642*
Y149310*
X148305*
Y162561*
G75*
G02X147047Y165792I3520J3231*
G01*
G75*
G02X156602I4778*
G01*
G75*
G02X154242Y161671I-4778*
G01*
Y149310*
X156445*
Y138967*
X149777*
X161953Y126791*
G75*
G02X162848Y126869I894J-5094*
G01*
G75*
G02X168020Y121698J-5171*
G01*
G75*
G02X162848Y116526I-5171*
G01*
G75*
G02X157677Y121698J5171*
G01*
G75*
G02X157755Y122593I5172J1*
G01*
X117918Y162430*
X69545*
G75*
G02X67442Y163299I-4J2969*
G01*
X62783Y167958*
Y157654*
X63145Y158015*
G75*
G02X65607Y159034I2459J-2459*
G01*
X99067*
G75*
G02X101528Y158015I2J-3478*
G01*
X108266Y151278*
X123689*
Y140936*
X121486*
Y135762*
X129670Y127578*
G75*
G02X130565Y127656I894J-5094*
G01*
G75*
G02X134807Y119528J-5171*
G01*
X135595*
G75*
G02X143236Y114985I2470J-4543*
G01*
G75*
G02X133085Y113591I-5171*
G01*
X130200*
X114554Y97945*
G75*
G02X112451Y97076I-2099J2099*
G01*
X101829*
G75*
G02X99726Y97945I-4J2969*
G01*
X92356Y105314*
G75*
G02X88833Y103928I-3524J3785*
G01*
G75*
G02X88711Y103930I7J5170*
G01*
G75*
G02X89492Y101619I-3029J-2311*
G01*
G75*
G02X81874I-3809*
G01*
G75*
G02X85220Y105400I3809*
G01*
G75*
G02X88833Y114270I3613J3700*
G01*
G75*
G02X93078Y112052J-5171*
G01*
G75*
G02X94869Y111198I-308J-2952*
G01*
X103054Y103013*
X106323*
G75*
G02X107337Y111294I1013J4079*
G01*
G75*
G02X108350Y103013J-4203*
G01*
X111225*
X126871Y118659*
G75*
G02X126978Y118760I2097J-2104*
G01*
G75*
G02X125394Y122485I3587J3725*
G01*
G75*
G02X125472Y123380I5172J1*
G01*
X116422Y132430*
G75*
G02X115549Y134532I2096J2102*
G01*
Y140936*
X103346*
Y146359*
X97628Y152078*
X67045*
X65852Y150885*
X76445*
Y148682*
X83711*
G75*
G02X85814Y147813I4J-2969*
G01*
X106441Y127185*
G75*
G02X107337Y127263I894J-5094*
G01*
G75*
G02X109828Y117560J-5171*
G01*
X110602*
G75*
G02X120008Y114591I4234J-2969*
G01*
G75*
G02X110602Y111623I-5171*
G01*
X96333*
G75*
G02X94231Y112495J2969*
G01*
X89728Y116998*
G75*
G02X88833Y116920I-894J5094*
G01*
G75*
G02X83661Y122091J5171*
G01*
G75*
G02X88833Y127263I5171*
G01*
G75*
G02X94004Y122091J-5171*
G01*
G75*
G02X93926Y121196I-5172J-1*
G01*
X97562Y117560*
X104845*
G75*
G02X102165Y122091I2491J4531*
G01*
G75*
G02X102243Y122987I5172J1*
G01*
X82485Y142745*
X76445*
Y140542*
X56102*
Y145498*
G75*
G02X55827Y146855I3203J1357*
G01*
Y220123*
G75*
G02X57244Y222925I3478*
G01*
Y225294*
X58937*
Y229926*
G75*
G02X59956Y232385I3478*
G01*
X61235Y233665*
G75*
G02X58363Y233093I-2324J4175*
G01*
X50856Y225586*
Y201225*
G75*
G02X49984Y199123I-2969*
G01*
X42509Y191649*
G75*
G02X40407Y190776I-2102J2096*
G01*
X36012*
Y184835*
G75*
G02X35356Y183706I-1300*
G01*
G75*
G02X36012Y182576I-645J-1129*
G01*
Y174835*
G75*
G02X35356Y173706I-1300*
G01*
G75*
G02X36012Y172576I-645J-1129*
G01*
Y164835*
G75*
G02X35356Y163706I-1300*
G01*
G75*
G02X36012Y162576I-645J-1129*
G01*
Y154835*
G75*
G02X35356Y153706I-1300*
G01*
G75*
G02X36012Y152576I-645J-1129*
G01*
Y144835*
G75*
G02X35356Y143706I-1300*
G01*
G75*
G02X36012Y142576I-645J-1129*
G01*
Y134835*
G75*
G02X35356Y133706I-1300*
G01*
G75*
G02X36012Y132576I-645J-1129*
G01*
Y124835*
G75*
G02X35356Y123706I-1300*
G01*
G75*
G02X36012Y122576I-645J-1129*
G01*
Y114835*
G75*
G02X34711Y113534I-1300*
G01*
X26970*
G75*
G02X25841Y114190J1300*
G01*
G75*
G02X24711Y113534I-1129J645*
G01*
X16970*
G75*
G02X15669Y114835J1300*
G01*
Y122576*
G75*
G02X16325Y123706I1300*
G01*
G75*
G02X15669Y124835I645J1129*
G01*
Y132576*
G75*
G02X16325Y133706I1300*
G01*
G75*
G02X15669Y134835I645J1129*
G01*
Y142576*
G75*
G02X16325Y143706I1300*
G01*
G75*
G02X15669Y144835I645J1129*
G01*
Y152576*
G75*
G02X16325Y153706I1300*
G01*
G75*
G02X15669Y154835I645J1129*
G01*
Y162576*
G75*
G02X16325Y163706I1300*
G01*
G75*
G02X15669Y164835I645J1129*
G01*
Y172576*
G75*
G02X16325Y173706I1300*
G01*
G75*
G02X15669Y174835I645J1129*
G01*
Y182576*
G75*
G02X16325Y183706I1300*
G01*
G75*
G02X15669Y184835I645J1129*
G01*
Y190776*
X14427*
G75*
G02X12324Y191646I-4J2969*
G01*
X9962Y194008*
G75*
G02X9442Y194710I2100J2099*
G01*
G75*
G02X7283Y198706I2619J3996*
G01*
G75*
G02X15669Y201837I4778*
G01*
Y202576*
G75*
G02X16970Y203877I1300*
G01*
X24711*
G75*
G02X26012Y202576J-1300*
G01*
Y196713*
X26638*
Y202175*
G75*
G02X27371Y202908I733*
G01*
X34310*
G75*
G02X35043Y202175J-733*
G01*
Y196713*
X39178*
X44919Y202455*
Y226812*
G75*
G02Y226815I946J2*
G01*
G75*
G02Y226816I1253J1*
G01*
G75*
G02X45789Y228915I2969J0*
G01*
X54165Y237291*
G75*
G02X54134Y237839I4747J548*
G01*
G75*
G02X63689I4778*
G01*
G75*
G02X63086Y235515I-4778J0*
G01*
X71065Y243495*
G75*
G02X71574Y245501I4776J-144*
G01*
X46513*
G75*
G02X37992Y248469I-3743J2969*
G01*
G75*
G02X46513Y251438I4778*
G01*
X60114*
G75*
G02X69051Y256556I4703J2150*
G01*
X83115*
X100511Y273952*
G75*
G02X100433Y274847I5094J894*
G01*
G75*
G02X102203Y278742I5171*
G01*
Y296054*
X88140*
Y294926*
G75*
G02X87267Y292824I-2969*
G01*
X77824Y283381*
G75*
G02X75722Y282509I-2102J2096*
G01*
X67228*
X64648Y279930*
G75*
G02X70776Y274847I956J-5082*
G01*
G75*
G02X65604Y269676I-5171*
G01*
G75*
G02X64709Y269754I-1J5172*
G01*
X61689Y266734*
G75*
G02X61720Y266186I-4747J-548*
G01*
G75*
G02X52481Y264478I-4778*
G01*
G75*
G02X43110Y265792I-4593J1314*
G01*
G75*
G02X46757Y270434I4778*
G01*
X63899Y287576*
G75*
G02X66002Y288446I2099J-2099*
G01*
X74493*
X82101Y296054*
X60000*
Y297353*
X53266*
X51760Y295847*
Y287571*
G75*
G02X53059Y284296I-3478J-3275*
G01*
G75*
G02X43504I-4778*
G01*
G75*
G02X44803Y287571I4778*
G01*
Y297288*
G75*
G02X45822Y299748I3478J0*
G01*
X49365Y303291*
G75*
G02X51827Y304310I2459J-2459*
G01*
X60000*
Y306396*
X61693*
Y307485*
G75*
G02X62712Y309944I3478J0*
G01*
X68263Y315496*
G75*
G02X69720Y316367I2460J-2459*
G01*
X9747*
X5581Y312200*
Y93006*
X13878Y84709*
Y94546*
X74220*
Y84204*
X68076*
X62920Y79047*
G75*
G02X60817Y78178I-2099J2099*
G01*
X13242*
G75*
G02X11140Y79050J2969*
G01*
X2719Y87472*
X274310Y212908D02*
G75*
G02X275043Y212175J-733D01*
G01*
Y205236*
G75*
G02X274310Y204503I-733*
G01*
X267371*
G75*
G02X266638Y205236J733*
G01*
Y212175*
G75*
G02X267371Y212908I733*
G01*
X274310*
X202219Y127263D02*
G75*
G02X207390Y122091J-5171D01*
G01*
G75*
G02X202219Y116920I-5171*
G01*
G75*
G02X201323Y116998I-1J5172*
G01*
X198352Y114026*
G75*
G02X195745Y109706I-5169J171*
G01*
X197984*
G75*
G02X207390Y106737I4234J-2969*
G01*
G75*
G02X197984Y103769I-5171*
G01*
X193955*
G75*
G02X191852Y104638I-4J2969*
G01*
X189885Y106605*
G75*
G02X181480Y106698I-4202J93*
G01*
G75*
G02X185590Y110899I4203*
G01*
X184847Y111643*
X174844*
G75*
G02X165177Y114198I-4496J2555*
G01*
G75*
G02X174261Y117580I5171*
G01*
X182555*
G75*
G02X182715Y125932I3128J4118*
G01*
Y159444*
X182294Y159865*
G75*
G02X176969Y164611I-548J4746*
G01*
G75*
G02X186524I4778*
G01*
G75*
G02X186492Y164063I-4779J0*
G01*
X187779Y162776*
G75*
G02X188652Y160674I-2096J-2102*
G01*
Y125932*
G75*
G02X187841Y116998I-2969J-4234*
G01*
G75*
G02X188176Y116710I-1765J-2387*
G01*
X188498Y116387*
G75*
G02X194977Y119048I4685J-2190*
G01*
X197125Y121196*
G75*
G02X197047Y122091I5094J894*
G01*
G75*
G02X202219Y127263I5171*
G01*
X196047Y268154D02*
G75*
G02X204453I4203D01*
G01*
G75*
G02X196047I-4203*
G01*
X203488Y190467D02*
X211894D01*
Y182062*
X203488*
Y190467*
Y246767D02*
X211894D01*
Y238361*
X203488*
Y246767*
X197622Y159493D02*
G75*
G02X206028I4203D01*
G01*
G75*
G02X197622I-4203*
G01*
X204669Y305428D02*
X213075D01*
Y297022*
X204669*
Y305428*
X192195Y213046D02*
G75*
G02X189440Y203535I-2811J-4341D01*
G01*
G75*
G02X193217Y198863I-1001J-4672*
G01*
G75*
G02X184696Y195894I-4778*
G01*
X166676*
X158887Y188105*
X164689*
Y179700*
X156283*
Y185502*
X155657Y184876*
Y178731*
X145315*
Y189074*
X151459*
X163345Y200959*
G75*
G02X165447Y201831I2102J-2096*
G01*
X184696*
G75*
G02X188345Y203640I3744J-2969*
G01*
G75*
G02X186258Y212825I1039J5066*
G01*
Y219038*
G75*
G02X189226Y228444I2969J4234*
G01*
G75*
G02X192195Y219038J-5171*
G01*
Y213046*
X157071Y148341D02*
X165476D01*
Y139936*
X157071*
Y148341*
X180620Y212883D02*
G75*
G02X178203Y203141I-2417J-4572D01*
G01*
G75*
G02X174683Y212100J5171*
G01*
Y217857*
G75*
G02X177652Y227263I2969J4234*
G01*
G75*
G02X180620Y217857J-5171*
G01*
Y212883*
X133449Y222091D02*
G75*
G02X141854I4203D01*
G01*
G75*
G02X133449I-4203*
G01*
X140496Y249522D02*
X148902D01*
Y241117*
X140496*
Y249522*
X141677Y305428D02*
X150083D01*
Y297022*
X141677*
Y305428*
X121329Y274882D02*
G75*
G02X119305Y264952I-2024J-4759D01*
G01*
G75*
G02X115392Y273503J5171*
G01*
Y278093*
G75*
G02X118360Y287499I2969J4234*
G01*
G75*
G02X121329Y278093J-5171*
G01*
Y274882*
X138652Y177016D02*
G75*
G02X140461Y173272I-2969J-3743D01*
G01*
G75*
G02X130906I-4778*
G01*
G75*
G02X132715Y177016I4778*
G01*
Y187004*
X130326Y189393*
G75*
G02X125000Y194139I-548J4746*
G01*
G75*
G02X134555I4778*
G01*
G75*
G02X134524Y193591I-4779J0*
G01*
X137782Y190332*
G75*
G02X138652Y188233I-2100J-2099*
G01*
G75*
G02Y188232I-1187J0*
G01*
G75*
G02Y188229I-929J-1*
G01*
Y177016*
X108213Y224326D02*
X116618D01*
Y215920*
X108213*
Y224326*
X111274Y179625D02*
G75*
G02X116445Y174454J-5171D01*
G01*
G75*
G02X111274Y169282I-5171*
G01*
G75*
G02X106102Y174454J5171*
G01*
G75*
G02X111274Y179625I5171*
G01*
X106126Y192170D02*
G75*
G02X114531I4203D01*
G01*
G75*
G02X106126I-4203*
G01*
X158646Y106698D02*
G75*
G02X167051I4203D01*
G01*
G75*
G02X158646I-4203*
G01*
X126362Y107485D02*
G75*
G02X134768I4203D01*
G01*
G75*
G02X126362I-4203*
G01*
X227862Y31987D02*
X229555D01*
Y21644*
X209213*
Y31987*
X220906*
Y34706*
X209045Y46566*
X147082*
G75*
G02X147226Y46436I-3132J-3609*
G01*
X155130*
G75*
G02X157591Y45417I2J-3478*
G01*
X164565Y38444*
X168020*
Y28101*
X157677*
Y35493*
X153691Y39479*
X147226*
G75*
G02X139173Y42957I-3275J3478*
G01*
G75*
G02X140819Y46566I4778*
G01*
X136573*
X127350Y37343*
Y35635*
G75*
G02X127075Y34278I-3479*
G01*
Y28495*
X116732*
Y38837*
X119073*
G75*
G02X119444Y39275I2830J-2022*
G01*
X120394Y40225*
Y46375*
G75*
G02X119094Y49650I3478J3275*
G01*
G75*
G02X128650I4778*
G01*
G75*
G02X128449Y48280I-4778J0*
G01*
X132672Y52504*
G75*
G02X135134Y53522I2459J-2459*
G01*
X190898*
G75*
G02X189801Y61661I1872J4396*
G01*
Y62200*
X172643Y79359*
X131637*
X126785Y74507*
X132587*
Y64164*
X126442*
X107156Y44878*
Y24064*
G75*
G02Y24061I-946J-1*
G01*
G75*
G02Y24060I-1253J0*
G01*
G75*
G02X106286Y21961I-2969J0*
G01*
X101601Y17276*
G75*
G02X99498Y16406I-2099J2099*
G01*
X94220*
Y14204*
X83878*
Y24546*
X94220*
Y22343*
X98272*
X101219Y25289*
Y46103*
G75*
G02Y46106I946J2*
G01*
G75*
G02Y46107I1253J1*
G01*
G75*
G02X102088Y48206I2969J0*
G01*
X118046Y64164*
X112244*
Y74507*
X118389*
X128306Y84424*
G75*
G02X130407Y85296I2102J-2096*
G01*
X173868*
G75*
G02X175971Y84427I4J-2969*
G01*
X194869Y65529*
G75*
G02X195738Y63430I-2100J-2099*
G01*
G75*
G02Y63429I-1187J0*
G01*
G75*
G02Y63426I-929J-1*
G01*
Y61661*
G75*
G02X194641Y53522I-2969J-3743*
G01*
X210484*
G75*
G02X212946Y52504I2J-3478*
G01*
X226843Y38606*
G75*
G02X227862Y36146I-2459J-2460*
G01*
Y31987*
X179512Y23272D02*
G75*
G02X187130I3809D01*
G01*
G75*
G02X179512I-3809*
G01*
X158646Y27475D02*
X167051D01*
Y19070*
X158646*
Y27475*
X117701Y27869D02*
X126106D01*
Y19463*
X117701*
Y27869*
X262255Y92343D02*
G75*
G02X270776Y89375I3743J-2969D01*
G01*
G75*
G02X262255Y86406I-4778*
G01*
X94220*
Y84204*
X83878*
Y94546*
X94220*
Y92343*
X262255*
X230181Y31019D02*
X238587D01*
Y22613*
X230181*
Y31019*
X74846Y23578D02*
X83252D01*
Y15172*
X74846*
Y23578*
Y93578D02*
X83252D01*
Y85172*
X74846*
Y93578*
X48833Y114270D02*
G75*
G02X54004Y109099J-5171D01*
G01*
G75*
G02X48833Y103928I-5171*
G01*
G75*
G02X43661Y109099J5171*
G01*
G75*
G02X48833Y114270I5171*
G01*
Y127263D02*
G75*
G02X54004Y122091J-5171D01*
G01*
G75*
G02X48833Y116920I-5171*
G01*
G75*
G02X43661Y122091J5171*
G01*
G75*
G02X48833Y127263I5171*
G01*
X78331Y265792D02*
G75*
G02X85949I3809D01*
G01*
G75*
G02X78331I-3809*
G01*
X34711Y303877D02*
G75*
G02X36012Y302576J-1300D01*
G01*
Y294835*
G75*
G02X35356Y293706I-1300*
G01*
G75*
G02X36012Y292576I-645J-1129*
G01*
Y284835*
G75*
G02X35356Y283706I-1300*
G01*
G75*
G02X36012Y282576I-645J-1129*
G01*
Y274835*
G75*
G02X34711Y273534I-1300*
G01*
X26970*
G75*
G02X25841Y274190J1300*
G01*
G75*
G02X25356Y273706I-1130J645*
G01*
G75*
G02X26012Y272576I-645J-1129*
G01*
Y264835*
G75*
G02X25356Y263706I-1300*
G01*
G75*
G02X25841Y263221I-645J-1130*
G01*
G75*
G02X26970Y263877I1129J-645*
G01*
X34711*
G75*
G02X36012Y262576J-1300*
G01*
Y254835*
G75*
G02X35356Y253706I-1300*
G01*
G75*
G02X36012Y252576I-645J-1129*
G01*
Y244835*
G75*
G02X35356Y243706I-1300*
G01*
G75*
G02X36012Y242576I-645J-1129*
G01*
Y234835*
G75*
G02X35356Y233706I-1300*
G01*
G75*
G02X36012Y232576I-645J-1129*
G01*
Y224835*
G75*
G02X35356Y223706I-1300*
G01*
G75*
G02X36012Y222576I-645J-1129*
G01*
Y214835*
G75*
G02X34711Y213534I-1300*
G01*
X26970*
G75*
G02X25841Y214190J1300*
G01*
G75*
G02X24711Y213534I-1129J645*
G01*
X16970*
G75*
G02X15669Y214835J1300*
G01*
Y222576*
G75*
G02X16325Y223706I1300*
G01*
G75*
G02X15669Y224835I645J1129*
G01*
Y232576*
G75*
G02X16325Y233706I1300*
G01*
G75*
G02X15669Y234835I645J1129*
G01*
Y242576*
G75*
G02X16325Y243706I1300*
G01*
G75*
G02X15669Y244835I645J1129*
G01*
Y252576*
G75*
G02X16325Y253706I1300*
G01*
G75*
G02X15669Y254835I645J1129*
G01*
Y262576*
G75*
G02X16325Y263706I1300*
G01*
G75*
G02X15669Y264835I645J1129*
G01*
Y272576*
G75*
G02X16325Y273706I1300*
G01*
G75*
G02X15669Y274835I645J1129*
G01*
Y282576*
G75*
G02X16325Y283706I1300*
G01*
G75*
G02X15669Y284835I645J1129*
G01*
Y292576*
G75*
G02X16325Y293706I1300*
G01*
G75*
G02X15669Y294835I645J1129*
G01*
Y302576*
G75*
G02X16970Y303877I1300*
G01*
X24711*
G75*
G02X25841Y303221J-1300*
G01*
G75*
G02X26970Y303877I1129J-645*
G01*
X34711*
X34310Y272908D02*
G75*
G02X35043Y272175J-733D01*
G01*
Y265236*
G75*
G02X34310Y264503I-733*
G01*
X27371*
G75*
G02X26638Y265236J733*
G01*
Y272175*
G75*
G02X27371Y272908I733*
G01*
X34310*
Y212908D02*
G75*
G02X35043Y212175J-733D01*
G01*
Y205236*
G75*
G02X34310Y204503I-733*
G01*
X27371*
G75*
G02X26638Y205236J733*
G01*
Y212175*
G75*
G02X27371Y212908I733*
G01*
X34310*
X24310D02*
G75*
G02X25043Y212175J-733D01*
G01*
Y205236*
G75*
G02X24310Y204503I-733*
G01*
X17371*
G75*
G02X16638Y205236J733*
G01*
Y212175*
G75*
G02X17371Y212908I733*
G01*
X24310*
X36992Y259099D02*
G75*
G02X44610I3809D01*
G01*
G75*
G02X36992I-3809*
G01*
X197228Y23272D02*
G75*
G02X204846I3809D01*
G01*
G75*
G02X197228I-3809*
G01*
X2969D02*
G36*
Y8668D01*
X72467*
X66953Y14182*
X66932Y14204*
X13878*
Y23272*
X2969*
G37*
X74220D02*
G36*
Y15311D01*
X77464Y12068*
X181304*
X189801Y20565*
Y23272*
X187130*
G75*
G02X179512I-3809*
G01*
X167051*
Y19070*
X158646*
Y23272*
X126106*
Y19463*
X117701*
Y23272*
X107049*
G75*
G02X106286Y21961I-2863J787*
G01*
X101601Y17276*
G75*
G02X99498Y16406I-2099J2100*
G01*
X94220*
Y14204*
X83878*
Y23272*
X83252*
Y15172*
X74846*
Y23272*
X74220*
G37*
X94220D02*
G36*
Y22343D01*
X98272*
X99202Y23272*
X94220*
G37*
X194869Y17236D02*
G36*
X186300Y8668D01*
X287295*
Y23272*
X269555*
Y21644*
X239213*
Y23272*
X238587*
Y22613*
X230181*
Y23272*
X229555*
Y21644*
X209213*
Y23272*
X204846*
G75*
G02X197228I-3809*
G01*
X195738*
Y19339*
Y19337*
Y19335*
G75*
G02X194869Y17236I-2969*
G01*
G37*
X2969Y49750D02*
G36*
Y23272D01*
X13878*
Y24546*
X15571*
Y33410*
G75*
G02X16590Y35870I3480J-1*
G01*
X30470Y49750*
X2969*
G37*
X22528Y31969D02*
G36*
Y24546D01*
X74220*
Y23272*
X74846*
Y23578*
X83252*
Y23272*
X83878*
Y24546*
X94220*
Y23272*
X99202*
X101219Y25289*
Y46103*
Y46106*
Y46107*
G75*
G02X102088Y48206I2969*
G01*
X103631Y49750*
X69200*
G75*
G02X69201Y49650I-4780J-107*
G01*
G75*
G02X61148Y46172I-4778*
G01*
X36730*
X22528Y31969*
G37*
X107156Y24061D02*
G36*
Y24060D01*
G75*
G02X107049Y23272I-2969*
G01*
X117701*
Y27869*
X126106*
Y23272*
X158646*
Y27475*
X167051*
Y23272*
X179512*
G75*
G02X187130I3809*
G01*
X189801*
Y26616*
G75*
G02X187992Y30359I2969J3743*
G01*
G75*
G02X197547I4778*
G01*
G75*
G02X195738Y26616I-4778*
G01*
Y23272*
X197228*
G75*
G02X204846I3809*
G01*
X209213*
Y31987*
X220906*
Y34706*
X209045Y46566*
X147082*
G75*
G02X147226Y46436I-3139J-3617*
G01*
X155130*
G75*
G02X157591Y45417I1J-3481*
G01*
X164565Y38444*
X168020*
Y28101*
X157677*
Y35493*
X153691Y39479*
X147226*
G75*
G02X139173Y42957I-3275J3478*
G01*
G75*
G02X140819Y46566I4779J0*
G01*
X136573*
X127350Y37343*
Y35635*
G75*
G02X127075Y34278I-3482J1*
G01*
Y28495*
X116732*
Y38837*
X119073*
G75*
G02X119444Y39275I2854J-2042*
G01*
X120394Y40225*
Y46375*
G75*
G02X119094Y49650I3478J3275*
G01*
Y49650*
G75*
G02X119096Y49750I4781J-7*
G01*
X112028*
X107156Y44878*
Y24064*
Y24061*
G37*
X128648Y49750D02*
G36*
G75*
G02X128650Y49650I-4780J-107D01*
G01*
Y49650*
G75*
G02X128449Y48280I-4772*
G01*
X129918Y49750*
X128648*
G37*
X215700D02*
G36*
X226843Y38606D01*
G75*
G02X227862Y36146I-2461J-2460*
G01*
Y31987*
X229555*
Y23272*
X230181*
Y31019*
X238587*
Y23272*
X239213*
Y31987*
X244135*
X261666Y49750*
X215700*
G37*
X252477Y31987D02*
G36*
X257916D01*
X275425Y49496*
G75*
G02X275403Y49750I4751J548*
G01*
X270007*
X252477Y31987*
G37*
X269555Y23875D02*
G36*
Y23272D01*
X287295*
Y38294*
G75*
G02X283954Y37424I-2793J3874*
G01*
X271247Y24717*
G75*
G02X269555Y23875I-2101J2102*
G01*
G37*
X284940Y49750D02*
G36*
G75*
G02X283759Y46889I-4767J294D01*
G01*
G75*
G02X287295Y46046I743J-4718*
G01*
Y49750*
X284940*
G37*
X2969Y87222D02*
G36*
Y49750D01*
X30470*
X32830Y52110*
G75*
G02X35292Y53129I2461J-2462*
G01*
X61148*
G75*
G02X69200Y49750I3275J-3478*
G01*
X103631*
X118046Y64164*
X112244*
Y74507*
X118389*
X128306Y84424*
G75*
G02X130407Y85296I2102J-2096*
G01*
X173868*
G75*
G02X175971Y84427I4J-2970*
G01*
X194869Y65529*
G75*
G02X195738Y63430I-2100J-2099*
G01*
Y63429*
Y63426*
Y61661*
G75*
G02X197547Y57918I-2969J-3743*
G01*
G75*
G02X194641Y53522I-4778*
G01*
X210484*
G75*
G02X212946Y52504I1J-3481*
G01*
X215700Y49750*
X261666*
X271098Y59307*
G75*
G02X271063Y59887I4817J585*
G01*
G75*
G02X280618I4778*
G01*
Y59886*
G75*
G02X275324Y55137I-4777*
G01*
X270007Y49750*
X275403*
G75*
G02X275394Y50044I4775J294*
G01*
G75*
G02X284949I4778*
G01*
G75*
G02Y50043I-4511J0*
G01*
G75*
G02X284940Y49750I-4778J0*
G01*
X287295*
Y89375*
X270776*
G75*
G02X262255Y86406I-4778J0*
G01*
X94220*
Y84204*
X83878*
Y89375*
X83252*
Y85172*
X74846*
Y89375*
X74220*
Y84204*
X68076*
X62920Y79047*
G75*
G02X60817Y78178I-2099J2100*
G01*
X13242*
G75*
G02X11140Y79050I0J2969*
G01*
X2969Y87222*
G37*
X9212Y89375D02*
G36*
X13878Y84709D01*
Y89375*
X9212*
G37*
X112028Y49750D02*
G36*
X119096D01*
G75*
G02X128648I4776J-99*
G01*
X129918*
X132672Y52504*
G75*
G02X135134Y53522I2461J-2462*
G01*
X190898*
G75*
G02X187992Y57918I1872J4396*
G01*
G75*
G02X189801Y61661I4778*
G01*
Y62200*
X172643Y79359*
X131637*
X126785Y74507*
X132587*
Y64164*
X126442*
X112028Y49750*
G37*
X5581Y106698D02*
G36*
Y93006D01*
X9212Y89375*
X13878*
Y94546*
X74220*
Y89375*
X74846*
Y93578*
X83252*
Y89375*
X83878*
Y94546*
X94220*
Y92343*
X262255*
G75*
G02X270776Y89375I3743J-2969*
G01*
X287295*
Y106698*
X277243*
X274006Y103460*
G75*
G02X271904Y102587I-2102J2096*
G01*
X245304*
G75*
G02X237047Y106698I-3086J4150*
G01*
X207390*
G75*
G02X197984Y103769I-5171J39*
G01*
X193955*
G75*
G02X191852Y104638I-4J2970*
G01*
X189885Y106605*
G75*
G02X181480Y106698I-4202J93*
G01*
X167051*
G75*
G02X158646I-4203*
G01*
X134693*
G75*
G02X126437I-4128J787*
G01*
X123306*
X114554Y97945*
G75*
G02X112451Y97076I-2099J2100*
G01*
X101829*
G75*
G02X99726Y97945I-4J2970*
G01*
X92356Y105314*
G75*
G02X88833Y103928I-3524J3785*
G01*
G75*
G02X88711Y103930J4673*
G01*
G75*
G02X89492Y101619I-3029J-2311*
G01*
G75*
G02X81874I-3809*
G01*
G75*
G02X85220Y105400I3810J-1*
G01*
G75*
G02X84253Y106698I3613J3700*
G01*
X53413*
G75*
G02X48833Y103928I-4580J2402*
G01*
G75*
G02X44253Y106698I0J5171*
G01*
X5581*
G37*
X99369D02*
G36*
X103054Y103013D01*
X106323*
G75*
G02X103152Y106698I1013J4079*
G01*
X99369*
G37*
X108350Y103013D02*
G36*
X111225D01*
X114910Y106698*
X111521*
G75*
G02X108350Y103013I-4184J394*
G01*
G37*
X5581Y122091D02*
G36*
Y106698D01*
X44253*
G75*
G02X43661Y109099I4580J2401*
G01*
Y109099*
Y109100*
G75*
G02X48833Y114270I5171*
G01*
G75*
G02X54004Y109100J-5171*
G01*
Y109099*
Y109099*
G75*
G02X53413Y106698I-5171*
G01*
X84253*
G75*
G02X83661Y109099I4579J2401*
G01*
G75*
G02X88833Y114270I5171*
G01*
G75*
G02X93078Y112052J-5171*
G01*
G75*
G02X94869Y111198I-307J-2951*
G01*
X99369Y106698*
X103152*
G75*
G02X103134Y107091I4184J394*
G01*
G75*
G02X107337Y111294I4203*
G01*
G75*
G02X111539Y107091J-4203*
G01*
G75*
G02X111521Y106698I-4203J0*
G01*
X114910*
X126871Y118659*
G75*
G02X126978Y118760I2281J-2298*
G01*
G75*
G02X125409Y122091I3587J3725*
G01*
X112508*
G75*
G02X109828Y117560I-5171*
G01*
X110602*
G75*
G02X120008Y114591I4234J-2969*
G01*
G75*
G02X110602Y111623I-5171*
G01*
X96333*
G75*
G02X94231Y112495I0J2969*
G01*
X89728Y116998*
G75*
G02X88833Y116920I-899J5147*
G01*
G75*
G02X83661Y122091J5171*
G01*
Y122091*
X54004*
Y122091*
G75*
G02X48833Y116920I-5171*
G01*
G75*
G02X43661Y122091J5171*
G01*
Y122091*
X36012*
Y114835*
Y114834*
G75*
G02X34711Y113534I-1300*
G01*
X26970*
G75*
G02X25841Y114190I0J1300*
G01*
G75*
G02X24711Y113534I-1130J646*
G01*
X16970*
G75*
G02X15669Y114834J1300*
G01*
Y114835*
Y122091*
X5581*
G37*
X94004D02*
G36*
G75*
G02X93926Y121196I-5225J4D01*
G01*
X97562Y117560*
X104845*
G75*
G02X102165Y122091I2491J4531*
G01*
X94004*
G37*
X123306Y106698D02*
G36*
X126437D01*
G75*
G02X126362Y107485I4128J787*
G01*
G75*
G02X134768I4203*
G01*
G75*
G02X134693Y106698I-4203*
G01*
X158646*
G75*
G02X167051I4203*
G01*
X181480*
G75*
G02X185590Y110899I4203J0*
G01*
X184847Y111643*
X174844*
G75*
G02X165177Y114198I-4496J2555*
G01*
Y114198*
G75*
G02X174261Y117580I5171*
G01*
X182555*
G75*
G02X180512Y121698I3128J4118*
G01*
G75*
G02X180527Y122091I5170J1*
G01*
X168005*
G75*
G02X168020Y121698I-5154J-393*
G01*
Y121698*
Y121697*
G75*
G02X162848Y116526I-5171*
G01*
G75*
G02X157677Y121697J5171*
G01*
Y121698*
G75*
G02X157692Y122091I5226J-2*
G01*
X135721*
G75*
G02X134807Y119528I-5156J394*
G01*
X135595*
G75*
G02X143236Y114985I2470J-4543*
G01*
G75*
G02X133085Y113591I-5171*
G01*
X130200*
X123306Y106698*
G37*
X187841Y116998D02*
G36*
G75*
G02X188176Y116710I-1731J-2348D01*
G01*
X188498Y116387*
G75*
G02X194977Y119048I4685J-2190*
G01*
X197125Y121196*
G75*
G02X197047Y122091I5147J899*
G01*
X190839*
G75*
G02X190854Y121698I-5157J-393*
G01*
G75*
G02X187841Y116998I-5171*
G01*
G37*
X195745Y109706D02*
G36*
X197984D01*
G75*
G02X207390Y106737I4234J-2969*
G01*
G75*
G02Y106698I-5185J-20*
G01*
X237047*
G75*
G02Y106737I5174J20*
G01*
G75*
G02X247071Y108524I5171*
G01*
X270674*
X276415Y114266*
Y122091*
X276012*
Y114835*
Y114834*
G75*
G02X274711Y113534I-1300*
G01*
X266970*
G75*
G02X265841Y114190I0J1300*
G01*
G75*
G02X264711Y113534I-1130J646*
G01*
X256970*
G75*
G02X255669Y114834J1300*
G01*
Y114835*
Y122091*
X247390*
Y122091*
G75*
G02X242219Y116920I-5171*
G01*
G75*
G02X237047Y122091J5171*
G01*
Y122091*
X207390*
Y122091*
G75*
G02X202219Y116920I-5171*
G01*
G75*
G02X201323Y116998I4J5225*
G01*
X198352Y114026*
G75*
G02X195745Y109706I-5169J171*
G01*
G37*
X281480Y110934D02*
G36*
X277243Y106698D01*
X287295*
Y122091*
X282352*
Y113036*
G75*
G02X281480Y110934I-2969J0*
G01*
G37*
X5581Y135477D02*
G36*
Y122091D01*
X15669*
Y122576*
Y122577*
G75*
G02X16325Y123706I1300*
G01*
G75*
G02X15669Y124835I646J1130*
G01*
Y132576*
Y132577*
G75*
G02X16325Y133706I1300*
G01*
G75*
G02X15669Y134835I646J1130*
G01*
Y135477*
X5581*
G37*
X36012Y122576D02*
G36*
Y122091D01*
X43661*
Y122092*
G75*
G02X48833Y127263I5171*
G01*
G75*
G02X54004Y122092J-5171*
G01*
Y122091*
X83661*
Y122092*
G75*
G02X88833Y127263I5171*
G01*
G75*
G02X94004Y122092J-5171*
G01*
Y122091*
X102165*
G75*
G02X102243Y122987I5225J-4*
G01*
X89753Y135477*
X36012*
Y134835*
Y134834*
G75*
G02X35356Y133706I-1300*
G01*
G75*
G02X36012Y132576I-646J-1130*
G01*
Y124835*
Y124834*
G75*
G02X35356Y123706I-1300*
G01*
G75*
G02X36012Y122576I-646J-1130*
G01*
G37*
X98149Y135477D02*
G36*
X106441Y127185D01*
G75*
G02X107337Y127263I899J-5147*
G01*
G75*
G02X112508Y122091J-5171*
G01*
X125409*
G75*
G02X125394Y122485I5157J393*
G01*
G75*
G02X125472Y123380I5225J-4*
G01*
X116422Y132430*
G75*
G02X115549Y134532I2096J2102*
G01*
Y135477*
X98149*
G37*
X121771D02*
G36*
X129670Y127578D01*
G75*
G02X130565Y127656I899J-5147*
G01*
G75*
G02X135736Y122485J-5171*
G01*
G75*
G02X135721Y122091I-5172J-1*
G01*
X157692*
G75*
G02X157755Y122593I5211J-400*
G01*
X144871Y135477*
X121771*
G37*
X153267D02*
G36*
X161953Y126791D01*
G75*
G02X162848Y126869I899J-5147*
G01*
G75*
G02X168005Y122091I0J-5171*
G01*
X180527*
G75*
G02X182715Y125932I5156J-394*
G01*
Y135477*
X153267*
G37*
X188652D02*
G36*
Y125932D01*
G75*
G02X190839Y122091I-2969J-4234*
G01*
X197047*
Y122092*
G75*
G02X202219Y127263I5171*
G01*
G75*
G02X207390Y122092J-5171*
G01*
Y122091*
X237047*
Y122092*
G75*
G02X242219Y127263I5171*
G01*
G75*
G02X243114Y127185I-4J-5225*
G01*
X248069Y132140*
Y135477*
X188652*
G37*
X247312Y122987D02*
G36*
G75*
G02X247390Y122091I-5147J-899D01*
G01*
X255669*
Y122576*
Y122577*
G75*
G02X256325Y123706I1300*
G01*
G75*
G02X255669Y124835I646J1130*
G01*
Y132576*
Y132577*
G75*
G02X256325Y133706I1300*
G01*
G75*
G02X255669Y134835I646J1130*
G01*
Y135477*
X254006*
Y130914*
Y130911*
Y130910*
G75*
G02X253137Y128811I-2969*
G01*
X247312Y122987*
G37*
X276012Y122576D02*
G36*
Y122091D01*
X276415*
Y135477*
X276012*
Y134835*
Y134834*
G75*
G02X275356Y133706I-1300*
G01*
G75*
G02X276012Y132576I-646J-1130*
G01*
Y124835*
Y124834*
G75*
G02X275356Y123706I-1300*
G01*
G75*
G02X276012Y122576I-646J-1130*
G01*
G37*
X282352Y135477D02*
G36*
Y122091D01*
X287295*
Y135477*
X282352*
G37*
X5581Y144139D02*
G36*
Y135477D01*
X15669*
Y142576*
Y142577*
G75*
G02X16325Y143706I1300*
G01*
G75*
G02X15872Y144139I646J1130*
G01*
X5581*
G37*
X35810D02*
G36*
G75*
G02X35356Y143706I-1098J695D01*
G01*
G75*
G02X36012Y142576I-646J-1130*
G01*
Y135477*
X89753*
X82485Y142745*
X76445*
Y140542*
X56102*
Y144139*
X35810*
G37*
X89488D02*
G36*
X98149Y135477D01*
X115549*
Y140936*
X103346*
Y144139*
X89488*
G37*
X121486Y140936D02*
G36*
Y135762D01*
X121771Y135477*
X144871*
X136209Y144139*
X123689*
Y140936*
X121486*
G37*
X144606Y144139D02*
G36*
X146102Y142642D01*
Y144139*
X144606*
G37*
X149777Y138967D02*
G36*
X153267Y135477D01*
X182715*
Y144139*
X165476*
Y139936*
X157071*
Y144139*
X156445*
Y138967*
X149777*
G37*
X188652Y144139D02*
G36*
Y135477D01*
X248069*
Y144139*
X246306*
G75*
G02X241195Y139755I-5111J787*
G01*
G75*
G02X236084Y144139J5171*
G01*
X206306*
G75*
G02X201195Y139755I-5111J787*
G01*
G75*
G02X196084Y144139I0J5171*
G01*
X188652*
G37*
X254006D02*
G36*
Y135477D01*
X255669*
Y142576*
Y142577*
G75*
G02X256325Y143706I1300*
G01*
G75*
G02X255872Y144139I646J1130*
G01*
X254006*
G37*
X275810D02*
G36*
G75*
G02X275356Y143706I-1098J695D01*
G01*
G75*
G02X276012Y142576I-646J-1130*
G01*
Y135477*
X276415*
Y144139*
X275810*
G37*
X282352D02*
G36*
Y135477D01*
X287295*
Y144139*
X282352*
G37*
X5581Y159493D02*
G36*
Y144139D01*
X15872*
G75*
G02X15669Y144835I1099J697*
G01*
Y152576*
Y152577*
G75*
G02X16325Y153706I1300*
G01*
G75*
G02X15669Y154835I646J1130*
G01*
Y159493*
X5581*
G37*
X36012Y152576D02*
G36*
Y144835D01*
Y144834*
G75*
G02X35810Y144139I-1300*
G01*
X56102*
Y145498*
G75*
G02X55827Y146855I3207J1358*
G01*
Y159493*
X36012*
Y154835*
Y154834*
G75*
G02X35356Y153706I-1300*
G01*
G75*
G02X36012Y152576I-646J-1130*
G01*
G37*
X62783Y159493D02*
G36*
Y157654D01*
X63145Y158015*
G75*
G02X65607Y159034I2461J-2462*
G01*
X99067*
G75*
G02X101528Y158015I1J-3481*
G01*
X108266Y151278*
X123689*
Y144139*
X136209*
X120855Y159493*
X62783*
G37*
X67045Y152078D02*
G36*
X65852Y150885D01*
X76445*
Y148682*
X83711*
G75*
G02X85814Y147813I4J-2970*
G01*
X89488Y144139*
X103346*
Y146359*
X97628Y152078*
X67045*
G37*
X129251Y159493D02*
G36*
X144606Y144139D01*
X146102*
Y149310*
X148305*
Y159493*
X129251*
G37*
X154242D02*
G36*
Y149310D01*
X156445*
Y144139*
X157071*
Y148341*
X165476*
Y144139*
X182715*
Y159444*
X182666Y159493*
X154242*
G37*
X188652D02*
G36*
Y144139D01*
X196084*
G75*
G02X196024Y144926I5110J787*
G01*
Y144926*
Y144926*
G75*
G02X201195Y150097I5171*
G01*
G75*
G02X201954Y150041I6J-5109*
G01*
X211406Y159493*
X206028*
G75*
G02X197622I-4203*
G01*
X188652*
G37*
X206366Y144926D02*
G36*
G75*
G02X206306Y144139I-5172J0D01*
G01*
X236084*
G75*
G02X236024Y144926I5112J787*
G01*
G75*
G02X238856Y149538I5171*
G01*
Y155259*
G75*
G02X236654Y159493I2969J4234*
G01*
Y159493*
X218179*
Y159103*
Y159100*
Y159099*
G75*
G02X217310Y157000I-2969*
G01*
X206263Y145954*
G75*
G02X206366Y144926I-5068J-1028*
G01*
G37*
X244793Y155259D02*
G36*
Y148640D01*
G75*
G02X246366Y144926I-3598J-3714*
G01*
G75*
G02X246306Y144139I-5171J0*
G01*
X248069*
Y159493*
X247936*
G75*
G02X247622Y159123I-2435J1752*
G01*
X246874Y158375*
G75*
G02X244793Y155259I-5049J1119*
G01*
G37*
X254006Y159493D02*
G36*
Y144139D01*
X255872*
G75*
G02X255669Y144835I1099J697*
G01*
Y152576*
Y152577*
G75*
G02X256325Y153706I1300*
G01*
G75*
G02X255669Y154835I646J1130*
G01*
Y159493*
X254006*
G37*
X276012Y152576D02*
G36*
Y144835D01*
Y144834*
G75*
G02X275810Y144139I-1300*
G01*
X276415*
Y159493*
X276012*
Y154835*
Y154834*
G75*
G02X275356Y153706I-1300*
G01*
G75*
G02X276012Y152576I-646J-1130*
G01*
G37*
X282352Y159493D02*
G36*
Y144139D01*
X287295*
Y159493*
X282352*
G37*
X5581Y174454D02*
G36*
Y159493D01*
X15669*
Y162576*
Y162577*
G75*
G02X16325Y163706I1300*
G01*
G75*
G02X15669Y164835I646J1130*
G01*
Y172576*
Y172577*
G75*
G02X16325Y173706I1300*
G01*
G75*
G02X15727Y174454I646J1130*
G01*
X5581*
G37*
X35955D02*
G36*
G75*
G02X35356Y173706I-1243J381D01*
G01*
G75*
G02X36012Y172576I-646J-1130*
G01*
Y164835*
Y164834*
G75*
G02X35356Y163706I-1300*
G01*
G75*
G02X36012Y162576I-646J-1130*
G01*
Y159493*
X55827*
Y174454*
X35955*
G37*
X62783Y167958D02*
G36*
Y159493D01*
X120855*
X117918Y162430*
X69545*
G75*
G02X67442Y163299I-4J2970*
G01*
X62783Y167958*
G37*
X69565Y169572D02*
G36*
X70771Y168367D01*
X119148*
G75*
G02X121250Y167494I0J-2969*
G01*
X129251Y159493*
X148305*
Y162561*
G75*
G02X147047Y165792I3520J3231*
G01*
G75*
G02X156602I4778*
G01*
G75*
G02X154242Y161671I-4778J0*
G01*
Y159493*
X182666*
X182294Y159865*
G75*
G02X176969Y164611I-548J4746*
G01*
G75*
G02X186524I4778*
G01*
G75*
G02X186492Y164063I-4783*
G01*
X187779Y162776*
G75*
G02X188652Y160674I-2096J-2102*
G01*
Y159493*
X197622*
G75*
G02X206028I4203*
G01*
X211406*
X212242Y160329*
Y174454*
X140312*
G75*
G02X140461Y173272I-4629J-1181*
G01*
G75*
G02X130906I-4778*
G01*
G75*
G02X131054Y174454I4778J0*
G01*
X116445*
Y174453*
G75*
G02X111274Y169282I-5171*
G01*
G75*
G02X106102Y174453J5171*
G01*
Y174454*
X76444*
G75*
G02X69565Y169572I-5171*
G01*
G37*
X218179Y174454D02*
G36*
Y159493D01*
X236654*
G75*
G02X242557Y164612I5172J0*
G01*
Y174454*
X218179*
G37*
X247936Y159493D02*
G36*
X248069D01*
Y159694*
G75*
G02X247936Y159493I-2569J1551*
G01*
G37*
X254006Y174454D02*
G36*
Y159493D01*
X255669*
Y162576*
Y162577*
G75*
G02X256325Y163706I1300*
G01*
G75*
G02X255669Y164835I646J1130*
G01*
Y172576*
Y172577*
G75*
G02X256325Y173706I1300*
G01*
G75*
G02X255727Y174454I646J1130*
G01*
X254006*
G37*
X275955D02*
G36*
G75*
G02X275356Y173706I-1243J381D01*
G01*
G75*
G02X276012Y172576I-646J-1130*
G01*
Y164835*
Y164834*
G75*
G02X275356Y163706I-1300*
G01*
G75*
G02X276012Y162576I-646J-1130*
G01*
Y159493*
X276415*
Y174454*
X275955*
G37*
X282352D02*
G36*
Y159493D01*
X287295*
Y174454*
X282352*
G37*
X5581Y186265D02*
G36*
Y174454D01*
X15727*
G75*
G02X15669Y174835I1244J383*
G01*
Y182576*
Y182577*
G75*
G02X16325Y183706I1300*
G01*
G75*
G02X15669Y184835I646J1130*
G01*
Y186265*
X5581*
G37*
X36012Y182576D02*
G36*
Y174835D01*
Y174834*
G75*
G02X35955Y174454I-1300J0*
G01*
X55827*
Y186265*
X36012*
Y184835*
Y184834*
G75*
G02X35356Y183706I-1300*
G01*
G75*
G02X36012Y182576I-646J-1130*
G01*
G37*
X74242Y186265D02*
G36*
Y178688D01*
G75*
G02X76444Y174454I-2969J-4234*
G01*
X106102*
Y174454*
G75*
G02X111274Y179625I5171*
G01*
G75*
G02X116445Y174454J-5171*
G01*
Y174454*
X131054*
G75*
G02X132715Y177016I4629J-1181*
G01*
Y186265*
X74242*
G37*
X138652D02*
G36*
Y177016D01*
G75*
G02X140312Y174454I-2969J-3743*
G01*
X212242*
Y183784*
G75*
G02Y183785I2942J1*
G01*
G75*
G02X212520Y185037I2963*
G01*
Y186265*
X211894*
Y182062*
X203488*
Y186265*
X164689*
Y179700*
X156283*
Y185502*
X155657Y184876*
Y178731*
X145315*
Y186265*
X138652*
G37*
X218179Y181093D02*
G36*
Y174454D01*
X242557*
Y181093*
X218179*
G37*
X254006Y186265D02*
G36*
Y174454D01*
X255727*
G75*
G02X255669Y174835I1244J383*
G01*
Y182576*
Y182577*
G75*
G02X256325Y183706I1300*
G01*
G75*
G02X255669Y184835I646J1130*
G01*
Y186265*
X254006*
G37*
X276012Y182576D02*
G36*
Y174835D01*
Y174834*
G75*
G02X275955Y174454I-1300J0*
G01*
X276415*
Y186265*
X276012*
Y184835*
Y184834*
G75*
G02X275356Y183706I-1300*
G01*
G75*
G02X276012Y182576I-646J-1130*
G01*
G37*
X282352Y186265D02*
G36*
Y174454D01*
X287295*
Y186265*
X282352*
G37*
X5581Y192170D02*
G36*
Y186265D01*
X15669*
Y190776*
X14427*
G75*
G02X12324Y191646I-4J2970*
G01*
X11800Y192170*
X5581*
G37*
X36012Y190776D02*
G36*
Y186265D01*
X55827*
Y192170*
X43031*
X42509Y191649*
G75*
G02X40407Y190776I-2102J2096*
G01*
X36012*
G37*
X74242Y188790D02*
G36*
Y186265D01*
X132715*
Y187004*
X130326Y189393*
G75*
G02X125424Y192170I-548J4746*
G01*
X114531*
G75*
G02X106126I-4203*
G01*
X75500*
G75*
G02X74242Y188790I-5172J0*
G01*
G37*
X135944Y192170D02*
G36*
X137782Y190332D01*
G75*
G02X138652Y188233I-2100J-2099*
G01*
Y188232*
Y188229*
Y186265*
X145315*
Y189074*
X151459*
X154556Y192170*
X135944*
G37*
X162952D02*
G36*
X158887Y188105D01*
X164689*
Y186265*
X203488*
Y190467*
X211894*
Y186265*
X212520*
Y191436*
X224447*
Y192170*
X162952*
G37*
X254006D02*
G36*
Y186265D01*
X255669*
Y192170*
X254006*
G37*
X276012D02*
G36*
Y186265D01*
X276415*
Y192170*
X276012*
G37*
X282352D02*
G36*
Y186265D01*
X287295*
Y192170*
X282352*
G37*
X5581Y208706D02*
G36*
Y192170D01*
X11800*
X9962Y194008*
G75*
G02X9442Y194710I2116J2111*
G01*
G75*
G02X7283Y198705I2619J3995*
G01*
Y198706*
G75*
G02X15669Y201837I4778J0*
G01*
Y202576*
Y202577*
G75*
G02X16970Y203877I1300*
G01*
X24711*
G75*
G02X26012Y202577J-1300*
G01*
Y202576*
Y196713*
X26638*
Y202175*
Y202176*
G75*
G02X27371Y202908I733*
G01*
X34310*
G75*
G02X35043Y202176J-733*
G01*
Y202175*
Y196713*
X39178*
X44919Y202455*
Y208706*
X35043*
Y205236*
Y205235*
G75*
G02X34310Y204503I-733*
G01*
X27371*
G75*
G02X26638Y205235J733*
G01*
Y205236*
Y208706*
X25043*
Y205236*
Y205235*
G75*
G02X24310Y204503I-733*
G01*
X17371*
G75*
G02X16638Y205235J733*
G01*
Y205236*
Y208706*
X5581*
G37*
X49984Y199123D02*
G36*
X43031Y192170D01*
X55827*
Y208706*
X50856*
Y201225*
G75*
G02X49984Y199123I-2969J0*
G01*
G37*
X75470Y192720D02*
G36*
G75*
G02X75500Y192170I-5181J-554D01*
G01*
X106126*
G75*
G02X114531I4203*
G01*
X125424*
G75*
G02X125000Y194139I4353J1969*
G01*
G75*
G02X134555I4778*
G01*
G75*
G02X134524Y193591I-4783*
G01*
X135944Y192170*
X154556*
X163345Y200959*
G75*
G02X165447Y201831I2102J-2096*
G01*
X184696*
G75*
G02X188345Y203640I3743J-2968*
G01*
G75*
G02X184213Y208706I1039J5066*
G01*
X183359*
G75*
G02X183374Y208312I-5157J-398*
G01*
G75*
G02X178203Y203141I-5172*
G01*
G75*
G02X173031Y208312J5171*
G01*
G75*
G02X173046Y208706I5169J-4*
G01*
X143359*
G75*
G02X143374Y208312I-5159J-393*
G01*
G75*
G02X138203Y203141I-5171*
G01*
G75*
G02X133031Y208312J5171*
G01*
G75*
G02X133046Y208706I5173J0*
G01*
X95196*
X93097Y206606*
G75*
G02X90994Y205737I-2099J2100*
G01*
X88487*
X75470Y192720*
G37*
X166676Y195894D02*
G36*
X162952Y192170D01*
X224447*
Y192564*
G75*
G02X225319Y194666I2969J0*
G01*
X228778Y198124*
Y199646*
Y199649*
Y199650*
G75*
G02X229647Y201750I2969*
G01*
X232321Y204423*
Y205699*
G75*
G02X225181Y208706I-2937J3006*
G01*
X194555*
G75*
G02X189440Y203535I-5171J0*
G01*
G75*
G02X193217Y198863I-1001J-4672*
G01*
G75*
G02X184696Y195894I-4778J0*
G01*
X166676*
G37*
X254006Y208706D02*
G36*
Y192170D01*
X255669*
Y192576*
Y192577*
G75*
G02X256325Y193706I1300*
G01*
G75*
G02X255669Y194835I646J1130*
G01*
Y202576*
Y202577*
G75*
G02X256325Y203706I1300*
G01*
G75*
G02X255669Y204835I646J1130*
G01*
Y208706*
X254006*
G37*
X265356Y203706D02*
G36*
G75*
G02X265841Y203221I-650J-1134D01*
G01*
G75*
G02X266970Y203877I1130J-646*
G01*
X274711*
G75*
G02X276012Y202577J-1300*
G01*
Y202576*
Y194835*
Y194834*
G75*
G02X275356Y193706I-1300*
G01*
G75*
G02X276012Y192576I-646J-1130*
G01*
Y192170*
X276415*
Y208706*
X275043*
Y205236*
Y205235*
G75*
G02X274310Y204503I-733*
G01*
X267371*
G75*
G02X266638Y205235J733*
G01*
Y205236*
Y208706*
X266012*
Y204835*
Y204834*
G75*
G02X265356Y203706I-1300*
G01*
G37*
X282352Y208706D02*
G36*
Y192170D01*
X287295*
Y208706*
X282352*
G37*
X5581Y222091D02*
G36*
Y208706D01*
X16638*
Y212175*
Y212176*
G75*
G02X17371Y212908I733*
G01*
X24310*
G75*
G02X25043Y212176J-733*
G01*
Y212175*
Y208706*
X26638*
Y212175*
Y212176*
G75*
G02X27371Y212908I733*
G01*
X34310*
G75*
G02X35043Y212176J-733*
G01*
Y212175*
Y208706*
X44919*
Y222091*
X36012*
Y214835*
Y214834*
G75*
G02X34711Y213534I-1300*
G01*
X26970*
G75*
G02X25841Y214190I0J1300*
G01*
G75*
G02X24711Y213534I-1130J646*
G01*
X16970*
G75*
G02X15669Y214834J1300*
G01*
Y214835*
Y222091*
X5581*
G37*
X50856D02*
G36*
Y208706D01*
X55827*
Y220123*
Y220123*
G75*
G02X56437Y222091I3478*
G01*
X50856*
G37*
X101442Y214952D02*
G36*
X95196Y208706D01*
X133046*
G75*
G02X136289Y213116I5156J-394*
G01*
X145265Y222091*
X141854*
G75*
G02X133449I-4203*
G01*
X116618*
Y215920*
X108213*
Y222091*
X107587*
Y214952*
X101442*
G37*
X142601Y211031D02*
G36*
G75*
G02X143359Y208706I-4398J-2720D01*
G01*
X173046*
G75*
G02X174683Y212100I5156J-394*
G01*
Y217857*
G75*
G02X172480Y222091I2969J4234*
G01*
X153661*
X142601Y211031*
G37*
X180620Y217857D02*
G36*
Y212883D01*
G75*
G02X183359Y208706I-2417J-4572*
G01*
X184213*
G75*
G02X186258Y212825I5171*
G01*
Y219038*
G75*
G02X184192Y222091I2969J4235*
G01*
X182823*
G75*
G02X180620Y217857I-5171*
G01*
G37*
X192195Y219038D02*
G36*
Y213046D01*
G75*
G02X194555Y208706I-2811J-4341*
G01*
X225181*
Y208706*
G75*
G02X232321Y211712I4203*
G01*
Y219129*
G75*
G02X224478Y221224I-3094J4143*
G01*
X223611Y222091*
X194261*
G75*
G02X192195Y219038I-5035J1181*
G01*
G37*
X254006Y222091D02*
G36*
Y208706D01*
X255669*
Y212576*
Y212577*
G75*
G02X256325Y213706I1300*
G01*
G75*
G02X255669Y214835I646J1130*
G01*
Y222091*
X254006*
G37*
X265841Y214190D02*
G36*
G75*
G02X265356Y213706I-1134J650D01*
G01*
G75*
G02X266012Y212576I-646J-1130*
G01*
Y208706*
X266638*
Y212175*
Y212176*
G75*
G02X267371Y212908I733*
G01*
X274310*
G75*
G02X275043Y212176J-733*
G01*
Y212175*
Y208706*
X276415*
Y222091*
X276012*
Y214835*
Y214834*
G75*
G02X274711Y213534I-1300*
G01*
X266970*
G75*
G02X265841Y214190I0J1300*
G01*
G37*
X282352Y222091D02*
G36*
Y208706D01*
X287295*
Y222091*
X282352*
G37*
X5581Y242564D02*
G36*
Y222091D01*
X15669*
Y222576*
Y222577*
G75*
G02X16325Y223706I1300*
G01*
G75*
G02X15669Y224835I646J1130*
G01*
Y232576*
Y232577*
G75*
G02X16325Y233706I1300*
G01*
G75*
G02X15669Y234835I646J1130*
G01*
Y242564*
X5581*
G37*
X36012Y222576D02*
G36*
Y222091D01*
X44919*
Y226812*
Y226815*
Y226816*
G75*
G02X45789Y228915I2969*
G01*
X54165Y237291*
G75*
G02X54134Y237839I4752J548*
G01*
G75*
G02X58201Y242564I4778*
G01*
X36012*
Y234835*
Y234834*
G75*
G02X35356Y233706I-1300*
G01*
G75*
G02X36012Y232576I-646J-1130*
G01*
Y224835*
Y224834*
G75*
G02X35356Y223706I-1300*
G01*
G75*
G02X36012Y222576I-646J-1130*
G01*
G37*
X50856Y225586D02*
G36*
Y222091D01*
X56437*
G75*
G02X57244Y222925I2867J-1968*
G01*
Y225294*
X58937*
Y229926*
G75*
G02X59956Y232385I3480J-1*
G01*
X61235Y233665*
G75*
G02X58363Y233093I-2323J4171*
G01*
X50856Y225586*
G37*
X59622Y242564D02*
G36*
G75*
G02X63689Y237839I-711J-4724D01*
G01*
Y237839*
G75*
G02X63086Y235515I-4778*
G01*
X70134Y242564*
X59622*
G37*
X85384D02*
G36*
Y225294D01*
X107587*
Y222091*
X108213*
Y224326*
X116618*
Y222091*
X133449*
G75*
G02X141854I4203*
G01*
X145265*
X150037Y226864*
Y240148*
X149528*
Y242564*
X148902*
Y241117*
X140496*
Y242564*
X131568*
G75*
G02X132193Y240202I-4153J-2362*
G01*
G75*
G02X122638I-4778*
G01*
G75*
G02X122669Y240750I4783*
G01*
X120855Y242564*
X85384*
G37*
X155105Y223535D02*
G36*
X153661Y222091D01*
X172480*
G75*
G02X177652Y227263I5171*
G01*
G75*
G02X182823Y222091J-5171*
G01*
X184192*
G75*
G02X184055Y223272I5035J1181*
G01*
G75*
G02X189226Y228444I5171*
G01*
G75*
G02X194398Y223272J-5171*
G01*
G75*
G02X194261Y222091I-5171J0*
G01*
X223611*
X215595Y230107*
G75*
G02X214722Y232209I2096J2102*
G01*
Y237393*
X212520*
Y242564*
X211894*
Y238361*
X203488*
Y242564*
X179870*
Y240148*
X155974*
Y225639*
Y225636*
Y225635*
G75*
G02X155105Y223535I-2969*
G01*
G37*
X254006Y230159D02*
G36*
Y222091D01*
X255669*
Y222576*
Y222577*
G75*
G02X256325Y223706I1300*
G01*
G75*
G02X255669Y224835I646J1130*
G01*
Y232576*
Y232577*
G75*
G02X256325Y233706I1300*
G01*
G75*
G02X255801Y234264I644J1128*
G01*
G75*
G02X255815Y233902I-4878J-367*
G01*
G75*
G02X254006Y230159I-4778*
G01*
G37*
X276012Y222576D02*
G36*
Y222091D01*
X276415*
Y234962*
G75*
G02X276012Y235321I3077J3865*
G01*
Y234835*
Y234834*
G75*
G02X275356Y233706I-1300*
G01*
G75*
G02X276012Y232576I-646J-1130*
G01*
Y224835*
Y224834*
G75*
G02X275356Y223706I-1300*
G01*
G75*
G02X276012Y222576I-646J-1130*
G01*
G37*
Y242564D02*
G36*
Y242090D01*
G75*
G02X276567Y242564I3372J-3385*
G01*
X276012*
G37*
X282352Y234962D02*
G36*
Y222091D01*
X287295*
Y242564*
X282202*
G75*
G02X284161Y238706I-2818J-3858*
G01*
G75*
G02X282352Y234962I-4778*
G01*
G37*
X5581Y259099D02*
G36*
Y242564D01*
X15669*
Y242576*
Y242577*
G75*
G02X16325Y243706I1300*
G01*
G75*
G02X15669Y244835I646J1130*
G01*
Y252576*
Y252577*
G75*
G02X16325Y253706I1300*
G01*
G75*
G02X15669Y254835I646J1130*
G01*
Y259099*
X5581*
G37*
X36012Y242576D02*
G36*
Y242564D01*
X58201*
G75*
G02X59622I711J-4724*
G01*
X70134*
X71065Y243495*
G75*
G02X71574Y245501I4772J-143*
G01*
X46513*
G75*
G02X37992Y248469I-3743J2969*
G01*
G75*
G02X46513Y251438I4778J0*
G01*
X60114*
G75*
G02X59646Y253587I4703J2150*
G01*
G75*
G02X69051Y256556I5171*
G01*
X83115*
X85658Y259099*
X44610*
G75*
G02X36992I-3809*
G01*
X36012*
Y254835*
Y254834*
G75*
G02X35356Y253706I-1300*
G01*
G75*
G02X36012Y252576I-646J-1130*
G01*
Y244835*
Y244834*
G75*
G02X35356Y243706I-1300*
G01*
G75*
G02X36012Y242576I-646J-1130*
G01*
G37*
X81825Y250619D02*
G36*
X81877Y250569D01*
X84515Y247931*
G75*
G02X85384Y245831I-2100J-2099*
G01*
Y245830*
Y245828*
Y242564*
X120855*
X108920Y254499*
G75*
G02X109020Y253588I-4103J-911*
G01*
G75*
G02X104817Y249385I-4203*
G01*
G75*
G02X100614Y253587J4203*
G01*
G75*
G02X104817Y257790I4203*
G01*
G75*
G02X107158Y257078I0J-4203*
G01*
G75*
G02X107124Y257524I2989J451*
G01*
Y259099*
X94055*
X86444Y251488*
G75*
G02X84341Y250619I-2099J2100*
G01*
X81825*
G37*
X113061Y259099D02*
G36*
Y258754D01*
X126867Y244948*
G75*
G02X131568Y242564I548J-4746*
G01*
X140496*
Y249522*
X148902*
Y242564*
X149528*
Y250491*
X162911*
Y259099*
X113061*
G37*
X168848D02*
G36*
Y250491D01*
X171220*
Y259099*
X168848*
G37*
X178177D02*
G36*
Y250491D01*
X179870*
Y242564*
X203488*
Y246767*
X211894*
Y242564*
X212520*
Y247735*
X219000*
G75*
G02X218935Y248350I2897J615*
G01*
G75*
G02Y248351I3562J1*
G01*
Y254962*
G75*
G02X217126Y258706I2969J3743*
G01*
G75*
G02X217142Y259099I4780J1*
G01*
X178177*
G37*
X276012Y242576D02*
G36*
Y242564D01*
X276567*
G75*
G02X282202I2818J-3858*
G01*
X287295*
Y259099*
X276012*
Y254835*
Y254834*
G75*
G02X275356Y253706I-1300*
G01*
G75*
G02X276012Y252576I-646J-1130*
G01*
Y244835*
Y244834*
G75*
G02X275356Y243706I-1300*
G01*
G75*
G02X276012Y242576I-646J-1130*
G01*
G37*
X5581Y268154D02*
G36*
Y259099D01*
X15669*
Y262576*
Y262577*
G75*
G02X16325Y263706I1300*
G01*
G75*
G02X15669Y264835I646J1130*
G01*
Y268154*
X5581*
G37*
X25356Y263706D02*
G36*
G75*
G02X25841Y263221I-650J-1134D01*
G01*
G75*
G02X26970Y263877I1130J-646*
G01*
X34711*
G75*
G02X36012Y262577J-1300*
G01*
Y262576*
Y259099*
X36992*
G75*
G02X44610I3809*
G01*
X85658*
X94713Y268154*
X85128*
G75*
G02X85949Y265792I-2988J-2362*
G01*
G75*
G02X78331I-3809*
G01*
G75*
G02X79152Y268154I3809*
G01*
X63109*
X61689Y266734*
G75*
G02X61720Y266186I-4752J-548*
G01*
G75*
G02X52481Y264478I-4778*
G01*
G75*
G02X43110Y265792I-4593J1315*
G01*
G75*
G02X43735Y268154I4778*
G01*
X35043*
Y265236*
Y265235*
G75*
G02X34310Y264503I-733*
G01*
X27371*
G75*
G02X26638Y265235J733*
G01*
Y265236*
Y268154*
X26012*
Y264835*
Y264834*
G75*
G02X25356Y263706I-1300*
G01*
G37*
X103109Y268154D02*
G36*
X94055Y259099D01*
X107124*
Y268154*
X103109*
G37*
X113061D02*
G36*
Y259099D01*
X162911*
Y267965*
G75*
G02X155592Y268154I-3606J2158*
G01*
X124087*
G75*
G02X119305Y264952I-4782J1969*
G01*
G75*
G02X114523Y268154J5171*
G01*
X113061*
G37*
X168848D02*
G36*
Y259099D01*
X171220*
Y260155*
G75*
G02X169921Y263430I3478J3275*
G01*
Y263430*
G75*
G02X173988Y268154I4778*
G01*
X168848*
G37*
X178177Y260155D02*
G36*
Y259099D01*
X217142*
G75*
G02X225904Y261318I4761J-394*
G01*
Y268154*
X204453*
G75*
G02X196047I-4203*
G01*
X175409*
G75*
G02X179476Y263430I-711J-4724*
G01*
Y263430*
G75*
G02X178177Y260155I-4777*
G01*
G37*
X276012Y262576D02*
G36*
Y259099D01*
X287295*
Y268154*
X276012*
Y264835*
Y264834*
G75*
G02X275356Y263706I-1300*
G01*
G75*
G02X276012Y262576I-646J-1130*
G01*
G37*
X5581Y301225D02*
G36*
Y268154D01*
X15669*
Y272576*
Y272577*
G75*
G02X16325Y273706I1300*
G01*
G75*
G02X15669Y274835I646J1130*
G01*
Y282576*
Y282577*
G75*
G02X16325Y283706I1300*
G01*
G75*
G02X15669Y284835I646J1130*
G01*
Y292576*
Y292577*
G75*
G02X16325Y293706I1300*
G01*
G75*
G02X15669Y294835I646J1130*
G01*
Y301225*
X5581*
G37*
X25841Y274190D02*
G36*
G75*
G02X25356Y273706I-1134J650D01*
G01*
G75*
G02X26012Y272576I-646J-1130*
G01*
Y268154*
X26638*
Y272175*
Y272176*
G75*
G02X27371Y272908I733*
G01*
X34310*
G75*
G02X35043Y272176J-733*
G01*
Y272175*
Y268154*
X43735*
G75*
G02X46757Y270434I4153J-2362*
G01*
X63899Y287576*
G75*
G02X66002Y288446I2099J-2100*
G01*
X74493*
X82101Y296054*
X60000*
Y297353*
X53266*
X51760Y295847*
Y287571*
G75*
G02X53059Y284296I-3478J-3275*
G01*
Y284296*
G75*
G02X43504I-4778*
G01*
Y284296*
G75*
G02X44803Y287571I4777*
G01*
Y297288*
G75*
G02X45822Y299748I3480J-1*
G01*
X47300Y301225*
X36012*
Y294835*
Y294834*
G75*
G02X35356Y293706I-1300*
G01*
G75*
G02X36012Y292576I-646J-1130*
G01*
Y284835*
Y284834*
G75*
G02X35356Y283706I-1300*
G01*
G75*
G02X36012Y282576I-646J-1130*
G01*
Y274835*
Y274834*
G75*
G02X34711Y273534I-1300*
G01*
X26970*
G75*
G02X25841Y274190I0J1300*
G01*
G37*
X64709Y269754D02*
G36*
X63109Y268154D01*
X79152*
G75*
G02X85128I2988J-2362*
G01*
X94713*
X100511Y273952*
G75*
G02X100433Y274847I5147J899*
G01*
G75*
G02Y274848I7519J0*
G01*
G75*
G02X102203Y278742I5169*
G01*
Y296054*
X88140*
Y294926*
G75*
G02X87267Y292824I-2969J0*
G01*
X77824Y283381*
G75*
G02X75722Y282509I-2102J2096*
G01*
X67228*
X64648Y279930*
G75*
G02X70776Y274847I956J-5082*
G01*
Y274847*
G75*
G02X65604Y269676I-5171*
G01*
G75*
G02X64709Y269754I4J5225*
G01*
G37*
X104709D02*
G36*
X103109Y268154D01*
X107124*
Y269904*
G75*
G02X104709Y269754I-1520J4940*
G01*
G37*
X113061Y297022D02*
G36*
Y268154D01*
X114523*
G75*
G02X114134Y270123I4782J1969*
G01*
G75*
G02X115392Y273503I5171*
G01*
Y278093*
G75*
G02X113189Y282328I2969J4234*
G01*
G75*
G02X118360Y287499I5171*
G01*
G75*
G02X123531Y282328J-5171*
G01*
G75*
G02X121329Y278093I-5171*
G01*
Y274882*
G75*
G02X124477Y270123I-2024J-4759*
G01*
G75*
G02X124087Y268154I-5171*
G01*
X155592*
G75*
G02X155102Y270123I3713J1969*
G01*
G75*
G02X162911Y272281I4203*
G01*
Y279872*
G75*
G02X153189Y282328I-4551J2456*
G01*
G75*
G02X155392Y286562I5170J1*
G01*
Y296054*
X150709*
Y301225*
X150083*
Y297022*
X141677*
Y301225*
X119374*
Y297022*
X113061*
G37*
X168848Y294059D02*
G36*
Y268154D01*
X173988*
G75*
G02X175409I711J-4724*
G01*
X196047*
G75*
G02X204453I4203*
G01*
X225904*
Y296054*
X221329*
Y292170*
G75*
G02X220456Y290068I-2969J0*
G01*
X210620Y280231*
G75*
G02X208518Y279359I-2102J2096*
G01*
X203854*
G75*
G02X194449Y282328I-4234J2969*
G01*
G75*
G02X203854Y285296I5171*
G01*
X207288*
X215392Y293400*
Y296054*
X213701*
Y301225*
X213075*
Y297022*
X204669*
Y301225*
X190669*
X181483Y292039*
G75*
G02X179380Y291170I-2099J2100*
G01*
X172970*
G75*
G02X170867Y292039I-4J2970*
G01*
X168848Y294059*
G37*
X276012Y272576D02*
G36*
Y268154D01*
X287295*
Y301225*
X282746*
Y282449*
G75*
G02X284555Y278706I-2969J-3743*
G01*
Y278705*
G75*
G02X276012Y275765I-4778*
G01*
Y274835*
Y274834*
G75*
G02X275356Y273706I-1300*
G01*
G75*
G02X276012Y272576I-646J-1130*
G01*
G37*
X2969Y324885D02*
G36*
Y317984D01*
X6419Y321435*
G75*
G02X8522Y322304I2099J-2100*
G01*
X268750*
G75*
G02X270853Y321435I4J-2970*
G01*
X281877Y310411*
G75*
G02X282746Y308312I-2100J-2099*
G01*
Y308311*
Y308308*
Y301225*
X287295*
Y324885*
X2969*
G37*
X5581Y312200D02*
G36*
Y301225D01*
X15669*
Y302576*
Y302577*
G75*
G02X16970Y303877I1300*
G01*
X24711*
G75*
G02X25841Y303221I0J-1300*
G01*
G75*
G02X26970Y303877I1130J-646*
G01*
X34711*
G75*
G02X36012Y302577J-1300*
G01*
Y302576*
Y301225*
X47300*
X49365Y303291*
G75*
G02X51827Y304310I2461J-2462*
G01*
X60000*
Y306396*
X61693*
Y307485*
G75*
G02X62712Y309944I3480J-1*
G01*
X68263Y315496*
G75*
G02X69720Y316367I2458J-2456*
G01*
X9747*
X5581Y312200*
G37*
X109895Y309558D02*
G36*
X112192Y307261D01*
G75*
G02X113049Y305428I-2100J-2099*
G01*
X119374*
Y301225*
X141677*
Y305428*
X150083*
Y301225*
X150709*
Y306396*
X172443*
X169281Y309558*
X109895*
G37*
X195180Y305737D02*
G36*
X190669Y301225D01*
X204669*
Y305428*
X213075*
Y301225*
X213701*
Y305737*
X195180*
G37*
X62783Y214952D02*
Y201028D01*
X69014Y207258*
G75*
G02X71116Y208131I2102J-2096*
G01*
X77761*
X84581Y214952*
X62783*
G36*
Y201028*
X69014Y207258*
G75*
G02X71116Y208131I2102J-2096*
G01*
X77761*
X84581Y214952*
X62783*
G37*
X65894Y228485D02*
Y225294D01*
X79447*
Y240218*
G75*
G02X75984Y238576I-3607J3133*
G01*
X65894Y228485*
G36*
Y225294*
X79447*
Y240218*
G75*
G02X75984Y238576I-3607J3133*
G01*
X65894Y228485*
G37*
X69002Y306396D02*
X92664D01*
G75*
G02X93072Y306907I2508J-1587*
G01*
X95723Y309558*
X72163*
X69002Y306396*
G36*
X92664*
G75*
G02X93072Y306907I2508J-1587*
G01*
X95723Y309558*
X72163*
X69002Y306396*
G37*
X181051Y305847D02*
Y300004D01*
X190605Y309558*
X184762*
X181051Y305847*
G36*
Y300004*
X190605Y309558*
X184762*
X181051Y305847*
G37*
X220659Y237393D02*
Y233439D01*
X226458Y227641*
G75*
G02X228029Y228303I2768J-4368*
G01*
X225592Y230740*
G75*
G02X224722Y232839I2100J2099*
G01*
G75*
G02Y232841I1187J1*
G01*
G75*
G02Y232843I929J2*
G01*
Y237393*
X220659*
G36*
Y233439*
X226458Y227641*
G75*
G02X228029Y228303I2768J-4368*
G01*
X225592Y230740*
G75*
G02X224722Y232839I2100J2099*
G01*
G75*
G02Y232841I1187J1*
G01*
G75*
G02Y232843I929J2*
G01*
Y237393*
X220659*
G37*
X230485Y191436D02*
X236929D01*
Y200635*
X234715Y198421*
Y196894*
G75*
G02X233842Y194793I-2969*
G01*
X230485Y191436*
G36*
X236929*
Y200635*
X234715Y198421*
Y196894*
G75*
G02X233842Y194793I-2969*
G01*
X230485Y191436*
G37*
X230659Y237393D02*
Y234069D01*
X236929Y227799*
Y230493*
X235231Y232191*
G75*
G02X234213Y234650I2459J2460*
G01*
Y237393*
X230659*
G36*
Y234069*
X236929Y227799*
Y230493*
X235231Y232191*
G75*
G02X234213Y234650I2459J2460*
G01*
Y237393*
X230659*
G37*
X235111Y316367D02*
G75*
G02X236568Y315496I-1003J-3330D01*
G01*
X242080Y309984*
G75*
G02X243098Y307524I-2459J-2459*
G01*
Y306396*
X244043*
Y296054*
X241925*
G75*
G02X241331Y295262I-3053J1668*
G01*
X237193Y291123*
Y286894*
G75*
G02X243487Y285761I2427J-4566*
G01*
G75*
G02X252665Y283902I4401J-1859*
G01*
G75*
G02X250856Y280159I-4778*
G01*
Y261465*
G75*
G02Y261463I-946J-1*
G01*
G75*
G02Y261461I-1253J0*
G01*
G75*
G02X249987Y259362I-2969J0*
G01*
X248494Y257870*
Y237947*
G75*
G02X255669Y235073I2543J-4044*
G01*
Y242576*
G75*
G02X256325Y243706I1300*
G01*
G75*
G02X255669Y244835I645J1129*
G01*
Y252576*
G75*
G02X256325Y253706I1300*
G01*
G75*
G02X255669Y254835I645J1129*
G01*
Y262576*
G75*
G02X256325Y263706I1300*
G01*
G75*
G02X255669Y264835I645J1129*
G01*
Y272576*
G75*
G02X256325Y273706I1300*
G01*
G75*
G02X255669Y274835I645J1129*
G01*
Y282576*
G75*
G02X256325Y283706I1300*
G01*
G75*
G02X255669Y284835I645J1129*
G01*
Y292576*
G75*
G02X256325Y293706I1300*
G01*
G75*
G02X255669Y294835I645J1129*
G01*
Y302576*
G75*
G02X256970Y303877I1300*
G01*
X264711*
G75*
G02X265841Y303221J-1300*
G01*
G75*
G02X266970Y303877I1129J-645*
G01*
X274711*
G75*
G02X276012Y302576J-1300*
G01*
Y294835*
G75*
G02X275356Y293706I-1300*
G01*
G75*
G02X276012Y292576I-645J-1129*
G01*
Y284835*
G75*
G02X275356Y283706I-1300*
G01*
G75*
G02X276012Y282576I-645J-1129*
G01*
Y281646*
G75*
G02X276809Y282449I3765J-2941*
G01*
Y307082*
X267524Y316367*
X235111*
G36*
G75*
G02X236568Y315496I-1003J-3330*
G01*
X242080Y309984*
G75*
G02X243098Y307524I-2459J-2459*
G01*
Y306396*
X244043*
Y296054*
X241925*
G75*
G02X241331Y295262I-3053J1668*
G01*
X237193Y291123*
Y286894*
G75*
G02X243487Y285761I2427J-4566*
G01*
G75*
G02X252665Y283902I4401J-1859*
G01*
G75*
G02X250856Y280159I-4778*
G01*
Y261465*
G75*
G02Y261463I-946J-1*
G01*
G75*
G02Y261461I-1253J0*
G01*
G75*
G02X249987Y259362I-2969J0*
G01*
X248494Y257870*
Y237947*
G75*
G02X255669Y235073I2543J-4044*
G01*
Y242576*
G75*
G02X256325Y243706I1300*
G01*
G75*
G02X255669Y244835I645J1129*
G01*
Y252576*
G75*
G02X256325Y253706I1300*
G01*
G75*
G02X255669Y254835I645J1129*
G01*
Y262576*
G75*
G02X256325Y263706I1300*
G01*
G75*
G02X255669Y264835I645J1129*
G01*
Y272576*
G75*
G02X256325Y273706I1300*
G01*
G75*
G02X255669Y274835I645J1129*
G01*
Y282576*
G75*
G02X256325Y283706I1300*
G01*
G75*
G02X255669Y284835I645J1129*
G01*
Y292576*
G75*
G02X256325Y293706I1300*
G01*
G75*
G02X255669Y294835I645J1129*
G01*
Y302576*
G75*
G02X256970Y303877I1300*
G01*
X264711*
G75*
G02X265841Y303221J-1300*
G01*
G75*
G02X266970Y303877I1129J-645*
G01*
X274711*
G75*
G02X276012Y302576J-1300*
G01*
Y294835*
G75*
G02X275356Y293706I-1300*
G01*
G75*
G02X276012Y292576I-645J-1129*
G01*
Y284835*
G75*
G02X275356Y283706I-1300*
G01*
G75*
G02X276012Y282576I-645J-1129*
G01*
Y281646*
G75*
G02X276809Y282449I3765J-2941*
G01*
Y307082*
X267524Y316367*
X235111*
G37*
X237193Y263983D02*
Y247981D01*
X237439Y247735*
X242557*
Y259095*
G75*
G02Y259098I946J2*
G01*
G75*
G02Y259099I1253J1*
G01*
G75*
G02X243426Y261198I2969J0*
G01*
X244919Y262691*
Y265932*
G75*
G02X237193Y263983I-4669J2222*
G01*
G36*
Y247981*
X237439Y247735*
X242557*
Y259095*
G75*
G02Y259098I946J2*
G01*
G75*
G02Y259099I1253J1*
G01*
G75*
G02X243426Y261198I2969J0*
G01*
X244919Y262691*
Y265932*
G75*
G02X237193Y263983I-4669J2222*
G01*
G37*
X269555Y31987D02*
Y31421D01*
X279756Y41622*
G75*
G02X280914Y45325I4746J548*
G01*
G75*
G02X279623Y45298I-743J4719*
G01*
X266312Y31987*
X269555*
G36*
Y31421*
X279756Y41622*
G75*
G02X280914Y45325I4746J548*
G01*
G75*
G02X279623Y45298I-743J4719*
G01*
X266312Y31987*
X269555*
G37*
D02*
D23*
X19049Y19375D02*
Y33410D01*
X35289Y49650*
X64423*
X20841Y208706D02*
X30841D01*
X40801Y259099D02*
X75447D01*
X82140Y265792*
X48281Y284296D02*
Y297288D01*
X51825Y300831*
X64778*
X65171Y301225*
X61274Y145713D02*
Y151225D01*
X65604Y155556*
X99069*
X108518Y146107*
X62415Y220123D02*
X59305D01*
Y146855*
X60447Y145713*
X61274*
X65171Y301225D02*
Y307485D01*
X70722Y313036*
X170722*
X176234Y307524*
Y301580*
X175880Y301225*
X75841Y243351D02*
X62415Y229926D01*
Y220123*
X79049Y19375D02*
Y18489D01*
X83715Y13824*
X112061*
X121904Y23666*
X79049Y89375D02*
Y19375D01*
Y89375D02*
Y94985D01*
X85683Y101619*
X104817Y253587D02*
Y250202D01*
X112455Y242564*
Y220162*
X112415Y220123*
X110329Y192170D02*
Y218036D01*
X112415Y220123*
X135683*
X137652Y222091*
X115171Y301225D02*
X145880D01*
X121904Y23666D02*
X162455D01*
X162848Y23272*
X123872Y49650D02*
Y35635D01*
X121904Y33666*
X130565Y107485D02*
X162061D01*
X162848Y106698*
X143951Y42957D02*
X155132D01*
X162848Y35241*
Y33272*
X144699Y245320D02*
X143951D01*
X138045Y239414*
Y222485*
X137652Y222091*
X144699Y245320D02*
Y255517D01*
X159305Y270123*
Y270517*
X147100Y282721*
Y300005*
X145880Y301225*
X160486Y183902D02*
Y144926D01*
X161274Y144139*
X162848Y23272D02*
X183321D01*
X162848Y106698D02*
Y114611D01*
X171116Y122879*
Y134296*
X161274Y144139*
X162848Y106698D02*
X185683D01*
X174699Y245320D02*
Y263430D01*
X175880Y301225D02*
Y305595D01*
X183321Y313036*
X234108*
X239620Y307524*
Y301973*
X238872Y301225*
X201037Y23272D02*
X201825D01*
X206156Y18942*
X226510*
X234384Y26816*
X201825Y159493D02*
X199856D01*
X185683Y173666*
X170722*
X160486Y183902*
X201825Y159493D02*
Y180398D01*
X207691Y186265*
Y187013*
X229384Y208706*
X207691Y242564D02*
Y243784D01*
X198281Y253194*
Y266186*
X200250Y268154*
X208872Y301225D02*
X199856D01*
X193163Y294532*
Y275241*
X200250Y268154*
X224384Y26816D02*
Y36146D01*
X210486Y50044*
X135132*
X121904Y36816*
Y33666*
X229384Y208706D02*
X225841D01*
X207730Y226816*
Y242524*
X207691Y242564*
X237691D02*
Y234650D01*
X240407Y231934*
Y188981*
X237691Y186265*
Y242564D02*
X236864D01*
Y241776*
X238872Y301225D02*
Y297721D01*
X233715Y292564*
Y246540*
X237691Y242564*
D02*
D24*
X12061Y198706D03*
X40801Y259099D03*
X42770Y248469D03*
X47888Y265792D03*
X48281Y284296D03*
X56943Y266186D03*
X58911Y237839D03*
X64423Y49650D03*
X75841Y243351D03*
X82140Y265792D03*
X85683Y101619D03*
X123872Y49650D03*
X127415Y240202D03*
X129778Y194139D03*
X135683Y173272D03*
X143951Y42957D03*
X151825Y165792D03*
X174699Y263430D03*
X181746Y164611D03*
X183321Y23272D03*
X188439Y198863D03*
X192770Y30359D03*
Y57918D03*
X201037Y23272D03*
X221904Y258706D03*
X247888Y283902D03*
X251037Y233902D03*
X265998Y89375D03*
X275841Y59887D03*
X279384Y238706D03*
X279778Y278706D03*
X280171Y50044D03*
X284502Y42170D03*
D02*
D25*
X12061Y198706D02*
Y196107D01*
X14423Y193745*
X40407*
X47888Y201225*
Y226816*
X58911Y237839*
X47888Y265792D02*
Y267367D01*
X65998Y285477*
X75722*
X85171Y294926*
Y301225*
X56943Y266186D02*
X65604Y274847D01*
X64817Y253587D02*
X84344D01*
X105604Y274847*
X69049Y19375D02*
Y16284D01*
X76234Y9099*
X182533*
X192770Y19335*
Y30359*
X70329Y192170D02*
X70722D01*
X87258Y208706*
X90998*
X102415Y220123*
X71274Y145713D02*
X83715D01*
X107337Y122091*
X71274Y174454D02*
Y191225D01*
X70329Y192170*
X82415Y220123D02*
Y245831D01*
X79778Y248469*
X42770*
X88833Y109099D02*
X92770D01*
X101825Y100044*
X112455*
X128970Y116560*
X138065*
Y114985*
X89049Y19375D02*
X99502D01*
X104187Y24060*
Y46107*
X127415Y69335*
X89049Y89375D02*
X265998D01*
X92415Y220123D02*
Y218587D01*
X78990Y205162*
X71116*
X64817Y198863*
Y170123*
X69541Y165398*
X119148*
X162848Y121698*
X95171Y301225D02*
Y304808D01*
X97888Y307524*
X107730*
X110093Y305162*
Y257524*
X127415Y240202*
X105171Y301225D02*
Y275280D01*
X105604Y274847*
X114837Y114591D02*
X96333D01*
X88833Y122091*
X117415Y69335D02*
X130407Y82328D01*
X173872*
X192770Y63430*
Y57918*
X118360Y282328D02*
Y271068D01*
X119305Y270123*
X118518Y146107D02*
Y134532D01*
X130565Y122485*
X135683Y173272D02*
Y188233D01*
X129778Y194139*
X138203Y208312D02*
Y210831D01*
X153006Y225635*
Y243627*
X154699Y245320*
X151274Y144139D02*
Y165241D01*
X151825Y165792*
X158360Y282328D02*
Y298745D01*
X155880Y301225*
X165880D02*
Y246501D01*
X164699Y245320*
X177652Y222091D02*
Y208863D01*
X178203Y208312*
X181746Y164611D02*
X185683Y160674D01*
Y121698*
X188439Y198863D02*
X165447D01*
X150486Y183902*
X189226Y223272D02*
Y208863D01*
X189384Y208706*
X193183Y114198D02*
X194325D01*
X202219Y122091*
X199620Y282328D02*
X208518D01*
X218360Y292170*
Y300713*
X218872Y301225*
X201195Y144926D02*
Y145083D01*
X215211Y159099*
Y183784*
X217691Y186265*
X202219Y106737D02*
X193951D01*
X186077Y114611*
X170762*
X170348Y114198*
X217691Y242564D02*
Y232209D01*
X226628Y223272*
X229226*
X221904Y258706D02*
Y248351D01*
X227691Y242564*
Y232839*
X235289Y225241*
Y203194*
X231746Y199650*
Y196894*
X227415Y192564*
Y186540*
X227691Y186265*
X228872Y301225D02*
Y303312D01*
X223478Y308706*
X193951*
X179384Y294139*
X172967*
X165880Y301225*
X228872D02*
Y243745D01*
X227691Y242564*
X240250Y268154D02*
Y281698D01*
X239620Y282328*
X241825Y159493D02*
Y145556D01*
X241195Y144926*
X247888Y283902D02*
Y261461D01*
X245526Y259099*
Y161225*
X243793Y159493*
X241825*
X251037Y233902D02*
Y130910D01*
X242219Y122091*
X264384Y26816D02*
X269148D01*
X284502Y42170*
X275841Y59887D02*
X243203Y26816D01*
X244384*
X279384Y238706D02*
Y113036D01*
X271904Y105556*
X243400*
X242219Y106737*
X279778Y278706D02*
Y308312D01*
X268754Y319335*
X8518*
X2612Y313430*
Y91776*
X13242Y81146*
X60821*
X69049Y89375*
X280171Y50044D02*
X256943Y26816D01*
X254384*
D02*
D26*
X20841Y118706D03*
Y128706D03*
Y138706D03*
Y148706D03*
Y158706D03*
Y168706D03*
Y178706D03*
Y188706D03*
Y198706D03*
Y208706D03*
Y218706D03*
Y228706D03*
Y238706D03*
Y248706D03*
Y258706D03*
Y268706D03*
Y278706D03*
Y288706D03*
Y298706D03*
X30841Y118706D03*
Y128706D03*
Y138706D03*
Y148706D03*
Y158706D03*
Y168706D03*
Y178706D03*
Y188706D03*
Y198706D03*
Y208706D03*
Y218706D03*
Y228706D03*
Y238706D03*
Y248706D03*
Y258706D03*
Y268706D03*
Y278706D03*
Y288706D03*
Y298706D03*
X260841Y118706D03*
Y128706D03*
Y138706D03*
Y148706D03*
Y158706D03*
Y168706D03*
Y178706D03*
Y188706D03*
Y198706D03*
Y208706D03*
Y218706D03*
Y228706D03*
Y238706D03*
Y248706D03*
Y258706D03*
Y268706D03*
Y278706D03*
Y288706D03*
Y298706D03*
X270841Y118706D03*
Y128706D03*
Y138706D03*
Y148706D03*
Y158706D03*
Y168706D03*
Y178706D03*
Y188706D03*
Y198706D03*
Y208706D03*
Y218706D03*
Y228706D03*
Y238706D03*
Y248706D03*
Y258706D03*
Y268706D03*
Y278706D03*
Y288706D03*
Y298706D03*
D02*
D27*
X19049Y19375D03*
Y89375D03*
X29049Y19375D03*
Y89375D03*
X39049Y19375D03*
Y89375D03*
X49049Y19375D03*
Y89375D03*
X59049Y19375D03*
Y89375D03*
X62415Y220123D03*
X65171Y301225D03*
X69049Y19375D03*
Y89375D03*
X72415Y220123D03*
X75171Y301225D03*
X79049Y19375D03*
Y89375D03*
X82415Y220123D03*
X85171Y301225D03*
X89049Y19375D03*
Y89375D03*
X92415Y220123D03*
X95171Y301225D03*
X102415Y220123D03*
X105171Y301225D03*
X112415Y220123D03*
X115171Y301225D03*
X144699Y245320D03*
X145880Y301225D03*
X154699Y245320D03*
X155880Y301225D03*
X164699Y245320D03*
X165880Y301225D03*
X174699Y245320D03*
X175880Y301225D03*
X207691Y186265D03*
Y242564D03*
X208872Y301225D03*
X214384Y26816D03*
X217691Y186265D03*
Y242564D03*
X218872Y301225D03*
X224384Y26816D03*
X227691Y186265D03*
Y242564D03*
X228872Y301225D03*
X234384Y26816D03*
X237691Y186265D03*
Y242564D03*
X238872Y301225D03*
X244384Y26816D03*
X254384D03*
X264384D03*
D02*
D28*
X48833Y109099D03*
Y122091D03*
X64817Y253587D03*
X65604Y274847D03*
X70329Y192170D03*
X71274Y174454D03*
X88833Y109099D03*
Y122091D03*
X104817Y253587D03*
X105604Y274847D03*
X107337Y107091D03*
Y122091D03*
X110329Y192170D03*
X111274Y174454D03*
X114837Y114591D03*
X118360Y282328D03*
X119305Y270123D03*
X130565Y107485D03*
Y122485D03*
X137652Y222091D03*
X138065Y114985D03*
X138203Y208312D03*
X158360Y282328D03*
X159305Y270123D03*
X162848Y106698D03*
Y121698D03*
X170348Y114198D03*
X177652Y222091D03*
X178203Y208312D03*
X185683Y106698D03*
Y121698D03*
X189226Y223272D03*
X189384Y208706D03*
X193183Y114198D03*
X199620Y282328D03*
X200250Y268154D03*
X201195Y144926D03*
X201825Y159493D03*
X202219Y106737D03*
Y122091D03*
X229226Y223272D03*
X229384Y208706D03*
X239620Y282328D03*
X240250Y268154D03*
X241195Y144926D03*
X241825Y159493D03*
X242219Y106737D03*
Y122091D03*
D02*
D29*
X61274Y145713D03*
X71274D03*
X108518Y146107D03*
X117415Y69335D03*
X118518Y146107D03*
X121904Y23666D03*
Y33666D03*
X127415Y69335D03*
X150486Y183902D03*
X151274Y144139D03*
X160486Y183902D03*
X161274Y144139D03*
X162848Y23272D03*
Y33272D03*
D02*
D76*
X18388Y208706D02*
X16388D01*
X20841Y206253D02*
Y204253D01*
Y211158D02*
Y213158D01*
X23293Y208706D02*
X25293D01*
X28388Y198706D02*
X26388D01*
X28388Y208706D02*
X26388D01*
X28388Y268706D02*
X26388D01*
X30841Y201158D02*
Y203158D01*
Y206253D02*
Y204253D01*
Y211158D02*
Y213158D01*
Y266253D02*
Y264253D01*
Y271158D02*
Y273158D01*
X33293Y198706D02*
X35293D01*
X33293Y208706D02*
X35293D01*
X33293Y268706D02*
X35293D01*
X38742Y259099D02*
X36742D01*
X40801Y257040D02*
Y255040D01*
Y261158D02*
Y263158D01*
X42860Y259099D02*
X44860D01*
X76596Y19375D02*
X74596D01*
X76596Y89375D02*
X74596D01*
X79049Y16922D02*
Y14922D01*
Y21828D02*
Y23828D01*
Y86922D02*
Y84922D01*
Y91828D02*
Y93828D01*
X80081Y265792D02*
X78081D01*
X81502Y19375D02*
X83502D01*
X81502Y89375D02*
X83502D01*
X82140Y263733D02*
Y261733D01*
Y267851D02*
Y269851D01*
X83624Y101619D02*
X81624D01*
X84199Y265792D02*
X86199D01*
X85683Y99560D02*
Y97560D01*
X87742Y101619D02*
X89742D01*
X102364Y253587D02*
X100364D01*
X104817Y251135D02*
Y249135D01*
Y256040D02*
Y258040D01*
X105602Y105357D02*
X104188Y103943D01*
X105602Y108826D02*
X104188Y110240D01*
X107270Y253587D02*
X109270D01*
X107876Y192170D02*
X105876D01*
X109071Y105357D02*
X110485Y103943D01*
X109071Y108826D02*
X110485Y110240D01*
X109963Y220123D02*
X107963D01*
X110329Y189717D02*
Y187717D01*
Y194623D02*
Y196623D01*
X112415Y217670D02*
Y215670D01*
Y222576D02*
Y224576D01*
X112781Y192170D02*
X114781D01*
X114868Y220123D02*
X116868D01*
X115171Y298772D02*
Y296772D01*
Y303678D02*
Y305678D01*
X117624Y301225D02*
X119624D01*
X119451Y23666D02*
X117451D01*
X121904Y21213D02*
Y19213D01*
Y26119D02*
Y28119D01*
X124356Y23666D02*
X126356D01*
X128112Y107485D02*
X126112D01*
X130565Y105032D02*
Y103032D01*
Y109938D02*
Y111938D01*
X133018Y107485D02*
X135018D01*
X135199Y222091D02*
X133199D01*
X137652Y219639D02*
Y217639D01*
Y224544D02*
Y226544D01*
X140104Y222091D02*
X142104D01*
X142246Y245320D02*
X140246D01*
X143427Y301225D02*
X141427D01*
X144699Y242867D02*
Y240867D01*
Y247772D02*
Y249772D01*
X145880Y298772D02*
Y296772D01*
Y303678D02*
Y305678D01*
X147152Y245320D02*
X149152D01*
X148333Y301225D02*
X150333D01*
X157571Y268389D02*
X156157Y266974D01*
X157571Y271857D02*
X156157Y273271D01*
X158033Y183902D02*
X156033D01*
X158821Y144139D02*
X156821D01*
X160396Y23272D02*
X158396D01*
X160396Y106698D02*
X158396D01*
X160486Y181450D02*
Y179450D01*
Y186355D02*
Y188355D01*
X161039Y268389D02*
X162454Y266974D01*
X161039Y271857D02*
X162454Y273271D01*
X161274Y141686D02*
Y139686D01*
Y146591D02*
Y148591D01*
X162848Y20820D02*
Y18820D01*
Y25725D02*
Y27725D01*
Y104245D02*
Y102245D01*
Y109150D02*
Y111150D01*
X162939Y183902D02*
X164939D01*
X163726Y144139D02*
X165726D01*
X165301Y23272D02*
X167301D01*
X165301Y106698D02*
X167301D01*
X181262Y23272D02*
X179262D01*
X183321Y21213D02*
Y19213D01*
Y25331D02*
Y27331D01*
X183949Y104963D02*
X182535Y103549D01*
X183949Y108432D02*
X182535Y109846D01*
X185380Y23272D02*
X187380D01*
X187417Y104963D02*
X188831Y103549D01*
X197797Y268154D02*
X195797D01*
X198978Y23272D02*
X196978D01*
X199372Y159493D02*
X197372D01*
X200250Y265702D02*
Y263702D01*
Y270607D02*
Y272607D01*
X201037Y21213D02*
Y19213D01*
Y25331D02*
Y27331D01*
X201825Y157040D02*
Y155040D01*
Y161946D02*
Y163946D01*
X202703Y268154D02*
X204703D01*
X203096Y23272D02*
X205096D01*
X204278Y159493D02*
X206278D01*
X205238Y186265D02*
X203238D01*
X205238Y242564D02*
X203238D01*
X206419Y301225D02*
X204419D01*
X207691Y183812D02*
Y181812D01*
Y188717D02*
Y190717D01*
Y240111D02*
Y238111D01*
Y245017D02*
Y247017D01*
X208872Y298772D02*
Y296772D01*
X210144Y186265D02*
X212144D01*
X210144Y242564D02*
X212144D01*
X211325Y301225D02*
X213325D01*
X226931Y208706D02*
X224931D01*
X229384Y206253D02*
Y204253D01*
Y211158D02*
Y213158D01*
X231931Y26816D02*
X229931D01*
X234384Y24363D02*
Y22363D01*
Y29269D02*
Y31269D01*
X236837Y26816D02*
X238837D01*
X268388Y208706D02*
X266388D01*
X270841Y206253D02*
Y204253D01*
Y211158D02*
Y213158D01*
X273293Y208706D02*
X275293D01*
X0Y0D02*
M02*
