G04 DesignSpark PCB Gerber Version 9.0 Build 5138 *
G04 #@! TF.Part,Single*
G04 #@! TF.FileFunction,Copper,L1,Top *
G04 #@! TF.FilePolarity,Positive *
%FSLAX35Y35*%
%MOIN*%
G04 #@! TA.AperFunction,ComponentPad*
%ADD27R,0.05906X0.05906*%
%ADD29R,0.05906X0.05906*%
G04 #@! TD.AperFunction*
%ADD25C,0.01500*%
%ADD23C,0.02520*%
G04 #@! TA.AperFunction,ComponentPad*
%ADD26R,0.05906X0.05906*%
%AMT26*0 Rounded Rectangle Pad at angle 90*4,1,8,0.02953,-0.02953,0.02953,0.02953,0.02953,0.02953,-0.02953,0.02953,-0.02953,0.02953,-0.02953,-0.02953,-0.02953,-0.02953,0.02953,-0.02953,0.02953,-0.02953,0*%
%ADD26T26*%
G04 #@! TA.AperFunction,ViaPad*
%ADD24C,0.05118*%
G04 #@! TA.AperFunction,ComponentPad*
%ADD28C,0.05906*%
X0Y0D02*
D02*
D23*
X30841Y198706D02*
Y208706D01*
X33321*
X36864Y212249*
Y255162*
X40801Y259099*
X30841Y248706D02*
X30801D01*
X25841Y243745*
X12061*
X6943Y238627*
Y52013*
X28990Y29965*
X81746*
X94738Y42957*
X143951*
X30841Y268706D02*
X31195D01*
X40801Y259099*
X30841Y278706D02*
X39305D01*
X45919Y272091*
X60486*
X75841Y256737*
Y243351*
X61274Y145713D02*
Y99257D01*
X64030Y96501*
Y85083*
X64423Y84690*
Y49650*
X123872*
X82140Y265792D02*
X92612D01*
X104817Y253587*
X85683Y101619D02*
X101864D01*
X107337Y107091*
X130171*
X130565Y107485*
X159305Y270123D02*
X198281D01*
X200250Y268154*
X174699Y263430D02*
X105762D01*
X93557Y275635*
X92376*
X86864Y281146*
X51431*
X48281Y284296*
X183321Y23272D02*
X201037D01*
X270841Y208706D02*
X270329D01*
X265211Y203587*
X255368*
X246707Y194926*
Y185477*
X233715Y172485*
X214817*
X201825Y159493*
D02*
D24*
X12061Y198706D03*
X40801Y259099D03*
X42770Y248469D03*
X47888Y265792D03*
X48281Y284296D03*
X56943Y266186D03*
X58911Y237839D03*
X64423Y49650D03*
X75841Y243351D03*
X82140Y265792D03*
X85683Y101619D03*
X123872Y49650D03*
X127415Y240202D03*
X129778Y194139D03*
X135683Y173272D03*
X143951Y42957D03*
X151825Y165792D03*
X174699Y263430D03*
X181746Y164611D03*
X183321Y23272D03*
X188439Y198863D03*
X192770Y30359D03*
Y57918D03*
X201037Y23272D03*
X221904Y258706D03*
X247888Y283902D03*
X251037Y233902D03*
X265998Y89375D03*
X275841Y59887D03*
X279384Y238706D03*
X279778Y278706D03*
X280171Y50044D03*
X284502Y42170D03*
D02*
D25*
X20841Y198706D02*
X12061D01*
X30841Y118706D02*
X39226D01*
X48833Y109099*
X30841Y128706D02*
X42219D01*
X48833Y122091*
X30841Y148706D02*
X35526D01*
X53006Y166186*
Y262249*
X56943Y266186*
X30841Y158706D02*
X35683D01*
X47888Y170910*
Y265792*
X42770Y248469D02*
Y180635D01*
X30841Y168706*
X58911Y237839D02*
X97494D01*
X110093Y250438*
X127022*
X145919Y231540*
X180959*
X189226Y223272*
X129778Y194139D02*
Y237839D01*
X127415Y240202*
X181746Y164611D02*
X181352D01*
X172691Y173272*
X135683*
X192770Y30359D02*
Y57918D01*
X260841Y138706D02*
Y139769D01*
X265211Y144139*
X274266*
X275841Y142564*
Y59887*
X260841Y158706D02*
Y157879D01*
X256156Y153194*
X185289*
X172691Y165792*
X151825*
X260841Y198706D02*
X261825D01*
X266785Y193745*
X278203*
X280171Y191776*
Y50044*
X260841Y208706D02*
X255762D01*
X248281Y201225*
X207337*
X196313Y190202*
X183715*
X178203Y195713*
Y208312*
X260841Y218706D02*
X252848D01*
X245919Y225635*
Y258548*
X240250Y264217*
Y268154*
X260841Y228706D02*
X262533D01*
X265998Y225241*
Y215792*
X263636Y213430*
X203006*
X188439Y198863*
X260841Y238706D02*
X260407D01*
X254581Y244532*
Y268942*
X249856Y273666*
X225841*
X221904Y269729*
Y258706*
X260841Y248706D02*
X261116D01*
X265998Y253587*
Y271698*
X263636Y274060*
X254581*
X252219Y276422*
X221510*
X195526Y250438*
Y219729*
X191589Y215792*
X164030*
X123085Y174847*
X111667*
X111274Y174454*
X260841Y288706D02*
X252691D01*
X247888Y283902*
X260841Y298706D02*
Y304335D01*
X264817Y308312*
X279384*
X284502Y303194*
Y42170*
X265998Y89375D02*
Y133076D01*
X270841Y137918*
Y138706*
Y238706D02*
X279384D01*
X270841Y248706D02*
X268596D01*
X265998Y246107*
Y236265*
X263636Y233902*
X251037*
X270841Y278706D02*
X279778D01*
X270841Y288706D02*
X270644D01*
X265998Y293351*
X129384*
X118360Y282328*
D02*
D26*
X20841Y118706D03*
Y128706D03*
Y138706D03*
Y148706D03*
Y158706D03*
Y168706D03*
Y178706D03*
Y188706D03*
Y198706D03*
Y208706D03*
Y218706D03*
Y228706D03*
Y238706D03*
Y248706D03*
Y258706D03*
Y268706D03*
Y278706D03*
Y288706D03*
Y298706D03*
X30841Y118706D03*
Y128706D03*
Y138706D03*
Y148706D03*
Y158706D03*
Y168706D03*
Y178706D03*
Y188706D03*
Y198706D03*
Y208706D03*
Y218706D03*
Y228706D03*
Y238706D03*
Y248706D03*
Y258706D03*
Y268706D03*
Y278706D03*
Y288706D03*
Y298706D03*
X260841Y118706D03*
Y128706D03*
Y138706D03*
Y148706D03*
Y158706D03*
Y168706D03*
Y178706D03*
Y188706D03*
Y198706D03*
Y208706D03*
Y218706D03*
Y228706D03*
Y238706D03*
Y248706D03*
Y258706D03*
Y268706D03*
Y278706D03*
Y288706D03*
Y298706D03*
X270841Y118706D03*
Y128706D03*
Y138706D03*
Y148706D03*
Y158706D03*
Y168706D03*
Y178706D03*
Y188706D03*
Y198706D03*
Y208706D03*
Y218706D03*
Y228706D03*
Y238706D03*
Y248706D03*
Y258706D03*
Y268706D03*
Y278706D03*
Y288706D03*
Y298706D03*
D02*
D27*
X19049Y19375D03*
Y89375D03*
X29049Y19375D03*
Y89375D03*
X39049Y19375D03*
Y89375D03*
X49049Y19375D03*
Y89375D03*
X59049Y19375D03*
Y89375D03*
X62415Y220123D03*
X65171Y301225D03*
X69049Y19375D03*
Y89375D03*
X72415Y220123D03*
X75171Y301225D03*
X79049Y19375D03*
Y89375D03*
X82415Y220123D03*
X85171Y301225D03*
X89049Y19375D03*
Y89375D03*
X92415Y220123D03*
X95171Y301225D03*
X102415Y220123D03*
X105171Y301225D03*
X112415Y220123D03*
X115171Y301225D03*
X144699Y245320D03*
X145880Y301225D03*
X154699Y245320D03*
X155880Y301225D03*
X164699Y245320D03*
X165880Y301225D03*
X174699Y245320D03*
X175880Y301225D03*
X207691Y186265D03*
Y242564D03*
X208872Y301225D03*
X214384Y26816D03*
X217691Y186265D03*
Y242564D03*
X218872Y301225D03*
X224384Y26816D03*
X227691Y186265D03*
Y242564D03*
X228872Y301225D03*
X234384Y26816D03*
X237691Y186265D03*
Y242564D03*
X238872Y301225D03*
X244384Y26816D03*
X254384D03*
X264384D03*
D02*
D28*
X48833Y109099D03*
Y122091D03*
X64817Y253587D03*
X65604Y274847D03*
X70329Y192170D03*
X71274Y174454D03*
X88833Y109099D03*
Y122091D03*
X104817Y253587D03*
X105604Y274847D03*
X107337Y107091D03*
Y122091D03*
X110329Y192170D03*
X111274Y174454D03*
X114837Y114591D03*
X118360Y282328D03*
X119305Y270123D03*
X130565Y107485D03*
Y122485D03*
X137652Y222091D03*
X138065Y114985D03*
X138203Y208312D03*
X158360Y282328D03*
X159305Y270123D03*
X162848Y106698D03*
Y121698D03*
X170348Y114198D03*
X177652Y222091D03*
X178203Y208312D03*
X185683Y106698D03*
Y121698D03*
X189226Y223272D03*
X189384Y208706D03*
X193183Y114198D03*
X199620Y282328D03*
X200250Y268154D03*
X201195Y144926D03*
X201825Y159493D03*
X202219Y106737D03*
Y122091D03*
X229226Y223272D03*
X229384Y208706D03*
X239620Y282328D03*
X240250Y268154D03*
X241195Y144926D03*
X241825Y159493D03*
X242219Y106737D03*
Y122091D03*
D02*
D29*
X61274Y145713D03*
X71274D03*
X108518Y146107D03*
X117415Y69335D03*
X118518Y146107D03*
X121904Y23666D03*
Y33666D03*
X127415Y69335D03*
X150486Y183902D03*
X151274Y144139D03*
X160486Y183902D03*
X161274Y144139D03*
X162848Y23272D03*
Y33272D03*
X0Y0D02*
M02*
